<svg xmlns="http://www.w3.org/2000/svg" data-name="圖層 1" width="240" height="240"><rect id="backgroundrect" width="100%" height="100%" x="0" y="0" fill="none" stroke="none" class="" style=""/><defs><style>.cls-1,.cls-2{fill:none;stroke:#942323;stroke-miterlimit:10;}.cls-1{stroke-width:6px;}.cls-2{opacity:0.32;}.cls-3{fill:#1e556d;}</style></defs><title>網站</title><g class="currentLayer" style=""><title>Layer 1</title><g class=""><circle class="cls-1" cx="120" cy="120" r="110.37999725341797" id="svg_1"/><circle class="cls-1" cx="120" cy="120" r="97.33000183105469" id="svg_2"/><polyline class="cls-2" points="120,22.66998291015625 120,120 120,217.32999420166016 " id="svg_3"/><polyline class="cls-2" points="217.3300018310547,120 120,120 22.669998168945312,120 " id="svg_4"/><line class="cls-2" x1="48.30999755859375" y1="56.18998718261719" x2="194.70001220703125" y2="184.38998413085938" id="svg_5"/><line class="cls-2" x1="48.30999755859375" y1="191.87997436523438" x2="187.82000732421875" y2="51.199981689453125" id="svg_6"/><line class="cls-2" x1="81.5" y1="30.589981079101562" x2="159.45999145507812" y2="208.989990234375" id="svg_7"/><line class="cls-2" x1="153.8699951171875" y1="28.72998046875" x2="86" y2="211.22000122070312" id="svg_8"/><line class="cls-2" x1="28.699996948242188" y1="86.21998596191406" x2="211.3699951171875" y2="153.5999755859375" id="svg_9"/><line class="cls-2" x1="30.020004272460938" y1="157.12997436523438" x2="210.04000854492188" y2="83.00997924804688" id="svg_10"/><path class="cls-3" d="M96.62999755859374,130.50998657226563 A12.15,12.15 0 0 1 95.55999755859375,134.42998657226565 a2.46,2.46 0 0 1 -2,1.5 q-2.18,0.15000000000000013 -4.59,-3.6 a30.91,30.91 0 0 1 -4.6,3.24 l-1.42,-1.84 a29.61,29.61 0 0 0 5,-3.46 a42.5,42.5 0 0 1 -1.4100000000000001,-7.83 l-5.42,0.3700000000000003 l0.24000000000000013,3.58 q1.9100000000000001,-0.52 4.23,-1.3800000000000001 l0.2,2.25 q-2.3,0.8400000000000005 -4.28,1.3800000000000001 l0.39000000000000035,5.75 a2.25,2.25 0 0 1 -0.3100000000000003,1.5 a1.87,1.87 0 0 1 -1,0.7000000000000005 a11.37,11.37 0 0 1 -2.22,0.30000000000000027 q-1.2,0.08000000000000007 -2.36,0.1 l-1,-2.4 q1.75,0 2.87,-0.12000000000000002 a4.78,4.78 0 0 0 1.3900000000000001,-0.2 a0.48000000000000026,0.48000000000000026 0 0 0 0.17,-0.48000000000000026 l-0.30000000000000027,-4.48 q-2.75,0.7200000000000005 -5.05,1.12 l-0.56,-2.13 q2.49,-0.45 5.46,-1.26 l-0.27,-4.07 l-5.45,0.3700000000000003 l-0.15000000000000013,-2.2 l5.45,-0.3700000000000003 l-0.2,-2.94 q-1.73,0.3800000000000003 -4.37,0.79 l-1.18,-2.08 a38.36,38.36 0 0 0 10.84,-2.7800000000000002 l1.45,1.82 a34,34 0 0 1 -4.4,1.59 l0.23,3.43 l5.39,-0.36000000000000026 q-0.16000000000000017,-1.57 -0.5,-6.61 l2.31,-0.16000000000000017 q0.19000000000000014,3.37 0.45,6.61 l7.08,-0.48000000000000026 l0.15000000000000013,2.2 l-7,0.47000000000000025 a57.81,57.81 0 0 0 0.8800000000000006,6 a22.74,22.74 0 0 0 2.9,-5.27 l2.09,0.8800000000000006 a21.91,21.91 0 0 1 -4.11,6.77 a10,10 0 0 0 1.54,2.14 q0.6900000000000008,0.6700000000000008 1,0.6400000000000007 q0.8900000000000007,-0.06000000000000005 1.31,-4.11 zm-1.79,-13.06 l-1.78,1.52 a18.76,18.76 0 0 0 -3.6,-3.54 L91.15999755859374,113.82998657226562 A20.63,20.63 0 0 1 94.84999755859377,117.44998657226563 z" id="svg_11"/><path class="cls-3" d="M121.35999755859376,113.72998657226563 l-7.21,0.49000000000000027 l0.13,2 l6.14,-0.41000000000000025 l0.42000000000000026,6.22 l-20.47,1.3800000000000001 l-0.42000000000000026,-6.22 l6,-0.41000000000000025 l-0.14,-2 l-7.13,0.48000000000000026 l-0.14,-2.05 l22.65,-1.53 zm0.8800000000000006,12.64 l-6,0.4 a18,18 0 0 1 -2.33,3.33 q3.41,0.6200000000000006 8.19,2 l-0.8500000000000005,2 q-3.55,-1.15 -9.27,-2.38 q-3.54,2.62 -11,3.64 l-0.91,-2.1 a25.59,25.59 0 0 0 8.78,-2.08 q-2.9,-0.51 -5.24,-0.77 a22.57,22.57 0 0 0 2.18,-3 l-6.18,0.42000000000000026 l-0.13,-2 l7.57,-0.51 q0.6700000000000008,-1.19 1.11,-2.19 l2.29,0.3700000000000003 a16.84,16.84 0 0 1 -0.8300000000000005,1.6500000000000008 l5.17,-0.35000000000000026 a9.31,9.31 0 0 0 0.5800000000000005,-1.3800000000000001 l2.2800000000000002,0.24000000000000013 a7.37,7.37 0 0 1 -0.3800000000000003,1 l4.85,-0.33000000000000035 zm-16,-5.3100000000000005 l-0.16000000000000017,-2.37 l-3.79,0.25 l0.16000000000000017,2.37 zm7.26,5.9 l-5.11,0.3400000000000004 q-0.47000000000000025,0.77 -1.12,1.7200000000000002 q1.87,0.19000000000000014 3.92,0.56 A13.91,13.91 0 0 0 113.55999755859375,126.95998657226562 zm-1.46,-10.59 l-0.14,-2 l-3.81,0.26 l0.14,2 zm0.29000000000000026,4.28 l-0.16000000000000017,-2.37 l-3.81,0.26 l0.16000000000000017,2.37 zm6.09,-0.41000000000000025 l-0.16000000000000017,-2.37 l-3.8600000000000003,0.26 l0.16000000000000017,2.37 z" id="svg_12"/><path class="cls-3" d="M136.48999755859376,128.3499865722656 l-4,0.27 l0.3100000000000003,4.54 l-2.13,0.14 l-0.3100000000000003,-4.54 l-4.47,0.30000000000000027 l-0.14,-2.05 l4.47,-0.30000000000000027 l-0.14,-2.08 l-3.93,0.26 l-0.14,-2 l2,-0.13 a23.89,23.89 0 0 0 -1.1,-3.27 l-1.61,0.11000000000000007 l-0.14,-2.12 l4.36,-0.29000000000000026 l-0.13,-1.9 l-3.66,0.25 l-0.14,-2.05 l3.66,-0.25 l-0.17,-2.48 l2.18,-0.15000000000000013 l0.17,2.48 l3.42,-0.23 l0.14,2.05 l-3.42,0.23 l0.13,1.9 l3.94,-0.27 l0.14,2.12 l-1.19,0.08000000000000007 q-0.23,1.26 -0.79,3.4 l1.79,-0.12000000000000002 l0.14,2 l-3.52,0.24000000000000013 l0.14,2.08 l4,-0.27 zm-4.14,-9.24 l-3.19,0.22000000000000014 q0.4400000000000003,1.3 0.9500000000000005,3.2800000000000002 l1.4300000000000002,-0.1 A25.79,25.79 0 0 0 132.35999755859376,119.1099865722656 zm16.55,11.19 L147.55999755859375,132.19998657226563 a22.67,22.67 0 0 1 -3.51,-2.63 a17.3,17.3 0 0 1 -2.48,3.07 l-1.52,-1.6500000000000008 a13.36,13.36 0 0 0 2.5700000000000003,-3 A18.85,18.85 0 0 1 139.55999755859375,120.52998657226561 l-0.6500000000000007,0 l0.8200000000000005,12.08 l-2.24,0.15000000000000013 l-1.5,-22.2 l10.3,-0.6900000000000008 q0.13,2 0.1,3.63 a2.93,2.93 0 0 1 -1,2.91 a4.68,4.68 0 0 1 -2.25,0.48000000000000026 q-0.5700000000000005,0 -1.23,0 l-0.8900000000000007,-2 q0.6700000000000008,0 2.55,-0.15000000000000013 a0.5900000000000005,0.5900000000000005 0 0 0 0.46,-0.3100000000000003 a6.46,6.46 0 0 0 0.12000000000000002,-2.24 l-5.72,0.39000000000000035 l0.39000000000000035,5.8100000000000005 l8.09,-0.55 a26.9,26.9 0 0 1 -1.6500000000000008,9.6 A16.89,16.89 0 0 0 148.89999755859372,130.29998657226565 zM144.55999755859375,120.18998657226564 l-2.87,0.19000000000000014 a15.52,15.52 0 0 0 2,5.18 A21.46,21.46 0 0 0 144.55999755859375,120.18998657226564 z" id="svg_13"/><path class="cls-3" d="M173.06999755859374,130.48998657226565 l-2.43,0.16000000000000017 l-0.09000000000000012,-1.34 l-10.67,0.7200000000000005 l0.09000000000000012,1.32 l-2.36,0.16000000000000017 l-0.5700000000000005,-8.47 a39.88,39.88 0 0 1 -4.29,1.71 l-1.52,-2 a52,52 0 0 0 9.73,-4.33 a27.49,27.49 0 0 0 -3.85,-3.47 q-1.9300000000000002,1.4 -3.9,2.6 l-1.73,-1.6500000000000008 a30.34,30.34 0 0 0 9.18,-7.58 l2.52,0.51 q-0.45,0.6300000000000006 -1.21,1.49 l9.18,-0.6200000000000006 l0.15000000000000013,2.23 a28.64,28.64 0 0 1 -9.08,8.54 l10.11,-0.6800000000000008 zm-4.94,-18.35 l-8.37,0.56 a9.77,9.77 0 0 1 -0.79,0.7300000000000005 a34.5,34.5 0 0 1 4,3.67 A23.19,23.19 0 0 0 168.11999755859375,112.13998657226563 zm2.26,14.89 l-0.33000000000000035,-4.83 l-10.67,0.7200000000000005 l0.33000000000000035,4.83 z" id="svg_14"/></g></g></svg>