<svg xmlns="http://www.w3.org/2000/svg" width="809" height="809"><rect id="backgroundrect" width="100%" height="100%" x="0" y="0" fill="none" stroke="none" class="" style=""/>
 <defs>
  <style>.cls-1,.cls-4{fill:none;stroke:#8a2a29;stroke-miterlimit:10;}.cls-1{stroke-width:37px;}.cls-2{fill:#305971;}.cls-3{fill:#fff;}.cls-4{stroke-width:6px;stroke-dasharray:20 15;}</style>
 </defs>
 <title>工作區域 1</title>
 <g style="">
  <title>background</title>
  <rect fill="none" id="canvas_background" height="809" width="809" y="-1" x="-1"/>
 </g>
 <g style="" class="currentLayer">
  <title>Layer 1</title>
  <g id="新圖" class="">
   <circle id="svg_1" r="384.7300109863281" cy="404.5000305175781" cx="404.5" class="cls-1"/>
   <path id="svg_2" d="m403.91001270507815,353.23001906445313 l0,0 a50.61,50.61 0 0 0 -15.64,2.48 l0,0 a50.61,50.61 0 0 0 -14.11,7.19 l0,0 a50.61,50.61 0 0 0 -11.2,11.2 l0,0 a50.61,50.61 0 0 0 -7.19,14.11 l0,0 a50.61,50.61 0 0 0 -2.48,15.64 l0,0 a50.61,50.61 0 0 0 2.48,15.64 l0,0 a50.61,50.61 0 0 0 7.19,14.11 l0,0 a50.61,50.61 0 0 0 11.2,11.2 l0,0 a50.61,50.61 0 0 0 14.11,7.22 l0,0 a50.61,50.61 0 0 0 15.64,2.48 l0,0 a50.61,50.61 0 0 0 15.67,-2.48 l0,0 a50.61,50.61 0 0 0 14.11,-7.19 l0,0 a50.61,50.61 0 0 0 11.2,-11.2 l0,0 a50.61,50.61 0 0 0 7.19,-14.11 l0,0 a50.61,50.61 0 0 0 2.48,-15.64 l0,0 a50.61,50.61 0 0 0 -2.48,-15.64 l0,0 a50.61,50.61 0 0 0 -7.19,-14.11 l0,0 a50.61,50.61 0 0 0 -11.2,-11.2 l0,0 a50.61,50.61 0 0 0 -14.11,-7.23 l0,0 a50.61,50.61 0 0 0 -15.67,-2.47 z" class="cls-2"/>
   <circle id="svg_3" r="8.670000076293945" cy="376.7300109863281" cx="403.9900207519531" class="cls-3"/>
   <circle id="svg_4" r="8.670000076293945" cy="432.7300109863281" cx="403.9900207519531" class="cls-3"/>
   <circle id="svg_5" r="8.670000076293945" cy="419.3900146484375" cx="379.33001708984375" class="cls-3"/>
   <circle id="svg_6" r="8.670000076293945" cy="393.7300109863281" cx="379.6600036621094" class="cls-3"/>
   <circle id="svg_7" r="8.670000076293945" cy="419.3900146484375" cx="428.33001708984375" class="cls-3"/>
   <circle id="svg_8" r="8.670000076293945" cy="393.7300109863281" cx="428.6600036621094" class="cls-3"/>
   <ellipse id="svg_9" ry="347.7200012207031" rx="345.239990234375" cy="406.9900207519531" cx="406.9900207519531" class="cls-4"/>
  </g>
 </g>
</svg>