<svg xmlns="http://www.w3.org/2000/svg" width="273" height="277"><rect id="backgroundrect" width="100%" height="100%" x="0" y="0" fill="none" stroke="none" class="" style=""/>
 <defs>
  <style>.cls-1{fill:#efefef;}.cls-2{fill:#d0cbac;stroke:#fff;stroke-miterlimit:10;}</style>
 </defs>
 <title>工作區域 1</title>
 <g style="">
  <title>background</title>
  <rect fill="none" id="canvas_background" height="276" width="272" y="-1" x="-1"/>
 </g>
 <g style="" class="currentLayer">
  <title>Layer 1</title>
  <g id="新圖" class="">
   <circle id="svg_1" transform="rotate(-0.9700000286102295 -813.130187988281,-367.9763488769564) " r="133.75" cy="154.5035858154297" cx="127.78983426094055" class="cls-1"/>
   <path id="svg_2" d="m27.569832268753053,125.24358809277344 a11,11 0 0 0 11.21,11.36 l71.46,-0.8900000000000003 a10.14,10.14 0 0 0 8.59,-15.31 l-37.15,-62.56 c-3.3,-5.55 -11.36,-5.5 -15.6,-2.26 s-36.69,20.46 -38.51,69.66 z" class="cls-2"/>
   <path id="svg_3" d="m243.67983226875305,155.22358809277344 a11,11 0 0 0 -11.21,-11.36 l-71.46,0.8900000000000003 a10.14,10.14 0 0 0 -8.59,15.29 l37.15,62.58 c3.3,5.55 11.36,5.5 15.6,2.26 s36.71,-20.44 38.51,-69.66 z" class="cls-2"/>
   <path id="svg_4" d="m94.90983226875305,37.58358809277344 a11,11 0 0 0 -4.28,15.38 l36.32,61.55 a10.14,10.14 0 0 0 17.55,-0.17 l35.78,-63.36 c3.17,-5.62 -0.8800000000000003,-12.6 -5.8,-14.66 s-35.97,-21.66 -79.57,1.26 z" class="cls-2"/>
   <path id="svg_5" d="m177.25983226875306,243.56358809277344 a11,11 0 0 0 4.3100000000000005,-15.38 l-36.32,-61.55 a10.14,10.14 0 0 0 -17.55,0.17 l-35.78,63.36 c-3.17,5.62 0.8800000000000003,12.6 5.8,14.66 s35.95,21.66 79.54,-1.26 z" class="cls-2"/>
   <path id="svg_6" d="m69.56983226875305,226.93358809277345 a11,11 0 0 0 15.45,-4 l35.05,-62.28 a10.14,10.14 0 0 0 -8.94,-15.11 l-72.76,0.8 c-6.45,0.07 -10.46,7.07 -9.78,12.37 s-0.7400000000000003,41.99 40.98,68.22 z" class="cls-2"/>
   <path id="svg_7" d="m202.32983226875305,54.323588092773434 a11,11 0 0 0 -15.45,4 l-35.05,62.28 a10.14,10.14 0 0 0 8.94,15.11 l72.76,-0.8 c6.45,-0.07 10.46,-7.07 9.78,-12.37 s0.7100000000000003,-41.98 -40.98,-68.22 z" class="cls-2"/>
  </g>
 </g>
</svg>