<svg xmlns="http://www.w3.org/2000/svg" version="1.1" width="120" height="121"><rect id="backgroundrect" width="100%" height="100%" x="0" y="0" fill="none" stroke="none" class="" style=""/>
 
 
 
 
 
 
 
 
 
 
 
 
 
 
 
 
 
 
 
 
 
 
 
 
 
 
 
 
 
 
 
 
 
 
 
 
 
 
 
 
 
 
 
 
 
 
 
 
 
 
 
 
 
 
 
 
 
 
 
 
 
 
 
 
 
 
 
 
 
 
 
 
 
 
 
 
 
 
 
 
 
 
 
 
 
 
 
 
 
 
 
 
 
 
 
 
 
 
 
 
 
 
 
 
 
 
 
 
 
 
 
 
 
 
 
 
 
 
 
 
 
 
 
 
 
 
 
 
 
 
 
 
 
 
 
 
 
 
 
 
 
 
 
 
 
 
 
 
 
 
 
 
 
 
 
 
 
 
 
 
 
 
 
 
 
 
 
 
 
 
 
 
 
 
 
 
 
 
 
 
 
 
 
 
 
 
 
 
 
 
 
 
 
 
 
 
 
 
 
 
 
 
 
 
 
 
 
 
 
 
 
 
 
 
 
 
 
 
 
 
 
 
 
 
 
 
 
 
 
 
 
 
 
 
 
 
 
 
 
 
 
 
 
 
 
 
 
 
 
 
 
 
 
 
 
 
 
 
 
 
 
 
 
 
 
 
 
 
 
 
 
 
 
 
 
 
 
 
 
 
 
 
 
 
 
 
 
 
 
 
 
 
 
 
 
 
 
 
 
 
 
 
 
 
 
 
 
 
 
 
 
 
 
 
 
 
 
 
 
 
 
 
 
 
 
 
 
 
 
 
 
 
 
 
 
 
 
 
 
<g class="currentLayer" style=""><title>Layer 1</title><g class=""><rect x="0.40607452392578125" y="0.9060745239257812" width="119.18784856796265" height="119.18784856796265" style="fill:#ffffff" id="svg_1" class=""/><rect x="14.853086471557617" y="15.353086471557617" width="3.611752986907959" height="3.611752986907959" style="fill:#000000" id="svg_2" class=""/><rect x="18.464839458465576" y="15.353086471557617" width="3.611752986907959" height="3.611752986907959" style="fill:#000000" id="svg_3" class=""/><rect x="22.076592445373535" y="15.353086471557617" width="3.611752986907959" height="3.611752986907959" style="fill:#000000" id="svg_4" class=""/><rect x="25.688345432281494" y="15.353086471557617" width="3.611752986907959" height="3.611752986907959" style="fill:#000000" id="svg_5" class=""/><rect x="29.300098419189453" y="15.353086471557617" width="3.611752986907959" height="3.611752986907959" style="fill:#000000" id="svg_6" class=""/><rect x="32.91185140609741" y="15.353086471557617" width="3.611752986907959" height="3.611752986907959" style="fill:#000000" id="svg_7" class=""/><rect x="36.52360439300537" y="15.353086471557617" width="3.611752986907959" height="3.611752986907959" style="fill:#000000" id="svg_8" class=""/><rect x="47.35886335372925" y="15.353086471557617" width="3.611752986907959" height="3.611752986907959" style="fill:#000000" id="svg_9" class=""/><rect x="72.64113426208496" y="15.353086471557617" width="3.611752986907959" height="3.611752986907959" style="fill:#000000" id="svg_10" class=""/><rect x="79.86464023590088" y="15.353086471557617" width="3.611752986907959" height="3.611752986907959" style="fill:#000000" id="svg_11" class=""/><rect x="83.47639322280884" y="15.353086471557617" width="3.611752986907959" height="3.611752986907959" style="fill:#000000" id="svg_12" class=""/><rect x="87.0881462097168" y="15.353086471557617" width="3.611752986907959" height="3.611752986907959" style="fill:#000000" id="svg_13" class=""/><rect x="90.69989919662476" y="15.353086471557617" width="3.611752986907959" height="3.611752986907959" style="fill:#000000" id="svg_14" class=""/><rect x="94.31165218353271" y="15.353086471557617" width="3.611752986907959" height="3.611752986907959" style="fill:#000000" id="svg_15" class=""/><rect x="97.92340517044067" y="15.353086471557617" width="3.611752986907959" height="3.611752986907959" style="fill:#000000" id="svg_16" class=""/><rect x="101.53515815734863" y="15.353086471557617" width="3.611752986907959" height="3.611752986907959" style="fill:#000000" id="svg_17" class=""/><rect x="14.853086471557617" y="18.964839458465576" width="3.611752986907959" height="3.611752986907959" style="fill:#000000" id="svg_18" class=""/><rect x="36.52360439300537" y="18.964839458465576" width="3.611752986907959" height="3.611752986907959" style="fill:#000000" id="svg_19" class=""/><rect x="43.74711036682129" y="18.964839458465576" width="3.611752986907959" height="3.611752986907959" style="fill:#000000" id="svg_20" class=""/><rect x="47.35886335372925" y="18.964839458465576" width="3.611752986907959" height="3.611752986907959" style="fill:#000000" id="svg_21" class=""/><rect x="54.582369327545166" y="18.964839458465576" width="3.611752986907959" height="3.611752986907959" style="fill:#000000" id="svg_22" class=""/><rect x="58.194122314453125" y="18.964839458465576" width="3.611752986907959" height="3.611752986907959" style="fill:#000000" id="svg_23" class=""/><rect x="61.805875301361084" y="18.964839458465576" width="3.611752986907959" height="3.611752986907959" style="fill:#000000" id="svg_24" class=""/><rect x="69.029381275177" y="18.964839458465576" width="3.611752986907959" height="3.611752986907959" style="fill:#000000" id="svg_25" class=""/><rect x="79.86464023590088" y="18.964839458465576" width="3.611752986907959" height="3.611752986907959" style="fill:#000000" id="svg_26" class=""/><rect x="101.53515815734863" y="18.964839458465576" width="3.611752986907959" height="3.611752986907959" style="fill:#000000" id="svg_27" class=""/><rect x="14.853086471557617" y="22.576592445373535" width="3.611752986907959" height="3.611752986907959" style="fill:#000000" id="svg_28" class=""/><rect x="22.076592445373535" y="22.576592445373535" width="3.611752986907959" height="3.611752986907959" style="fill:#000000" id="svg_29" class=""/><rect x="25.688345432281494" y="22.576592445373535" width="3.611752986907959" height="3.611752986907959" style="fill:#000000" id="svg_30" class=""/><rect x="29.300098419189453" y="22.576592445373535" width="3.611752986907959" height="3.611752986907959" style="fill:#000000" id="svg_31" class=""/><rect x="36.52360439300537" y="22.576592445373535" width="3.611752986907959" height="3.611752986907959" style="fill:#000000" id="svg_32" class=""/><rect x="47.35886335372925" y="22.576592445373535" width="3.611752986907959" height="3.611752986907959" style="fill:#000000" id="svg_33" class=""/><rect x="50.97061634063721" y="22.576592445373535" width="3.611752986907959" height="3.611752986907959" style="fill:#000000" id="svg_34" class=""/><rect x="54.582369327545166" y="22.576592445373535" width="3.611752986907959" height="3.611752986907959" style="fill:#000000" id="svg_35" class=""/><rect x="79.86464023590088" y="22.576592445373535" width="3.611752986907959" height="3.611752986907959" style="fill:#000000" id="svg_36" class=""/><rect x="87.0881462097168" y="22.576592445373535" width="3.611752986907959" height="3.611752986907959" style="fill:#000000" id="svg_37" class=""/><rect x="90.69989919662476" y="22.576592445373535" width="3.611752986907959" height="3.611752986907959" style="fill:#000000" id="svg_38" class=""/><rect x="94.31165218353271" y="22.576592445373535" width="3.611752986907959" height="3.611752986907959" style="fill:#000000" id="svg_39" class=""/><rect x="101.53515815734863" y="22.576592445373535" width="3.611752986907959" height="3.611752986907959" style="fill:#000000" id="svg_40" class=""/><rect x="14.853086471557617" y="26.188345432281494" width="3.611752986907959" height="3.611752986907959" style="fill:#000000" id="svg_41" class=""/><rect x="22.076592445373535" y="26.188345432281494" width="3.611752986907959" height="3.611752986907959" style="fill:#000000" id="svg_42" class=""/><rect x="25.688345432281494" y="26.188345432281494" width="3.611752986907959" height="3.611752986907959" style="fill:#000000" id="svg_43" class=""/><rect x="29.300098419189453" y="26.188345432281494" width="3.611752986907959" height="3.611752986907959" style="fill:#000000" id="svg_44" class=""/><rect x="36.52360439300537" y="26.188345432281494" width="3.611752986907959" height="3.611752986907959" style="fill:#000000" id="svg_45" class=""/><rect x="43.74711036682129" y="26.188345432281494" width="3.611752986907959" height="3.611752986907959" style="fill:#000000" id="svg_46" class=""/><rect x="47.35886335372925" y="26.188345432281494" width="3.611752986907959" height="3.611752986907959" style="fill:#000000" id="svg_47" class=""/><rect x="54.582369327545166" y="26.188345432281494" width="3.611752986907959" height="3.611752986907959" style="fill:#000000" id="svg_48" class=""/><rect x="61.805875301361084" y="26.188345432281494" width="3.611752986907959" height="3.611752986907959" style="fill:#000000" id="svg_49" class=""/><rect x="69.029381275177" y="26.188345432281494" width="3.611752986907959" height="3.611752986907959" style="fill:#000000" id="svg_50" class=""/><rect x="79.86464023590088" y="26.188345432281494" width="3.611752986907959" height="3.611752986907959" style="fill:#000000" id="svg_51" class=""/><rect x="87.0881462097168" y="26.188345432281494" width="3.611752986907959" height="3.611752986907959" style="fill:#000000" id="svg_52" class=""/><rect x="90.69989919662476" y="26.188345432281494" width="3.611752986907959" height="3.611752986907959" style="fill:#000000" id="svg_53" class=""/><rect x="94.31165218353271" y="26.188345432281494" width="3.611752986907959" height="3.611752986907959" style="fill:#000000" id="svg_54" class=""/><rect x="101.53515815734863" y="26.188345432281494" width="3.611752986907959" height="3.611752986907959" style="fill:#000000" id="svg_55" class=""/><rect x="14.853086471557617" y="29.800098419189453" width="3.611752986907959" height="3.611752986907959" style="fill:#000000" id="svg_56" class=""/><rect x="22.076592445373535" y="29.800098419189453" width="3.611752986907959" height="3.611752986907959" style="fill:#000000" id="svg_57" class=""/><rect x="25.688345432281494" y="29.800098419189453" width="3.611752986907959" height="3.611752986907959" style="fill:#000000" id="svg_58" class=""/><rect x="29.300098419189453" y="29.800098419189453" width="3.611752986907959" height="3.611752986907959" style="fill:#000000" id="svg_59" class=""/><rect x="36.52360439300537" y="29.800098419189453" width="3.611752986907959" height="3.611752986907959" style="fill:#000000" id="svg_60" class=""/><rect x="50.97061634063721" y="29.800098419189453" width="3.611752986907959" height="3.611752986907959" style="fill:#000000" id="svg_61" class=""/><rect x="58.194122314453125" y="29.800098419189453" width="3.611752986907959" height="3.611752986907959" style="fill:#000000" id="svg_62" class=""/><rect x="65.41762828826904" y="29.800098419189453" width="3.611752986907959" height="3.611752986907959" style="fill:#000000" id="svg_63" class=""/><rect x="72.64113426208496" y="29.800098419189453" width="3.611752986907959" height="3.611752986907959" style="fill:#000000" id="svg_64" class=""/><rect x="79.86464023590088" y="29.800098419189453" width="3.611752986907959" height="3.611752986907959" style="fill:#000000" id="svg_65" class=""/><rect x="87.0881462097168" y="29.800098419189453" width="3.611752986907959" height="3.611752986907959" style="fill:#000000" id="svg_66" class=""/><rect x="90.69989919662476" y="29.800098419189453" width="3.611752986907959" height="3.611752986907959" style="fill:#000000" id="svg_67" class=""/><rect x="94.31165218353271" y="29.800098419189453" width="3.611752986907959" height="3.611752986907959" style="fill:#000000" id="svg_68" class=""/><rect x="101.53515815734863" y="29.800098419189453" width="3.611752986907959" height="3.611752986907959" style="fill:#000000" id="svg_69" class=""/><rect x="14.853086471557617" y="33.41185140609741" width="3.611752986907959" height="3.611752986907959" style="fill:#000000" id="svg_70" class=""/><rect x="36.52360439300537" y="33.41185140609741" width="3.611752986907959" height="3.611752986907959" style="fill:#000000" id="svg_71" class=""/><rect x="43.74711036682129" y="33.41185140609741" width="3.611752986907959" height="3.611752986907959" style="fill:#000000" id="svg_72" class=""/><rect x="50.97061634063721" y="33.41185140609741" width="3.611752986907959" height="3.611752986907959" style="fill:#000000" id="svg_73" class=""/><rect x="61.805875301361084" y="33.41185140609741" width="3.611752986907959" height="3.611752986907959" style="fill:#000000" id="svg_74" class=""/><rect x="69.029381275177" y="33.41185140609741" width="3.611752986907959" height="3.611752986907959" style="fill:#000000" id="svg_75" class=""/><rect x="72.64113426208496" y="33.41185140609741" width="3.611752986907959" height="3.611752986907959" style="fill:#000000" id="svg_76" class=""/><rect x="79.86464023590088" y="33.41185140609741" width="3.611752986907959" height="3.611752986907959" style="fill:#000000" id="svg_77" class=""/><rect x="101.53515815734863" y="33.41185140609741" width="3.611752986907959" height="3.611752986907959" style="fill:#000000" id="svg_78" class=""/><rect x="14.853086471557617" y="37.02360439300537" width="3.611752986907959" height="3.611752986907959" style="fill:#000000" id="svg_79" class=""/><rect x="18.464839458465576" y="37.02360439300537" width="3.611752986907959" height="3.611752986907959" style="fill:#000000" id="svg_80" class=""/><rect x="22.076592445373535" y="37.02360439300537" width="3.611752986907959" height="3.611752986907959" style="fill:#000000" id="svg_81" class=""/><rect x="25.688345432281494" y="37.02360439300537" width="3.611752986907959" height="3.611752986907959" style="fill:#000000" id="svg_82" class=""/><rect x="29.300098419189453" y="37.02360439300537" width="3.611752986907959" height="3.611752986907959" style="fill:#000000" id="svg_83" class=""/><rect x="32.91185140609741" y="37.02360439300537" width="3.611752986907959" height="3.611752986907959" style="fill:#000000" id="svg_84" class=""/><rect x="36.52360439300537" y="37.02360439300537" width="3.611752986907959" height="3.611752986907959" style="fill:#000000" id="svg_85" class=""/><rect x="43.74711036682129" y="37.02360439300537" width="3.611752986907959" height="3.611752986907959" style="fill:#000000" id="svg_86" class=""/><rect x="50.97061634063721" y="37.02360439300537" width="3.611752986907959" height="3.611752986907959" style="fill:#000000" id="svg_87" class=""/><rect x="58.194122314453125" y="37.02360439300537" width="3.611752986907959" height="3.611752986907959" style="fill:#000000" id="svg_88" class=""/><rect x="65.41762828826904" y="37.02360439300537" width="3.611752986907959" height="3.611752986907959" style="fill:#000000" id="svg_89" class=""/><rect x="72.64113426208496" y="37.02360439300537" width="3.611752986907959" height="3.611752986907959" style="fill:#000000" id="svg_90" class=""/><rect x="79.86464023590088" y="37.02360439300537" width="3.611752986907959" height="3.611752986907959" style="fill:#000000" id="svg_91" class=""/><rect x="83.47639322280884" y="37.02360439300537" width="3.611752986907959" height="3.611752986907959" style="fill:#000000" id="svg_92" class=""/><rect x="87.0881462097168" y="37.02360439300537" width="3.611752986907959" height="3.611752986907959" style="fill:#000000" id="svg_93" class=""/><rect x="90.69989919662476" y="37.02360439300537" width="3.611752986907959" height="3.611752986907959" style="fill:#000000" id="svg_94" class=""/><rect x="94.31165218353271" y="37.02360439300537" width="3.611752986907959" height="3.611752986907959" style="fill:#000000" id="svg_95" class=""/><rect x="97.92340517044067" y="37.02360439300537" width="3.611752986907959" height="3.611752986907959" style="fill:#000000" id="svg_96" class=""/><rect x="101.53515815734863" y="37.02360439300537" width="3.611752986907959" height="3.611752986907959" style="fill:#000000" id="svg_97" class=""/><rect x="58.194122314453125" y="40.63535737991333" width="3.611752986907959" height="3.611752986907959" style="fill:#000000" id="svg_98" class=""/><rect x="72.64113426208496" y="40.63535737991333" width="3.611752986907959" height="3.611752986907959" style="fill:#000000" id="svg_99" class=""/><rect x="14.853086471557617" y="44.24711036682129" width="3.611752986907959" height="3.611752986907959" style="fill:#000000" id="svg_100" class=""/><rect x="18.464839458465576" y="44.24711036682129" width="3.611752986907959" height="3.611752986907959" style="fill:#000000" id="svg_101" class=""/><rect x="22.076592445373535" y="44.24711036682129" width="3.611752986907959" height="3.611752986907959" style="fill:#000000" id="svg_102" class=""/><rect x="25.688345432281494" y="44.24711036682129" width="3.611752986907959" height="3.611752986907959" style="fill:#000000" id="svg_103" class=""/><rect x="29.300098419189453" y="44.24711036682129" width="3.611752986907959" height="3.611752986907959" style="fill:#000000" id="svg_104" class=""/><rect x="36.52360439300537" y="44.24711036682129" width="3.611752986907959" height="3.611752986907959" style="fill:#000000" id="svg_105" class=""/><rect x="40.13535737991333" y="44.24711036682129" width="3.611752986907959" height="3.611752986907959" style="fill:#000000" id="svg_106" class=""/><rect x="43.74711036682129" y="44.24711036682129" width="3.611752986907959" height="3.611752986907959" style="fill:#000000" id="svg_107" class=""/><rect x="47.35886335372925" y="44.24711036682129" width="3.611752986907959" height="3.611752986907959" style="fill:#000000" id="svg_108" class=""/><rect x="50.97061634063721" y="44.24711036682129" width="3.611752986907959" height="3.611752986907959" style="fill:#000000" id="svg_109" class=""/><rect x="58.194122314453125" y="44.24711036682129" width="3.611752986907959" height="3.611752986907959" style="fill:#000000" id="svg_110" class=""/><rect x="65.41762828826904" y="44.24711036682129" width="3.611752986907959" height="3.611752986907959" style="fill:#000000" id="svg_111" class=""/><rect x="76.25288724899292" y="44.24711036682129" width="3.611752986907959" height="3.611752986907959" style="fill:#000000" id="svg_112" class=""/><rect x="83.47639322280884" y="44.24711036682129" width="3.611752986907959" height="3.611752986907959" style="fill:#000000" id="svg_113" class=""/><rect x="90.69989919662476" y="44.24711036682129" width="3.611752986907959" height="3.611752986907959" style="fill:#000000" id="svg_114" class=""/><rect x="97.92340517044067" y="44.24711036682129" width="3.611752986907959" height="3.611752986907959" style="fill:#000000" id="svg_115" class=""/><rect x="22.076592445373535" y="47.85886335372925" width="3.611752986907959" height="3.611752986907959" style="fill:#000000" id="svg_116" class=""/><rect x="25.688345432281494" y="47.85886335372925" width="3.611752986907959" height="3.611752986907959" style="fill:#000000" id="svg_117" class=""/><rect x="29.300098419189453" y="47.85886335372925" width="3.611752986907959" height="3.611752986907959" style="fill:#000000" id="svg_118" class=""/><rect x="32.91185140609741" y="47.85886335372925" width="3.611752986907959" height="3.611752986907959" style="fill:#000000" id="svg_119" class=""/><rect x="43.74711036682129" y="47.85886335372925" width="3.611752986907959" height="3.611752986907959" style="fill:#000000" id="svg_120" class=""/><rect x="47.35886335372925" y="47.85886335372925" width="3.611752986907959" height="3.611752986907959" style="fill:#000000" id="svg_121" class=""/><rect x="61.805875301361084" y="47.85886335372925" width="3.611752986907959" height="3.611752986907959" style="fill:#000000" id="svg_122" class=""/><rect x="65.41762828826904" y="47.85886335372925" width="3.611752986907959" height="3.611752986907959" style="fill:#000000" id="svg_123" class=""/><rect x="83.47639322280884" y="47.85886335372925" width="3.611752986907959" height="3.611752986907959" style="fill:#000000" id="svg_124" class=""/><rect x="97.92340517044067" y="47.85886335372925" width="3.611752986907959" height="3.611752986907959" style="fill:#000000" id="svg_125" class=""/><rect x="14.853086471557617" y="51.47061634063721" width="3.611752986907959" height="3.611752986907959" style="fill:#000000" id="svg_126" class=""/><rect x="32.91185140609741" y="51.47061634063721" width="3.611752986907959" height="3.611752986907959" style="fill:#000000" id="svg_127" class=""/><rect x="36.52360439300537" y="51.47061634063721" width="3.611752986907959" height="3.611752986907959" style="fill:#000000" id="svg_128" class=""/><rect x="40.13535737991333" y="51.47061634063721" width="3.611752986907959" height="3.611752986907959" style="fill:#000000" id="svg_129" class=""/><rect x="43.74711036682129" y="51.47061634063721" width="3.611752986907959" height="3.611752986907959" style="fill:#000000" id="svg_130" class=""/><rect x="47.35886335372925" y="51.47061634063721" width="3.611752986907959" height="3.611752986907959" style="fill:#000000" id="svg_131" class=""/><rect x="54.582369327545166" y="51.47061634063721" width="3.611752986907959" height="3.611752986907959" style="fill:#000000" id="svg_132" class=""/><rect x="58.194122314453125" y="51.47061634063721" width="3.611752986907959" height="3.611752986907959" style="fill:#000000" id="svg_133" class=""/><rect x="61.805875301361084" y="51.47061634063721" width="3.611752986907959" height="3.611752986907959" style="fill:#000000" id="svg_134" class=""/><rect x="69.029381275177" y="51.47061634063721" width="3.611752986907959" height="3.611752986907959" style="fill:#000000" id="svg_135" class=""/><rect x="72.64113426208496" y="51.47061634063721" width="3.611752986907959" height="3.611752986907959" style="fill:#000000" id="svg_136" class=""/><rect x="76.25288724899292" y="51.47061634063721" width="3.611752986907959" height="3.611752986907959" style="fill:#000000" id="svg_137" class=""/><rect x="79.86464023590088" y="51.47061634063721" width="3.611752986907959" height="3.611752986907959" style="fill:#000000" id="svg_138" class=""/><rect x="87.0881462097168" y="51.47061634063721" width="3.611752986907959" height="3.611752986907959" style="fill:#000000" id="svg_139" class=""/><rect x="90.69989919662476" y="51.47061634063721" width="3.611752986907959" height="3.611752986907959" style="fill:#000000" id="svg_140" class=""/><rect x="97.92340517044067" y="51.47061634063721" width="3.611752986907959" height="3.611752986907959" style="fill:#000000" id="svg_141" class=""/><rect x="101.53515815734863" y="51.47061634063721" width="3.611752986907959" height="3.611752986907959" style="fill:#000000" id="svg_142" class=""/><rect x="14.853086471557617" y="55.082369327545166" width="3.611752986907959" height="3.611752986907959" style="fill:#000000" id="svg_143" class=""/><rect x="22.076592445373535" y="55.082369327545166" width="3.611752986907959" height="3.611752986907959" style="fill:#000000" id="svg_144" class=""/><rect x="32.91185140609741" y="55.082369327545166" width="3.611752986907959" height="3.611752986907959" style="fill:#000000" id="svg_145" class=""/><rect x="43.74711036682129" y="55.082369327545166" width="3.611752986907959" height="3.611752986907959" style="fill:#000000" id="svg_146" class=""/><rect x="47.35886335372925" y="55.082369327545166" width="3.611752986907959" height="3.611752986907959" style="fill:#000000" id="svg_147" class=""/><rect x="50.97061634063721" y="55.082369327545166" width="3.611752986907959" height="3.611752986907959" style="fill:#000000" id="svg_148" class=""/><rect x="54.582369327545166" y="55.082369327545166" width="3.611752986907959" height="3.611752986907959" style="fill:#000000" id="svg_149" class=""/><rect x="69.029381275177" y="55.082369327545166" width="3.611752986907959" height="3.611752986907959" style="fill:#000000" id="svg_150" class=""/><rect x="72.64113426208496" y="55.082369327545166" width="3.611752986907959" height="3.611752986907959" style="fill:#000000" id="svg_151" class=""/><rect x="76.25288724899292" y="55.082369327545166" width="3.611752986907959" height="3.611752986907959" style="fill:#000000" id="svg_152" class=""/><rect x="79.86464023590088" y="55.082369327545166" width="3.611752986907959" height="3.611752986907959" style="fill:#000000" id="svg_153" class=""/><rect x="83.47639322280884" y="55.082369327545166" width="3.611752986907959" height="3.611752986907959" style="fill:#000000" id="svg_154" class=""/><rect x="87.0881462097168" y="55.082369327545166" width="3.611752986907959" height="3.611752986907959" style="fill:#000000" id="svg_155" class=""/><rect x="101.53515815734863" y="55.082369327545166" width="3.611752986907959" height="3.611752986907959" style="fill:#000000" id="svg_156" class=""/><rect x="18.464839458465576" y="58.694122314453125" width="3.611752986907959" height="3.611752986907959" style="fill:#000000" id="svg_157" class=""/><rect x="36.52360439300537" y="58.694122314453125" width="3.611752986907959" height="3.611752986907959" style="fill:#000000" id="svg_158" class=""/><rect x="40.13535737991333" y="58.694122314453125" width="3.611752986907959" height="3.611752986907959" style="fill:#000000" id="svg_159" class=""/><rect x="47.35886335372925" y="58.694122314453125" width="3.611752986907959" height="3.611752986907959" style="fill:#000000" id="svg_160" class=""/><rect x="54.582369327545166" y="58.694122314453125" width="3.611752986907959" height="3.611752986907959" style="fill:#000000" id="svg_161" class=""/><rect x="61.805875301361084" y="58.694122314453125" width="3.611752986907959" height="3.611752986907959" style="fill:#000000" id="svg_162" class=""/><rect x="69.029381275177" y="58.694122314453125" width="3.611752986907959" height="3.611752986907959" style="fill:#000000" id="svg_163" class=""/><rect x="76.25288724899292" y="58.694122314453125" width="3.611752986907959" height="3.611752986907959" style="fill:#000000" id="svg_164" class=""/><rect x="79.86464023590088" y="58.694122314453125" width="3.611752986907959" height="3.611752986907959" style="fill:#000000" id="svg_165" class=""/><rect x="87.0881462097168" y="58.694122314453125" width="3.611752986907959" height="3.611752986907959" style="fill:#000000" id="svg_166" class=""/><rect x="94.31165218353271" y="58.694122314453125" width="3.611752986907959" height="3.611752986907959" style="fill:#000000" id="svg_167" class=""/><rect x="97.92340517044067" y="58.694122314453125" width="3.611752986907959" height="3.611752986907959" style="fill:#000000" id="svg_168" class=""/><rect x="101.53515815734863" y="58.694122314453125" width="3.611752986907959" height="3.611752986907959" style="fill:#000000" id="svg_169" class=""/><rect x="14.853086471557617" y="62.305875301361084" width="3.611752986907959" height="3.611752986907959" style="fill:#000000" id="svg_170" class=""/><rect x="18.464839458465576" y="62.305875301361084" width="3.611752986907959" height="3.611752986907959" style="fill:#000000" id="svg_171" class=""/><rect x="25.688345432281494" y="62.305875301361084" width="3.611752986907959" height="3.611752986907959" style="fill:#000000" id="svg_172" class=""/><rect x="29.300098419189453" y="62.305875301361084" width="3.611752986907959" height="3.611752986907959" style="fill:#000000" id="svg_173" class=""/><rect x="32.91185140609741" y="62.305875301361084" width="3.611752986907959" height="3.611752986907959" style="fill:#000000" id="svg_174" class=""/><rect x="40.13535737991333" y="62.305875301361084" width="3.611752986907959" height="3.611752986907959" style="fill:#000000" id="svg_175" class=""/><rect x="43.74711036682129" y="62.305875301361084" width="3.611752986907959" height="3.611752986907959" style="fill:#000000" id="svg_176" class=""/><rect x="47.35886335372925" y="62.305875301361084" width="3.611752986907959" height="3.611752986907959" style="fill:#000000" id="svg_177" class=""/><rect x="50.97061634063721" y="62.305875301361084" width="3.611752986907959" height="3.611752986907959" style="fill:#000000" id="svg_178" class=""/><rect x="58.194122314453125" y="62.305875301361084" width="3.611752986907959" height="3.611752986907959" style="fill:#000000" id="svg_179" class=""/><rect x="65.41762828826904" y="62.305875301361084" width="3.611752986907959" height="3.611752986907959" style="fill:#000000" id="svg_180" class=""/><rect x="72.64113426208496" y="62.305875301361084" width="3.611752986907959" height="3.611752986907959" style="fill:#000000" id="svg_181" class=""/><rect x="90.69989919662476" y="62.305875301361084" width="3.611752986907959" height="3.611752986907959" style="fill:#000000" id="svg_182" class=""/><rect x="97.92340517044067" y="62.305875301361084" width="3.611752986907959" height="3.611752986907959" style="fill:#000000" id="svg_183" class=""/><rect x="14.853086471557617" y="65.91762828826904" width="3.611752986907959" height="3.611752986907959" style="fill:#000000" id="svg_184" class=""/><rect x="25.688345432281494" y="65.91762828826904" width="3.611752986907959" height="3.611752986907959" style="fill:#000000" id="svg_185" class=""/><rect x="32.91185140609741" y="65.91762828826904" width="3.611752986907959" height="3.611752986907959" style="fill:#000000" id="svg_186" class=""/><rect x="36.52360439300537" y="65.91762828826904" width="3.611752986907959" height="3.611752986907959" style="fill:#000000" id="svg_187" class=""/><rect x="43.74711036682129" y="65.91762828826904" width="3.611752986907959" height="3.611752986907959" style="fill:#000000" id="svg_188" class=""/><rect x="47.35886335372925" y="65.91762828826904" width="3.611752986907959" height="3.611752986907959" style="fill:#000000" id="svg_189" class=""/><rect x="65.41762828826904" y="65.91762828826904" width="3.611752986907959" height="3.611752986907959" style="fill:#000000" id="svg_190" class=""/><rect x="69.029381275177" y="65.91762828826904" width="3.611752986907959" height="3.611752986907959" style="fill:#000000" id="svg_191" class=""/><rect x="72.64113426208496" y="65.91762828826904" width="3.611752986907959" height="3.611752986907959" style="fill:#000000" id="svg_192" class=""/><rect x="79.86464023590088" y="65.91762828826904" width="3.611752986907959" height="3.611752986907959" style="fill:#000000" id="svg_193" class=""/><rect x="90.69989919662476" y="65.91762828826904" width="3.611752986907959" height="3.611752986907959" style="fill:#000000" id="svg_194" class=""/><rect x="97.92340517044067" y="65.91762828826904" width="3.611752986907959" height="3.611752986907959" style="fill:#000000" id="svg_195" class=""/><rect x="101.53515815734863" y="65.91762828826904" width="3.611752986907959" height="3.611752986907959" style="fill:#000000" id="svg_196" class=""/><rect x="14.853086471557617" y="69.529381275177" width="3.611752986907959" height="3.611752986907959" style="fill:#000000" id="svg_197" class=""/><rect x="22.076592445373535" y="69.529381275177" width="3.611752986907959" height="3.611752986907959" style="fill:#000000" id="svg_198" class=""/><rect x="25.688345432281494" y="69.529381275177" width="3.611752986907959" height="3.611752986907959" style="fill:#000000" id="svg_199" class=""/><rect x="40.13535737991333" y="69.529381275177" width="3.611752986907959" height="3.611752986907959" style="fill:#000000" id="svg_200" class=""/><rect x="43.74711036682129" y="69.529381275177" width="3.611752986907959" height="3.611752986907959" style="fill:#000000" id="svg_201" class=""/><rect x="47.35886335372925" y="69.529381275177" width="3.611752986907959" height="3.611752986907959" style="fill:#000000" id="svg_202" class=""/><rect x="58.194122314453125" y="69.529381275177" width="3.611752986907959" height="3.611752986907959" style="fill:#000000" id="svg_203" class=""/><rect x="65.41762828826904" y="69.529381275177" width="3.611752986907959" height="3.611752986907959" style="fill:#000000" id="svg_204" class=""/><rect x="69.029381275177" y="69.529381275177" width="3.611752986907959" height="3.611752986907959" style="fill:#000000" id="svg_205" class=""/><rect x="72.64113426208496" y="69.529381275177" width="3.611752986907959" height="3.611752986907959" style="fill:#000000" id="svg_206" class=""/><rect x="76.25288724899292" y="69.529381275177" width="3.611752986907959" height="3.611752986907959" style="fill:#000000" id="svg_207" class=""/><rect x="79.86464023590088" y="69.529381275177" width="3.611752986907959" height="3.611752986907959" style="fill:#000000" id="svg_208" class=""/><rect x="83.47639322280884" y="69.529381275177" width="3.611752986907959" height="3.611752986907959" style="fill:#000000" id="svg_209" class=""/><rect x="87.0881462097168" y="69.529381275177" width="3.611752986907959" height="3.611752986907959" style="fill:#000000" id="svg_210" class=""/><rect x="90.69989919662476" y="69.529381275177" width="3.611752986907959" height="3.611752986907959" style="fill:#000000" id="svg_211" class=""/><rect x="101.53515815734863" y="69.529381275177" width="3.611752986907959" height="3.611752986907959" style="fill:#000000" id="svg_212" class=""/><rect x="14.853086471557617" y="73.14113426208496" width="3.611752986907959" height="3.611752986907959" style="fill:#000000" id="svg_213" class=""/><rect x="29.300098419189453" y="73.14113426208496" width="3.611752986907959" height="3.611752986907959" style="fill:#000000" id="svg_214" class=""/><rect x="32.91185140609741" y="73.14113426208496" width="3.611752986907959" height="3.611752986907959" style="fill:#000000" id="svg_215" class=""/><rect x="36.52360439300537" y="73.14113426208496" width="3.611752986907959" height="3.611752986907959" style="fill:#000000" id="svg_216" class=""/><rect x="43.74711036682129" y="73.14113426208496" width="3.611752986907959" height="3.611752986907959" style="fill:#000000" id="svg_217" class=""/><rect x="58.194122314453125" y="73.14113426208496" width="3.611752986907959" height="3.611752986907959" style="fill:#000000" id="svg_218" class=""/><rect x="61.805875301361084" y="73.14113426208496" width="3.611752986907959" height="3.611752986907959" style="fill:#000000" id="svg_219" class=""/><rect x="65.41762828826904" y="73.14113426208496" width="3.611752986907959" height="3.611752986907959" style="fill:#000000" id="svg_220" class=""/><rect x="72.64113426208496" y="73.14113426208496" width="3.611752986907959" height="3.611752986907959" style="fill:#000000" id="svg_221" class=""/><rect x="76.25288724899292" y="73.14113426208496" width="3.611752986907959" height="3.611752986907959" style="fill:#000000" id="svg_222" class=""/><rect x="79.86464023590088" y="73.14113426208496" width="3.611752986907959" height="3.611752986907959" style="fill:#000000" id="svg_223" class=""/><rect x="83.47639322280884" y="73.14113426208496" width="3.611752986907959" height="3.611752986907959" style="fill:#000000" id="svg_224" class=""/><rect x="87.0881462097168" y="73.14113426208496" width="3.611752986907959" height="3.611752986907959" style="fill:#000000" id="svg_225" class=""/><rect x="94.31165218353271" y="73.14113426208496" width="3.611752986907959" height="3.611752986907959" style="fill:#000000" id="svg_226" class=""/><rect x="43.74711036682129" y="76.75288724899292" width="3.611752986907959" height="3.611752986907959" style="fill:#000000" id="svg_227" class=""/><rect x="50.97061634063721" y="76.75288724899292" width="3.611752986907959" height="3.611752986907959" style="fill:#000000" id="svg_228" class=""/><rect x="61.805875301361084" y="76.75288724899292" width="3.611752986907959" height="3.611752986907959" style="fill:#000000" id="svg_229" class=""/><rect x="69.029381275177" y="76.75288724899292" width="3.611752986907959" height="3.611752986907959" style="fill:#000000" id="svg_230" class=""/><rect x="72.64113426208496" y="76.75288724899292" width="3.611752986907959" height="3.611752986907959" style="fill:#000000" id="svg_231" class=""/><rect x="87.0881462097168" y="76.75288724899292" width="3.611752986907959" height="3.611752986907959" style="fill:#000000" id="svg_232" class=""/><rect x="90.69989919662476" y="76.75288724899292" width="3.611752986907959" height="3.611752986907959" style="fill:#000000" id="svg_233" class=""/><rect x="94.31165218353271" y="76.75288724899292" width="3.611752986907959" height="3.611752986907959" style="fill:#000000" id="svg_234" class=""/><rect x="14.853086471557617" y="80.36464023590088" width="3.611752986907959" height="3.611752986907959" style="fill:#000000" id="svg_235" class=""/><rect x="18.464839458465576" y="80.36464023590088" width="3.611752986907959" height="3.611752986907959" style="fill:#000000" id="svg_236" class=""/><rect x="22.076592445373535" y="80.36464023590088" width="3.611752986907959" height="3.611752986907959" style="fill:#000000" id="svg_237" class=""/><rect x="25.688345432281494" y="80.36464023590088" width="3.611752986907959" height="3.611752986907959" style="fill:#000000" id="svg_238" class=""/><rect x="29.300098419189453" y="80.36464023590088" width="3.611752986907959" height="3.611752986907959" style="fill:#000000" id="svg_239" class=""/><rect x="32.91185140609741" y="80.36464023590088" width="3.611752986907959" height="3.611752986907959" style="fill:#000000" id="svg_240" class=""/><rect x="36.52360439300537" y="80.36464023590088" width="3.611752986907959" height="3.611752986907959" style="fill:#000000" id="svg_241" class=""/><rect x="43.74711036682129" y="80.36464023590088" width="3.611752986907959" height="3.611752986907959" style="fill:#000000" id="svg_242" class=""/><rect x="47.35886335372925" y="80.36464023590088" width="3.611752986907959" height="3.611752986907959" style="fill:#000000" id="svg_243" class=""/><rect x="50.97061634063721" y="80.36464023590088" width="3.611752986907959" height="3.611752986907959" style="fill:#000000" id="svg_244" class=""/><rect x="54.582369327545166" y="80.36464023590088" width="3.611752986907959" height="3.611752986907959" style="fill:#000000" id="svg_245" class=""/><rect x="58.194122314453125" y="80.36464023590088" width="3.611752986907959" height="3.611752986907959" style="fill:#000000" id="svg_246" class=""/><rect x="65.41762828826904" y="80.36464023590088" width="3.611752986907959" height="3.611752986907959" style="fill:#000000" id="svg_247" class=""/><rect x="72.64113426208496" y="80.36464023590088" width="3.611752986907959" height="3.611752986907959" style="fill:#000000" id="svg_248" class=""/><rect x="79.86464023590088" y="80.36464023590088" width="3.611752986907959" height="3.611752986907959" style="fill:#000000" id="svg_249" class=""/><rect x="87.0881462097168" y="80.36464023590088" width="3.611752986907959" height="3.611752986907959" style="fill:#000000" id="svg_250" class=""/><rect x="90.69989919662476" y="80.36464023590088" width="3.611752986907959" height="3.611752986907959" style="fill:#000000" id="svg_251" class=""/><rect x="94.31165218353271" y="80.36464023590088" width="3.611752986907959" height="3.611752986907959" style="fill:#000000" id="svg_252" class=""/><rect x="97.92340517044067" y="80.36464023590088" width="3.611752986907959" height="3.611752986907959" style="fill:#000000" id="svg_253" class=""/><rect x="101.53515815734863" y="80.36464023590088" width="3.611752986907959" height="3.611752986907959" style="fill:#000000" id="svg_254" class=""/><rect x="14.853086471557617" y="83.97639322280884" width="3.611752986907959" height="3.611752986907959" style="fill:#000000" id="svg_255" class=""/><rect x="36.52360439300537" y="83.97639322280884" width="3.611752986907959" height="3.611752986907959" style="fill:#000000" id="svg_256" class=""/><rect x="50.97061634063721" y="83.97639322280884" width="3.611752986907959" height="3.611752986907959" style="fill:#000000" id="svg_257" class=""/><rect x="54.582369327545166" y="83.97639322280884" width="3.611752986907959" height="3.611752986907959" style="fill:#000000" id="svg_258" class=""/><rect x="72.64113426208496" y="83.97639322280884" width="3.611752986907959" height="3.611752986907959" style="fill:#000000" id="svg_259" class=""/><rect x="87.0881462097168" y="83.97639322280884" width="3.611752986907959" height="3.611752986907959" style="fill:#000000" id="svg_260" class=""/><rect x="90.69989919662476" y="83.97639322280884" width="3.611752986907959" height="3.611752986907959" style="fill:#000000" id="svg_261" class=""/><rect x="14.853086471557617" y="87.5881462097168" width="3.611752986907959" height="3.611752986907959" style="fill:#000000" id="svg_262" class=""/><rect x="22.076592445373535" y="87.5881462097168" width="3.611752986907959" height="3.611752986907959" style="fill:#000000" id="svg_263" class=""/><rect x="25.688345432281494" y="87.5881462097168" width="3.611752986907959" height="3.611752986907959" style="fill:#000000" id="svg_264" class=""/><rect x="29.300098419189453" y="87.5881462097168" width="3.611752986907959" height="3.611752986907959" style="fill:#000000" id="svg_265" class=""/><rect x="36.52360439300537" y="87.5881462097168" width="3.611752986907959" height="3.611752986907959" style="fill:#000000" id="svg_266" class=""/><rect x="43.74711036682129" y="87.5881462097168" width="3.611752986907959" height="3.611752986907959" style="fill:#000000" id="svg_267" class=""/><rect x="50.97061634063721" y="87.5881462097168" width="3.611752986907959" height="3.611752986907959" style="fill:#000000" id="svg_268" class=""/><rect x="54.582369327545166" y="87.5881462097168" width="3.611752986907959" height="3.611752986907959" style="fill:#000000" id="svg_269" class=""/><rect x="69.029381275177" y="87.5881462097168" width="3.611752986907959" height="3.611752986907959" style="fill:#000000" id="svg_270" class=""/><rect x="72.64113426208496" y="87.5881462097168" width="3.611752986907959" height="3.611752986907959" style="fill:#000000" id="svg_271" class=""/><rect x="76.25288724899292" y="87.5881462097168" width="3.611752986907959" height="3.611752986907959" style="fill:#000000" id="svg_272" class=""/><rect x="79.86464023590088" y="87.5881462097168" width="3.611752986907959" height="3.611752986907959" style="fill:#000000" id="svg_273" class=""/><rect x="83.47639322280884" y="87.5881462097168" width="3.611752986907959" height="3.611752986907959" style="fill:#000000" id="svg_274" class=""/><rect x="87.0881462097168" y="87.5881462097168" width="3.611752986907959" height="3.611752986907959" style="fill:#000000" id="svg_275" class=""/><rect x="90.69989919662476" y="87.5881462097168" width="3.611752986907959" height="3.611752986907959" style="fill:#000000" id="svg_276" class=""/><rect x="94.31165218353271" y="87.5881462097168" width="3.611752986907959" height="3.611752986907959" style="fill:#000000" id="svg_277" class=""/><rect x="97.92340517044067" y="87.5881462097168" width="3.611752986907959" height="3.611752986907959" style="fill:#000000" id="svg_278" class=""/><rect x="101.53515815734863" y="87.5881462097168" width="3.611752986907959" height="3.611752986907959" style="fill:#000000" id="svg_279" class=""/><rect x="14.853086471557617" y="91.19989919662476" width="3.611752986907959" height="3.611752986907959" style="fill:#000000" id="svg_280" class=""/><rect x="22.076592445373535" y="91.19989919662476" width="3.611752986907959" height="3.611752986907959" style="fill:#000000" id="svg_281" class=""/><rect x="25.688345432281494" y="91.19989919662476" width="3.611752986907959" height="3.611752986907959" style="fill:#000000" id="svg_282" class=""/><rect x="29.300098419189453" y="91.19989919662476" width="3.611752986907959" height="3.611752986907959" style="fill:#000000" id="svg_283" class=""/><rect x="36.52360439300537" y="91.19989919662476" width="3.611752986907959" height="3.611752986907959" style="fill:#000000" id="svg_284" class=""/><rect x="43.74711036682129" y="91.19989919662476" width="3.611752986907959" height="3.611752986907959" style="fill:#000000" id="svg_285" class=""/><rect x="58.194122314453125" y="91.19989919662476" width="3.611752986907959" height="3.611752986907959" style="fill:#000000" id="svg_286" class=""/><rect x="61.805875301361084" y="91.19989919662476" width="3.611752986907959" height="3.611752986907959" style="fill:#000000" id="svg_287" class=""/><rect x="69.029381275177" y="91.19989919662476" width="3.611752986907959" height="3.611752986907959" style="fill:#000000" id="svg_288" class=""/><rect x="72.64113426208496" y="91.19989919662476" width="3.611752986907959" height="3.611752986907959" style="fill:#000000" id="svg_289" class=""/><rect x="76.25288724899292" y="91.19989919662476" width="3.611752986907959" height="3.611752986907959" style="fill:#000000" id="svg_290" class=""/><rect x="79.86464023590088" y="91.19989919662476" width="3.611752986907959" height="3.611752986907959" style="fill:#000000" id="svg_291" class=""/><rect x="87.0881462097168" y="91.19989919662476" width="3.611752986907959" height="3.611752986907959" style="fill:#000000" id="svg_292" class=""/><rect x="94.31165218353271" y="91.19989919662476" width="3.611752986907959" height="3.611752986907959" style="fill:#000000" id="svg_293" class=""/><rect x="97.92340517044067" y="91.19989919662476" width="3.611752986907959" height="3.611752986907959" style="fill:#000000" id="svg_294" class=""/><rect x="101.53515815734863" y="91.19989919662476" width="3.611752986907959" height="3.611752986907959" style="fill:#000000" id="svg_295" class=""/><rect x="14.853086471557617" y="94.81165218353271" width="3.611752986907959" height="3.611752986907959" style="fill:#000000" id="svg_296" class=""/><rect x="22.076592445373535" y="94.81165218353271" width="3.611752986907959" height="3.611752986907959" style="fill:#000000" id="svg_297" class=""/><rect x="25.688345432281494" y="94.81165218353271" width="3.611752986907959" height="3.611752986907959" style="fill:#000000" id="svg_298" class=""/><rect x="29.300098419189453" y="94.81165218353271" width="3.611752986907959" height="3.611752986907959" style="fill:#000000" id="svg_299" class=""/><rect x="36.52360439300537" y="94.81165218353271" width="3.611752986907959" height="3.611752986907959" style="fill:#000000" id="svg_300" class=""/><rect x="43.74711036682129" y="94.81165218353271" width="3.611752986907959" height="3.611752986907959" style="fill:#000000" id="svg_301" class=""/><rect x="50.97061634063721" y="94.81165218353271" width="3.611752986907959" height="3.611752986907959" style="fill:#000000" id="svg_302" class=""/><rect x="61.805875301361084" y="94.81165218353271" width="3.611752986907959" height="3.611752986907959" style="fill:#000000" id="svg_303" class=""/><rect x="65.41762828826904" y="94.81165218353271" width="3.611752986907959" height="3.611752986907959" style="fill:#000000" id="svg_304" class=""/><rect x="72.64113426208496" y="94.81165218353271" width="3.611752986907959" height="3.611752986907959" style="fill:#000000" id="svg_305" class=""/><rect x="83.47639322280884" y="94.81165218353271" width="3.611752986907959" height="3.611752986907959" style="fill:#000000" id="svg_306" class=""/><rect x="94.31165218353271" y="94.81165218353271" width="3.611752986907959" height="3.611752986907959" style="fill:#000000" id="svg_307" class=""/><rect x="101.53515815734863" y="94.81165218353271" width="3.611752986907959" height="3.611752986907959" style="fill:#000000" id="svg_308" class=""/><rect x="14.853086471557617" y="98.42340517044067" width="3.611752986907959" height="3.611752986907959" style="fill:#000000" id="svg_309" class=""/><rect x="36.52360439300537" y="98.42340517044067" width="3.611752986907959" height="3.611752986907959" style="fill:#000000" id="svg_310" class=""/><rect x="43.74711036682129" y="98.42340517044067" width="3.611752986907959" height="3.611752986907959" style="fill:#000000" id="svg_311" class=""/><rect x="58.194122314453125" y="98.42340517044067" width="3.611752986907959" height="3.611752986907959" style="fill:#000000" id="svg_312" class=""/><rect x="61.805875301361084" y="98.42340517044067" width="3.611752986907959" height="3.611752986907959" style="fill:#000000" id="svg_313" class=""/><rect x="69.029381275177" y="98.42340517044067" width="3.611752986907959" height="3.611752986907959" style="fill:#000000" id="svg_314" class=""/><rect x="72.64113426208496" y="98.42340517044067" width="3.611752986907959" height="3.611752986907959" style="fill:#000000" id="svg_315" class=""/><rect x="76.25288724899292" y="98.42340517044067" width="3.611752986907959" height="3.611752986907959" style="fill:#000000" id="svg_316" class=""/><rect x="79.86464023590088" y="98.42340517044067" width="3.611752986907959" height="3.611752986907959" style="fill:#000000" id="svg_317" class=""/><rect x="83.47639322280884" y="98.42340517044067" width="3.611752986907959" height="3.611752986907959" style="fill:#000000" id="svg_318" class=""/><rect x="87.0881462097168" y="98.42340517044067" width="3.611752986907959" height="3.611752986907959" style="fill:#000000" id="svg_319" class=""/><rect x="90.69989919662476" y="98.42340517044067" width="3.611752986907959" height="3.611752986907959" style="fill:#000000" id="svg_320" class=""/><rect x="101.53515815734863" y="98.42340517044067" width="3.611752986907959" height="3.611752986907959" style="fill:#000000" id="svg_321" class=""/><rect x="14.853086471557617" y="102.03515815734863" width="3.611752986907959" height="3.611752986907959" style="fill:#000000" id="svg_322" class=""/><rect x="18.464839458465576" y="102.03515815734863" width="3.611752986907959" height="3.611752986907959" style="fill:#000000" id="svg_323" class=""/><rect x="22.076592445373535" y="102.03515815734863" width="3.611752986907959" height="3.611752986907959" style="fill:#000000" id="svg_324" class=""/><rect x="25.688345432281494" y="102.03515815734863" width="3.611752986907959" height="3.611752986907959" style="fill:#000000" id="svg_325" class=""/><rect x="29.300098419189453" y="102.03515815734863" width="3.611752986907959" height="3.611752986907959" style="fill:#000000" id="svg_326" class=""/><rect x="32.91185140609741" y="102.03515815734863" width="3.611752986907959" height="3.611752986907959" style="fill:#000000" id="svg_327" class=""/><rect x="36.52360439300537" y="102.03515815734863" width="3.611752986907959" height="3.611752986907959" style="fill:#000000" id="svg_328" class=""/><rect x="43.74711036682129" y="102.03515815734863" width="3.611752986907959" height="3.611752986907959" style="fill:#000000" id="svg_329" class=""/><rect x="58.194122314453125" y="102.03515815734863" width="3.611752986907959" height="3.611752986907959" style="fill:#000000" id="svg_330" class=""/><rect x="65.41762828826904" y="102.03515815734863" width="3.611752986907959" height="3.611752986907959" style="fill:#000000" id="svg_331" class=""/><rect x="69.029381275177" y="102.03515815734863" width="3.611752986907959" height="3.611752986907959" style="fill:#000000" id="svg_332" class=""/><rect x="79.86464023590088" y="102.03515815734863" width="3.611752986907959" height="3.611752986907959" style="fill:#000000" id="svg_333" class=""/><rect x="83.47639322280884" y="102.03515815734863" width="3.611752986907959" height="3.611752986907959" style="fill:#000000" id="svg_334" class=""/><rect x="87.0881462097168" y="102.03515815734863" width="3.611752986907959" height="3.611752986907959" style="fill:#000000" id="svg_335" class=""/><rect x="90.69989919662476" y="102.03515815734863" width="3.611752986907959" height="3.611752986907959" style="fill:#000000" id="svg_336" class=""/><rect x="94.31165218353271" y="102.03515815734863" width="3.611752986907959" height="3.611752986907959" style="fill:#000000" id="svg_337" class=""/><rect x="97.92340517044067" y="102.03515815734863" width="3.611752986907959" height="3.611752986907959" style="fill:#000000" id="svg_338" class=""/><rect x="101.53515815734863" y="102.03515815734863" width="3.611752986907959" height="3.611752986907959" style="fill:#000000" id="svg_339" class=""/></g></g></svg>