<svg xmlns="http://www.w3.org/2000/svg" version="1.1" width="120" height="120"><rect id="backgroundrect" width="100%" height="100%" x="0" y="0" fill="none" stroke="none" class="" style=""/>
 
 
 
 
 
 
 
 
 
 
 
 
 
 
 
 
 
 
 
 
 
 
 
 
 
 
 
 
 
 
 
 
 
 
 
 
 
 
 
 
 
 
 
 
 
 
 
 
 
 
 
 
 
 
 
 
 
 
 
 
 
 
 
 
 
 
 
 
 
 
 
 
 
 
 
 
 
 
 
 
 
 
 
 
 
 
 
 
 
 
 
 
 
 
 
 
 
 
 
 
 
 
 
 
 
 
 
 
 
 
 
 
 
 
 
 
 
 
 
 
 
 
 
 
 
 
 
 
 
 
 
 
 
 
 
 
 
 
 
 
 
 
 
 
 
 
 
 
 
 
 
 
 
 
 
 
 
 
 
 
 
 
 
 
 
 
 
 
 
 
 
 
 
 
 
 
 
 
 
 
 
 
 
 
 
 
 
 
 
 
 
 
 
 
 
 
 
 
 
 
 
 
 
 
 
 
 
 
 
 
 
 
 
 
 
 
 
 
 
 
 
 
 
 
 
 
 
 
 
 
 
 
 
 
 
 
 
 
 
 
 
 
 
 
 
 
 
 
 
 
 
 
 
 
 
 
 
 
 
 
 
 
 
 
 
 
 
 
 
 
 
 
 
 
 
 
 
 
 
 
 
 
 
 
 
 
 
 
 
 
 
 
 
 
 
 
 
 
 
 
 
 
 
 
 
 
 
 
 
 
 
 
 
 
 
 
 
 
 
 
 
 
 
 
 
 
 
 
 
 
 
 
 
 
 
 
 
 
 
 
 
 
 
<g class="currentLayer" style=""><title>Layer 1</title><g class=""><rect x="0.12983322143554688" y="0.12983322143554688" width="119.74033427238464" height="119.74033427238464" style="fill:#ffffff" id="svg_1" class=""/><rect x="14.643813133239746" y="14.643813133239746" width="3.62849497795105" height="3.62849497795105" style="fill:#000000" id="svg_2" class=""/><rect x="18.272308111190796" y="14.643813133239746" width="3.62849497795105" height="3.62849497795105" style="fill:#000000" id="svg_3" class=""/><rect x="21.900803089141846" y="14.643813133239746" width="3.62849497795105" height="3.62849497795105" style="fill:#000000" id="svg_4" class=""/><rect x="25.529298067092896" y="14.643813133239746" width="3.62849497795105" height="3.62849497795105" style="fill:#000000" id="svg_5" class=""/><rect x="29.157793045043945" y="14.643813133239746" width="3.62849497795105" height="3.62849497795105" style="fill:#000000" id="svg_6" class=""/><rect x="32.786288022994995" y="14.643813133239746" width="3.62849497795105" height="3.62849497795105" style="fill:#000000" id="svg_7" class=""/><rect x="36.414783000946045" y="14.643813133239746" width="3.62849497795105" height="3.62849497795105" style="fill:#000000" id="svg_8" class=""/><rect x="47.300267934799194" y="14.643813133239746" width="3.62849497795105" height="3.62849497795105" style="fill:#000000" id="svg_9" class=""/><rect x="72.69973278045654" y="14.643813133239746" width="3.62849497795105" height="3.62849497795105" style="fill:#000000" id="svg_10" class=""/><rect x="79.95672273635864" y="14.643813133239746" width="3.62849497795105" height="3.62849497795105" style="fill:#000000" id="svg_11" class=""/><rect x="83.58521771430969" y="14.643813133239746" width="3.62849497795105" height="3.62849497795105" style="fill:#000000" id="svg_12" class=""/><rect x="87.21371269226074" y="14.643813133239746" width="3.62849497795105" height="3.62849497795105" style="fill:#000000" id="svg_13" class=""/><rect x="90.84220767021179" y="14.643813133239746" width="3.62849497795105" height="3.62849497795105" style="fill:#000000" id="svg_14" class=""/><rect x="94.47070264816284" y="14.643813133239746" width="3.62849497795105" height="3.62849497795105" style="fill:#000000" id="svg_15" class=""/><rect x="98.09919762611389" y="14.643813133239746" width="3.62849497795105" height="3.62849497795105" style="fill:#000000" id="svg_16" class=""/><rect x="101.72769260406494" y="14.643813133239746" width="3.62849497795105" height="3.62849497795105" style="fill:#000000" id="svg_17" class=""/><rect x="14.643813133239746" y="18.272308111190796" width="3.62849497795105" height="3.62849497795105" style="fill:#000000" id="svg_18" class=""/><rect x="36.414783000946045" y="18.272308111190796" width="3.62849497795105" height="3.62849497795105" style="fill:#000000" id="svg_19" class=""/><rect x="43.671772956848145" y="18.272308111190796" width="3.62849497795105" height="3.62849497795105" style="fill:#000000" id="svg_20" class=""/><rect x="47.300267934799194" y="18.272308111190796" width="3.62849497795105" height="3.62849497795105" style="fill:#000000" id="svg_21" class=""/><rect x="54.557257890701294" y="18.272308111190796" width="3.62849497795105" height="3.62849497795105" style="fill:#000000" id="svg_22" class=""/><rect x="58.185752868652344" y="18.272308111190796" width="3.62849497795105" height="3.62849497795105" style="fill:#000000" id="svg_23" class=""/><rect x="61.814247846603394" y="18.272308111190796" width="3.62849497795105" height="3.62849497795105" style="fill:#000000" id="svg_24" class=""/><rect x="69.0712378025055" y="18.272308111190796" width="3.62849497795105" height="3.62849497795105" style="fill:#000000" id="svg_25" class=""/><rect x="79.95672273635864" y="18.272308111190796" width="3.62849497795105" height="3.62849497795105" style="fill:#000000" id="svg_26" class=""/><rect x="101.72769260406494" y="18.272308111190796" width="3.62849497795105" height="3.62849497795105" style="fill:#000000" id="svg_27" class=""/><rect x="14.643813133239746" y="21.900803089141846" width="3.62849497795105" height="3.62849497795105" style="fill:#000000" id="svg_28" class=""/><rect x="21.900803089141846" y="21.900803089141846" width="3.62849497795105" height="3.62849497795105" style="fill:#000000" id="svg_29" class=""/><rect x="25.529298067092896" y="21.900803089141846" width="3.62849497795105" height="3.62849497795105" style="fill:#000000" id="svg_30" class=""/><rect x="29.157793045043945" y="21.900803089141846" width="3.62849497795105" height="3.62849497795105" style="fill:#000000" id="svg_31" class=""/><rect x="36.414783000946045" y="21.900803089141846" width="3.62849497795105" height="3.62849497795105" style="fill:#000000" id="svg_32" class=""/><rect x="47.300267934799194" y="21.900803089141846" width="3.62849497795105" height="3.62849497795105" style="fill:#000000" id="svg_33" class=""/><rect x="50.928762912750244" y="21.900803089141846" width="3.62849497795105" height="3.62849497795105" style="fill:#000000" id="svg_34" class=""/><rect x="54.557257890701294" y="21.900803089141846" width="3.62849497795105" height="3.62849497795105" style="fill:#000000" id="svg_35" class=""/><rect x="79.95672273635864" y="21.900803089141846" width="3.62849497795105" height="3.62849497795105" style="fill:#000000" id="svg_36" class=""/><rect x="87.21371269226074" y="21.900803089141846" width="3.62849497795105" height="3.62849497795105" style="fill:#000000" id="svg_37" class=""/><rect x="90.84220767021179" y="21.900803089141846" width="3.62849497795105" height="3.62849497795105" style="fill:#000000" id="svg_38" class=""/><rect x="94.47070264816284" y="21.900803089141846" width="3.62849497795105" height="3.62849497795105" style="fill:#000000" id="svg_39" class=""/><rect x="101.72769260406494" y="21.900803089141846" width="3.62849497795105" height="3.62849497795105" style="fill:#000000" id="svg_40" class=""/><rect x="14.643813133239746" y="25.529298067092896" width="3.62849497795105" height="3.62849497795105" style="fill:#000000" id="svg_41" class=""/><rect x="21.900803089141846" y="25.529298067092896" width="3.62849497795105" height="3.62849497795105" style="fill:#000000" id="svg_42" class=""/><rect x="25.529298067092896" y="25.529298067092896" width="3.62849497795105" height="3.62849497795105" style="fill:#000000" id="svg_43" class=""/><rect x="29.157793045043945" y="25.529298067092896" width="3.62849497795105" height="3.62849497795105" style="fill:#000000" id="svg_44" class=""/><rect x="36.414783000946045" y="25.529298067092896" width="3.62849497795105" height="3.62849497795105" style="fill:#000000" id="svg_45" class=""/><rect x="43.671772956848145" y="25.529298067092896" width="3.62849497795105" height="3.62849497795105" style="fill:#000000" id="svg_46" class=""/><rect x="47.300267934799194" y="25.529298067092896" width="3.62849497795105" height="3.62849497795105" style="fill:#000000" id="svg_47" class=""/><rect x="54.557257890701294" y="25.529298067092896" width="3.62849497795105" height="3.62849497795105" style="fill:#000000" id="svg_48" class=""/><rect x="61.814247846603394" y="25.529298067092896" width="3.62849497795105" height="3.62849497795105" style="fill:#000000" id="svg_49" class=""/><rect x="69.0712378025055" y="25.529298067092896" width="3.62849497795105" height="3.62849497795105" style="fill:#000000" id="svg_50" class=""/><rect x="79.95672273635864" y="25.529298067092896" width="3.62849497795105" height="3.62849497795105" style="fill:#000000" id="svg_51" class=""/><rect x="87.21371269226074" y="25.529298067092896" width="3.62849497795105" height="3.62849497795105" style="fill:#000000" id="svg_52" class=""/><rect x="90.84220767021179" y="25.529298067092896" width="3.62849497795105" height="3.62849497795105" style="fill:#000000" id="svg_53" class=""/><rect x="94.47070264816284" y="25.529298067092896" width="3.62849497795105" height="3.62849497795105" style="fill:#000000" id="svg_54" class=""/><rect x="101.72769260406494" y="25.529298067092896" width="3.62849497795105" height="3.62849497795105" style="fill:#000000" id="svg_55" class=""/><rect x="14.643813133239746" y="29.157793045043945" width="3.62849497795105" height="3.62849497795105" style="fill:#000000" id="svg_56" class=""/><rect x="21.900803089141846" y="29.157793045043945" width="3.62849497795105" height="3.62849497795105" style="fill:#000000" id="svg_57" class=""/><rect x="25.529298067092896" y="29.157793045043945" width="3.62849497795105" height="3.62849497795105" style="fill:#000000" id="svg_58" class=""/><rect x="29.157793045043945" y="29.157793045043945" width="3.62849497795105" height="3.62849497795105" style="fill:#000000" id="svg_59" class=""/><rect x="36.414783000946045" y="29.157793045043945" width="3.62849497795105" height="3.62849497795105" style="fill:#000000" id="svg_60" class=""/><rect x="50.928762912750244" y="29.157793045043945" width="3.62849497795105" height="3.62849497795105" style="fill:#000000" id="svg_61" class=""/><rect x="58.185752868652344" y="29.157793045043945" width="3.62849497795105" height="3.62849497795105" style="fill:#000000" id="svg_62" class=""/><rect x="65.44274282455444" y="29.157793045043945" width="3.62849497795105" height="3.62849497795105" style="fill:#000000" id="svg_63" class=""/><rect x="72.69973278045654" y="29.157793045043945" width="3.62849497795105" height="3.62849497795105" style="fill:#000000" id="svg_64" class=""/><rect x="79.95672273635864" y="29.157793045043945" width="3.62849497795105" height="3.62849497795105" style="fill:#000000" id="svg_65" class=""/><rect x="87.21371269226074" y="29.157793045043945" width="3.62849497795105" height="3.62849497795105" style="fill:#000000" id="svg_66" class=""/><rect x="90.84220767021179" y="29.157793045043945" width="3.62849497795105" height="3.62849497795105" style="fill:#000000" id="svg_67" class=""/><rect x="94.47070264816284" y="29.157793045043945" width="3.62849497795105" height="3.62849497795105" style="fill:#000000" id="svg_68" class=""/><rect x="101.72769260406494" y="29.157793045043945" width="3.62849497795105" height="3.62849497795105" style="fill:#000000" id="svg_69" class=""/><rect x="14.643813133239746" y="32.786288022994995" width="3.62849497795105" height="3.62849497795105" style="fill:#000000" id="svg_70" class=""/><rect x="36.414783000946045" y="32.786288022994995" width="3.62849497795105" height="3.62849497795105" style="fill:#000000" id="svg_71" class=""/><rect x="43.671772956848145" y="32.786288022994995" width="3.62849497795105" height="3.62849497795105" style="fill:#000000" id="svg_72" class=""/><rect x="50.928762912750244" y="32.786288022994995" width="3.62849497795105" height="3.62849497795105" style="fill:#000000" id="svg_73" class=""/><rect x="61.814247846603394" y="32.786288022994995" width="3.62849497795105" height="3.62849497795105" style="fill:#000000" id="svg_74" class=""/><rect x="69.0712378025055" y="32.786288022994995" width="3.62849497795105" height="3.62849497795105" style="fill:#000000" id="svg_75" class=""/><rect x="72.69973278045654" y="32.786288022994995" width="3.62849497795105" height="3.62849497795105" style="fill:#000000" id="svg_76" class=""/><rect x="79.95672273635864" y="32.786288022994995" width="3.62849497795105" height="3.62849497795105" style="fill:#000000" id="svg_77" class=""/><rect x="101.72769260406494" y="32.786288022994995" width="3.62849497795105" height="3.62849497795105" style="fill:#000000" id="svg_78" class=""/><rect x="14.643813133239746" y="36.414783000946045" width="3.62849497795105" height="3.62849497795105" style="fill:#000000" id="svg_79" class=""/><rect x="18.272308111190796" y="36.414783000946045" width="3.62849497795105" height="3.62849497795105" style="fill:#000000" id="svg_80" class=""/><rect x="21.900803089141846" y="36.414783000946045" width="3.62849497795105" height="3.62849497795105" style="fill:#000000" id="svg_81" class=""/><rect x="25.529298067092896" y="36.414783000946045" width="3.62849497795105" height="3.62849497795105" style="fill:#000000" id="svg_82" class=""/><rect x="29.157793045043945" y="36.414783000946045" width="3.62849497795105" height="3.62849497795105" style="fill:#000000" id="svg_83" class=""/><rect x="32.786288022994995" y="36.414783000946045" width="3.62849497795105" height="3.62849497795105" style="fill:#000000" id="svg_84" class=""/><rect x="36.414783000946045" y="36.414783000946045" width="3.62849497795105" height="3.62849497795105" style="fill:#000000" id="svg_85" class=""/><rect x="43.671772956848145" y="36.414783000946045" width="3.62849497795105" height="3.62849497795105" style="fill:#000000" id="svg_86" class=""/><rect x="50.928762912750244" y="36.414783000946045" width="3.62849497795105" height="3.62849497795105" style="fill:#000000" id="svg_87" class=""/><rect x="58.185752868652344" y="36.414783000946045" width="3.62849497795105" height="3.62849497795105" style="fill:#000000" id="svg_88" class=""/><rect x="65.44274282455444" y="36.414783000946045" width="3.62849497795105" height="3.62849497795105" style="fill:#000000" id="svg_89" class=""/><rect x="72.69973278045654" y="36.414783000946045" width="3.62849497795105" height="3.62849497795105" style="fill:#000000" id="svg_90" class=""/><rect x="79.95672273635864" y="36.414783000946045" width="3.62849497795105" height="3.62849497795105" style="fill:#000000" id="svg_91" class=""/><rect x="83.58521771430969" y="36.414783000946045" width="3.62849497795105" height="3.62849497795105" style="fill:#000000" id="svg_92" class=""/><rect x="87.21371269226074" y="36.414783000946045" width="3.62849497795105" height="3.62849497795105" style="fill:#000000" id="svg_93" class=""/><rect x="90.84220767021179" y="36.414783000946045" width="3.62849497795105" height="3.62849497795105" style="fill:#000000" id="svg_94" class=""/><rect x="94.47070264816284" y="36.414783000946045" width="3.62849497795105" height="3.62849497795105" style="fill:#000000" id="svg_95" class=""/><rect x="98.09919762611389" y="36.414783000946045" width="3.62849497795105" height="3.62849497795105" style="fill:#000000" id="svg_96" class=""/><rect x="101.72769260406494" y="36.414783000946045" width="3.62849497795105" height="3.62849497795105" style="fill:#000000" id="svg_97" class=""/><rect x="58.185752868652344" y="40.043277978897095" width="3.62849497795105" height="3.62849497795105" style="fill:#000000" id="svg_98" class=""/><rect x="72.69973278045654" y="40.043277978897095" width="3.62849497795105" height="3.62849497795105" style="fill:#000000" id="svg_99" class=""/><rect x="14.643813133239746" y="43.671772956848145" width="3.62849497795105" height="3.62849497795105" style="fill:#000000" id="svg_100" class=""/><rect x="18.272308111190796" y="43.671772956848145" width="3.62849497795105" height="3.62849497795105" style="fill:#000000" id="svg_101" class=""/><rect x="21.900803089141846" y="43.671772956848145" width="3.62849497795105" height="3.62849497795105" style="fill:#000000" id="svg_102" class=""/><rect x="25.529298067092896" y="43.671772956848145" width="3.62849497795105" height="3.62849497795105" style="fill:#000000" id="svg_103" class=""/><rect x="29.157793045043945" y="43.671772956848145" width="3.62849497795105" height="3.62849497795105" style="fill:#000000" id="svg_104" class=""/><rect x="36.414783000946045" y="43.671772956848145" width="3.62849497795105" height="3.62849497795105" style="fill:#000000" id="svg_105" class=""/><rect x="40.043277978897095" y="43.671772956848145" width="3.62849497795105" height="3.62849497795105" style="fill:#000000" id="svg_106" class=""/><rect x="43.671772956848145" y="43.671772956848145" width="3.62849497795105" height="3.62849497795105" style="fill:#000000" id="svg_107" class=""/><rect x="47.300267934799194" y="43.671772956848145" width="3.62849497795105" height="3.62849497795105" style="fill:#000000" id="svg_108" class=""/><rect x="50.928762912750244" y="43.671772956848145" width="3.62849497795105" height="3.62849497795105" style="fill:#000000" id="svg_109" class=""/><rect x="58.185752868652344" y="43.671772956848145" width="3.62849497795105" height="3.62849497795105" style="fill:#000000" id="svg_110" class=""/><rect x="65.44274282455444" y="43.671772956848145" width="3.62849497795105" height="3.62849497795105" style="fill:#000000" id="svg_111" class=""/><rect x="76.32822775840759" y="43.671772956848145" width="3.62849497795105" height="3.62849497795105" style="fill:#000000" id="svg_112" class=""/><rect x="83.58521771430969" y="43.671772956848145" width="3.62849497795105" height="3.62849497795105" style="fill:#000000" id="svg_113" class=""/><rect x="90.84220767021179" y="43.671772956848145" width="3.62849497795105" height="3.62849497795105" style="fill:#000000" id="svg_114" class=""/><rect x="98.09919762611389" y="43.671772956848145" width="3.62849497795105" height="3.62849497795105" style="fill:#000000" id="svg_115" class=""/><rect x="21.900803089141846" y="47.300267934799194" width="3.62849497795105" height="3.62849497795105" style="fill:#000000" id="svg_116" class=""/><rect x="32.786288022994995" y="47.300267934799194" width="3.62849497795105" height="3.62849497795105" style="fill:#000000" id="svg_117" class=""/><rect x="40.043277978897095" y="47.300267934799194" width="3.62849497795105" height="3.62849497795105" style="fill:#000000" id="svg_118" class=""/><rect x="43.671772956848145" y="47.300267934799194" width="3.62849497795105" height="3.62849497795105" style="fill:#000000" id="svg_119" class=""/><rect x="47.300267934799194" y="47.300267934799194" width="3.62849497795105" height="3.62849497795105" style="fill:#000000" id="svg_120" class=""/><rect x="61.814247846603394" y="47.300267934799194" width="3.62849497795105" height="3.62849497795105" style="fill:#000000" id="svg_121" class=""/><rect x="65.44274282455444" y="47.300267934799194" width="3.62849497795105" height="3.62849497795105" style="fill:#000000" id="svg_122" class=""/><rect x="83.58521771430969" y="47.300267934799194" width="3.62849497795105" height="3.62849497795105" style="fill:#000000" id="svg_123" class=""/><rect x="98.09919762611389" y="47.300267934799194" width="3.62849497795105" height="3.62849497795105" style="fill:#000000" id="svg_124" class=""/><rect x="14.643813133239746" y="50.928762912750244" width="3.62849497795105" height="3.62849497795105" style="fill:#000000" id="svg_125" class=""/><rect x="21.900803089141846" y="50.928762912750244" width="3.62849497795105" height="3.62849497795105" style="fill:#000000" id="svg_126" class=""/><rect x="25.529298067092896" y="50.928762912750244" width="3.62849497795105" height="3.62849497795105" style="fill:#000000" id="svg_127" class=""/><rect x="29.157793045043945" y="50.928762912750244" width="3.62849497795105" height="3.62849497795105" style="fill:#000000" id="svg_128" class=""/><rect x="32.786288022994995" y="50.928762912750244" width="3.62849497795105" height="3.62849497795105" style="fill:#000000" id="svg_129" class=""/><rect x="36.414783000946045" y="50.928762912750244" width="3.62849497795105" height="3.62849497795105" style="fill:#000000" id="svg_130" class=""/><rect x="40.043277978897095" y="50.928762912750244" width="3.62849497795105" height="3.62849497795105" style="fill:#000000" id="svg_131" class=""/><rect x="47.300267934799194" y="50.928762912750244" width="3.62849497795105" height="3.62849497795105" style="fill:#000000" id="svg_132" class=""/><rect x="54.557257890701294" y="50.928762912750244" width="3.62849497795105" height="3.62849497795105" style="fill:#000000" id="svg_133" class=""/><rect x="58.185752868652344" y="50.928762912750244" width="3.62849497795105" height="3.62849497795105" style="fill:#000000" id="svg_134" class=""/><rect x="61.814247846603394" y="50.928762912750244" width="3.62849497795105" height="3.62849497795105" style="fill:#000000" id="svg_135" class=""/><rect x="69.0712378025055" y="50.928762912750244" width="3.62849497795105" height="3.62849497795105" style="fill:#000000" id="svg_136" class=""/><rect x="72.69973278045654" y="50.928762912750244" width="3.62849497795105" height="3.62849497795105" style="fill:#000000" id="svg_137" class=""/><rect x="76.32822775840759" y="50.928762912750244" width="3.62849497795105" height="3.62849497795105" style="fill:#000000" id="svg_138" class=""/><rect x="79.95672273635864" y="50.928762912750244" width="3.62849497795105" height="3.62849497795105" style="fill:#000000" id="svg_139" class=""/><rect x="87.21371269226074" y="50.928762912750244" width="3.62849497795105" height="3.62849497795105" style="fill:#000000" id="svg_140" class=""/><rect x="90.84220767021179" y="50.928762912750244" width="3.62849497795105" height="3.62849497795105" style="fill:#000000" id="svg_141" class=""/><rect x="98.09919762611389" y="50.928762912750244" width="3.62849497795105" height="3.62849497795105" style="fill:#000000" id="svg_142" class=""/><rect x="101.72769260406494" y="50.928762912750244" width="3.62849497795105" height="3.62849497795105" style="fill:#000000" id="svg_143" class=""/><rect x="18.272308111190796" y="54.557257890701294" width="3.62849497795105" height="3.62849497795105" style="fill:#000000" id="svg_144" class=""/><rect x="29.157793045043945" y="54.557257890701294" width="3.62849497795105" height="3.62849497795105" style="fill:#000000" id="svg_145" class=""/><rect x="40.043277978897095" y="54.557257890701294" width="3.62849497795105" height="3.62849497795105" style="fill:#000000" id="svg_146" class=""/><rect x="43.671772956848145" y="54.557257890701294" width="3.62849497795105" height="3.62849497795105" style="fill:#000000" id="svg_147" class=""/><rect x="47.300267934799194" y="54.557257890701294" width="3.62849497795105" height="3.62849497795105" style="fill:#000000" id="svg_148" class=""/><rect x="50.928762912750244" y="54.557257890701294" width="3.62849497795105" height="3.62849497795105" style="fill:#000000" id="svg_149" class=""/><rect x="54.557257890701294" y="54.557257890701294" width="3.62849497795105" height="3.62849497795105" style="fill:#000000" id="svg_150" class=""/><rect x="69.0712378025055" y="54.557257890701294" width="3.62849497795105" height="3.62849497795105" style="fill:#000000" id="svg_151" class=""/><rect x="72.69973278045654" y="54.557257890701294" width="3.62849497795105" height="3.62849497795105" style="fill:#000000" id="svg_152" class=""/><rect x="76.32822775840759" y="54.557257890701294" width="3.62849497795105" height="3.62849497795105" style="fill:#000000" id="svg_153" class=""/><rect x="79.95672273635864" y="54.557257890701294" width="3.62849497795105" height="3.62849497795105" style="fill:#000000" id="svg_154" class=""/><rect x="83.58521771430969" y="54.557257890701294" width="3.62849497795105" height="3.62849497795105" style="fill:#000000" id="svg_155" class=""/><rect x="87.21371269226074" y="54.557257890701294" width="3.62849497795105" height="3.62849497795105" style="fill:#000000" id="svg_156" class=""/><rect x="101.72769260406494" y="54.557257890701294" width="3.62849497795105" height="3.62849497795105" style="fill:#000000" id="svg_157" class=""/><rect x="29.157793045043945" y="58.185752868652344" width="3.62849497795105" height="3.62849497795105" style="fill:#000000" id="svg_158" class=""/><rect x="36.414783000946045" y="58.185752868652344" width="3.62849497795105" height="3.62849497795105" style="fill:#000000" id="svg_159" class=""/><rect x="40.043277978897095" y="58.185752868652344" width="3.62849497795105" height="3.62849497795105" style="fill:#000000" id="svg_160" class=""/><rect x="47.300267934799194" y="58.185752868652344" width="3.62849497795105" height="3.62849497795105" style="fill:#000000" id="svg_161" class=""/><rect x="54.557257890701294" y="58.185752868652344" width="3.62849497795105" height="3.62849497795105" style="fill:#000000" id="svg_162" class=""/><rect x="61.814247846603394" y="58.185752868652344" width="3.62849497795105" height="3.62849497795105" style="fill:#000000" id="svg_163" class=""/><rect x="69.0712378025055" y="58.185752868652344" width="3.62849497795105" height="3.62849497795105" style="fill:#000000" id="svg_164" class=""/><rect x="76.32822775840759" y="58.185752868652344" width="3.62849497795105" height="3.62849497795105" style="fill:#000000" id="svg_165" class=""/><rect x="79.95672273635864" y="58.185752868652344" width="3.62849497795105" height="3.62849497795105" style="fill:#000000" id="svg_166" class=""/><rect x="87.21371269226074" y="58.185752868652344" width="3.62849497795105" height="3.62849497795105" style="fill:#000000" id="svg_167" class=""/><rect x="94.47070264816284" y="58.185752868652344" width="3.62849497795105" height="3.62849497795105" style="fill:#000000" id="svg_168" class=""/><rect x="98.09919762611389" y="58.185752868652344" width="3.62849497795105" height="3.62849497795105" style="fill:#000000" id="svg_169" class=""/><rect x="101.72769260406494" y="58.185752868652344" width="3.62849497795105" height="3.62849497795105" style="fill:#000000" id="svg_170" class=""/><rect x="14.643813133239746" y="61.814247846603394" width="3.62849497795105" height="3.62849497795105" style="fill:#000000" id="svg_171" class=""/><rect x="18.272308111190796" y="61.814247846603394" width="3.62849497795105" height="3.62849497795105" style="fill:#000000" id="svg_172" class=""/><rect x="25.529298067092896" y="61.814247846603394" width="3.62849497795105" height="3.62849497795105" style="fill:#000000" id="svg_173" class=""/><rect x="32.786288022994995" y="61.814247846603394" width="3.62849497795105" height="3.62849497795105" style="fill:#000000" id="svg_174" class=""/><rect x="40.043277978897095" y="61.814247846603394" width="3.62849497795105" height="3.62849497795105" style="fill:#000000" id="svg_175" class=""/><rect x="43.671772956848145" y="61.814247846603394" width="3.62849497795105" height="3.62849497795105" style="fill:#000000" id="svg_176" class=""/><rect x="47.300267934799194" y="61.814247846603394" width="3.62849497795105" height="3.62849497795105" style="fill:#000000" id="svg_177" class=""/><rect x="50.928762912750244" y="61.814247846603394" width="3.62849497795105" height="3.62849497795105" style="fill:#000000" id="svg_178" class=""/><rect x="58.185752868652344" y="61.814247846603394" width="3.62849497795105" height="3.62849497795105" style="fill:#000000" id="svg_179" class=""/><rect x="65.44274282455444" y="61.814247846603394" width="3.62849497795105" height="3.62849497795105" style="fill:#000000" id="svg_180" class=""/><rect x="72.69973278045654" y="61.814247846603394" width="3.62849497795105" height="3.62849497795105" style="fill:#000000" id="svg_181" class=""/><rect x="90.84220767021179" y="61.814247846603394" width="3.62849497795105" height="3.62849497795105" style="fill:#000000" id="svg_182" class=""/><rect x="98.09919762611389" y="61.814247846603394" width="3.62849497795105" height="3.62849497795105" style="fill:#000000" id="svg_183" class=""/><rect x="14.643813133239746" y="65.44274282455444" width="3.62849497795105" height="3.62849497795105" style="fill:#000000" id="svg_184" class=""/><rect x="21.900803089141846" y="65.44274282455444" width="3.62849497795105" height="3.62849497795105" style="fill:#000000" id="svg_185" class=""/><rect x="25.529298067092896" y="65.44274282455444" width="3.62849497795105" height="3.62849497795105" style="fill:#000000" id="svg_186" class=""/><rect x="29.157793045043945" y="65.44274282455444" width="3.62849497795105" height="3.62849497795105" style="fill:#000000" id="svg_187" class=""/><rect x="36.414783000946045" y="65.44274282455444" width="3.62849497795105" height="3.62849497795105" style="fill:#000000" id="svg_188" class=""/><rect x="47.300267934799194" y="65.44274282455444" width="3.62849497795105" height="3.62849497795105" style="fill:#000000" id="svg_189" class=""/><rect x="65.44274282455444" y="65.44274282455444" width="3.62849497795105" height="3.62849497795105" style="fill:#000000" id="svg_190" class=""/><rect x="69.0712378025055" y="65.44274282455444" width="3.62849497795105" height="3.62849497795105" style="fill:#000000" id="svg_191" class=""/><rect x="72.69973278045654" y="65.44274282455444" width="3.62849497795105" height="3.62849497795105" style="fill:#000000" id="svg_192" class=""/><rect x="79.95672273635864" y="65.44274282455444" width="3.62849497795105" height="3.62849497795105" style="fill:#000000" id="svg_193" class=""/><rect x="90.84220767021179" y="65.44274282455444" width="3.62849497795105" height="3.62849497795105" style="fill:#000000" id="svg_194" class=""/><rect x="98.09919762611389" y="65.44274282455444" width="3.62849497795105" height="3.62849497795105" style="fill:#000000" id="svg_195" class=""/><rect x="101.72769260406494" y="65.44274282455444" width="3.62849497795105" height="3.62849497795105" style="fill:#000000" id="svg_196" class=""/><rect x="14.643813133239746" y="69.0712378025055" width="3.62849497795105" height="3.62849497795105" style="fill:#000000" id="svg_197" class=""/><rect x="29.157793045043945" y="69.0712378025055" width="3.62849497795105" height="3.62849497795105" style="fill:#000000" id="svg_198" class=""/><rect x="32.786288022994995" y="69.0712378025055" width="3.62849497795105" height="3.62849497795105" style="fill:#000000" id="svg_199" class=""/><rect x="40.043277978897095" y="69.0712378025055" width="3.62849497795105" height="3.62849497795105" style="fill:#000000" id="svg_200" class=""/><rect x="43.671772956848145" y="69.0712378025055" width="3.62849497795105" height="3.62849497795105" style="fill:#000000" id="svg_201" class=""/><rect x="47.300267934799194" y="69.0712378025055" width="3.62849497795105" height="3.62849497795105" style="fill:#000000" id="svg_202" class=""/><rect x="58.185752868652344" y="69.0712378025055" width="3.62849497795105" height="3.62849497795105" style="fill:#000000" id="svg_203" class=""/><rect x="65.44274282455444" y="69.0712378025055" width="3.62849497795105" height="3.62849497795105" style="fill:#000000" id="svg_204" class=""/><rect x="69.0712378025055" y="69.0712378025055" width="3.62849497795105" height="3.62849497795105" style="fill:#000000" id="svg_205" class=""/><rect x="72.69973278045654" y="69.0712378025055" width="3.62849497795105" height="3.62849497795105" style="fill:#000000" id="svg_206" class=""/><rect x="76.32822775840759" y="69.0712378025055" width="3.62849497795105" height="3.62849497795105" style="fill:#000000" id="svg_207" class=""/><rect x="79.95672273635864" y="69.0712378025055" width="3.62849497795105" height="3.62849497795105" style="fill:#000000" id="svg_208" class=""/><rect x="83.58521771430969" y="69.0712378025055" width="3.62849497795105" height="3.62849497795105" style="fill:#000000" id="svg_209" class=""/><rect x="87.21371269226074" y="69.0712378025055" width="3.62849497795105" height="3.62849497795105" style="fill:#000000" id="svg_210" class=""/><rect x="90.84220767021179" y="69.0712378025055" width="3.62849497795105" height="3.62849497795105" style="fill:#000000" id="svg_211" class=""/><rect x="101.72769260406494" y="69.0712378025055" width="3.62849497795105" height="3.62849497795105" style="fill:#000000" id="svg_212" class=""/><rect x="14.643813133239746" y="72.69973278045654" width="3.62849497795105" height="3.62849497795105" style="fill:#000000" id="svg_213" class=""/><rect x="21.900803089141846" y="72.69973278045654" width="3.62849497795105" height="3.62849497795105" style="fill:#000000" id="svg_214" class=""/><rect x="25.529298067092896" y="72.69973278045654" width="3.62849497795105" height="3.62849497795105" style="fill:#000000" id="svg_215" class=""/><rect x="29.157793045043945" y="72.69973278045654" width="3.62849497795105" height="3.62849497795105" style="fill:#000000" id="svg_216" class=""/><rect x="32.786288022994995" y="72.69973278045654" width="3.62849497795105" height="3.62849497795105" style="fill:#000000" id="svg_217" class=""/><rect x="36.414783000946045" y="72.69973278045654" width="3.62849497795105" height="3.62849497795105" style="fill:#000000" id="svg_218" class=""/><rect x="40.043277978897095" y="72.69973278045654" width="3.62849497795105" height="3.62849497795105" style="fill:#000000" id="svg_219" class=""/><rect x="58.185752868652344" y="72.69973278045654" width="3.62849497795105" height="3.62849497795105" style="fill:#000000" id="svg_220" class=""/><rect x="61.814247846603394" y="72.69973278045654" width="3.62849497795105" height="3.62849497795105" style="fill:#000000" id="svg_221" class=""/><rect x="65.44274282455444" y="72.69973278045654" width="3.62849497795105" height="3.62849497795105" style="fill:#000000" id="svg_222" class=""/><rect x="72.69973278045654" y="72.69973278045654" width="3.62849497795105" height="3.62849497795105" style="fill:#000000" id="svg_223" class=""/><rect x="76.32822775840759" y="72.69973278045654" width="3.62849497795105" height="3.62849497795105" style="fill:#000000" id="svg_224" class=""/><rect x="79.95672273635864" y="72.69973278045654" width="3.62849497795105" height="3.62849497795105" style="fill:#000000" id="svg_225" class=""/><rect x="83.58521771430969" y="72.69973278045654" width="3.62849497795105" height="3.62849497795105" style="fill:#000000" id="svg_226" class=""/><rect x="87.21371269226074" y="72.69973278045654" width="3.62849497795105" height="3.62849497795105" style="fill:#000000" id="svg_227" class=""/><rect x="94.47070264816284" y="72.69973278045654" width="3.62849497795105" height="3.62849497795105" style="fill:#000000" id="svg_228" class=""/><rect x="43.671772956848145" y="76.32822775840759" width="3.62849497795105" height="3.62849497795105" style="fill:#000000" id="svg_229" class=""/><rect x="65.44274282455444" y="76.32822775840759" width="3.62849497795105" height="3.62849497795105" style="fill:#000000" id="svg_230" class=""/><rect x="69.0712378025055" y="76.32822775840759" width="3.62849497795105" height="3.62849497795105" style="fill:#000000" id="svg_231" class=""/><rect x="72.69973278045654" y="76.32822775840759" width="3.62849497795105" height="3.62849497795105" style="fill:#000000" id="svg_232" class=""/><rect x="87.21371269226074" y="76.32822775840759" width="3.62849497795105" height="3.62849497795105" style="fill:#000000" id="svg_233" class=""/><rect x="90.84220767021179" y="76.32822775840759" width="3.62849497795105" height="3.62849497795105" style="fill:#000000" id="svg_234" class=""/><rect x="94.47070264816284" y="76.32822775840759" width="3.62849497795105" height="3.62849497795105" style="fill:#000000" id="svg_235" class=""/><rect x="14.643813133239746" y="79.95672273635864" width="3.62849497795105" height="3.62849497795105" style="fill:#000000" id="svg_236" class=""/><rect x="18.272308111190796" y="79.95672273635864" width="3.62849497795105" height="3.62849497795105" style="fill:#000000" id="svg_237" class=""/><rect x="21.900803089141846" y="79.95672273635864" width="3.62849497795105" height="3.62849497795105" style="fill:#000000" id="svg_238" class=""/><rect x="25.529298067092896" y="79.95672273635864" width="3.62849497795105" height="3.62849497795105" style="fill:#000000" id="svg_239" class=""/><rect x="29.157793045043945" y="79.95672273635864" width="3.62849497795105" height="3.62849497795105" style="fill:#000000" id="svg_240" class=""/><rect x="32.786288022994995" y="79.95672273635864" width="3.62849497795105" height="3.62849497795105" style="fill:#000000" id="svg_241" class=""/><rect x="36.414783000946045" y="79.95672273635864" width="3.62849497795105" height="3.62849497795105" style="fill:#000000" id="svg_242" class=""/><rect x="43.671772956848145" y="79.95672273635864" width="3.62849497795105" height="3.62849497795105" style="fill:#000000" id="svg_243" class=""/><rect x="47.300267934799194" y="79.95672273635864" width="3.62849497795105" height="3.62849497795105" style="fill:#000000" id="svg_244" class=""/><rect x="50.928762912750244" y="79.95672273635864" width="3.62849497795105" height="3.62849497795105" style="fill:#000000" id="svg_245" class=""/><rect x="54.557257890701294" y="79.95672273635864" width="3.62849497795105" height="3.62849497795105" style="fill:#000000" id="svg_246" class=""/><rect x="58.185752868652344" y="79.95672273635864" width="3.62849497795105" height="3.62849497795105" style="fill:#000000" id="svg_247" class=""/><rect x="72.69973278045654" y="79.95672273635864" width="3.62849497795105" height="3.62849497795105" style="fill:#000000" id="svg_248" class=""/><rect x="79.95672273635864" y="79.95672273635864" width="3.62849497795105" height="3.62849497795105" style="fill:#000000" id="svg_249" class=""/><rect x="87.21371269226074" y="79.95672273635864" width="3.62849497795105" height="3.62849497795105" style="fill:#000000" id="svg_250" class=""/><rect x="90.84220767021179" y="79.95672273635864" width="3.62849497795105" height="3.62849497795105" style="fill:#000000" id="svg_251" class=""/><rect x="94.47070264816284" y="79.95672273635864" width="3.62849497795105" height="3.62849497795105" style="fill:#000000" id="svg_252" class=""/><rect x="98.09919762611389" y="79.95672273635864" width="3.62849497795105" height="3.62849497795105" style="fill:#000000" id="svg_253" class=""/><rect x="101.72769260406494" y="79.95672273635864" width="3.62849497795105" height="3.62849497795105" style="fill:#000000" id="svg_254" class=""/><rect x="14.643813133239746" y="83.58521771430969" width="3.62849497795105" height="3.62849497795105" style="fill:#000000" id="svg_255" class=""/><rect x="36.414783000946045" y="83.58521771430969" width="3.62849497795105" height="3.62849497795105" style="fill:#000000" id="svg_256" class=""/><rect x="54.557257890701294" y="83.58521771430969" width="3.62849497795105" height="3.62849497795105" style="fill:#000000" id="svg_257" class=""/><rect x="72.69973278045654" y="83.58521771430969" width="3.62849497795105" height="3.62849497795105" style="fill:#000000" id="svg_258" class=""/><rect x="87.21371269226074" y="83.58521771430969" width="3.62849497795105" height="3.62849497795105" style="fill:#000000" id="svg_259" class=""/><rect x="90.84220767021179" y="83.58521771430969" width="3.62849497795105" height="3.62849497795105" style="fill:#000000" id="svg_260" class=""/><rect x="14.643813133239746" y="87.21371269226074" width="3.62849497795105" height="3.62849497795105" style="fill:#000000" id="svg_261" class=""/><rect x="21.900803089141846" y="87.21371269226074" width="3.62849497795105" height="3.62849497795105" style="fill:#000000" id="svg_262" class=""/><rect x="25.529298067092896" y="87.21371269226074" width="3.62849497795105" height="3.62849497795105" style="fill:#000000" id="svg_263" class=""/><rect x="29.157793045043945" y="87.21371269226074" width="3.62849497795105" height="3.62849497795105" style="fill:#000000" id="svg_264" class=""/><rect x="36.414783000946045" y="87.21371269226074" width="3.62849497795105" height="3.62849497795105" style="fill:#000000" id="svg_265" class=""/><rect x="43.671772956848145" y="87.21371269226074" width="3.62849497795105" height="3.62849497795105" style="fill:#000000" id="svg_266" class=""/><rect x="47.300267934799194" y="87.21371269226074" width="3.62849497795105" height="3.62849497795105" style="fill:#000000" id="svg_267" class=""/><rect x="50.928762912750244" y="87.21371269226074" width="3.62849497795105" height="3.62849497795105" style="fill:#000000" id="svg_268" class=""/><rect x="54.557257890701294" y="87.21371269226074" width="3.62849497795105" height="3.62849497795105" style="fill:#000000" id="svg_269" class=""/><rect x="69.0712378025055" y="87.21371269226074" width="3.62849497795105" height="3.62849497795105" style="fill:#000000" id="svg_270" class=""/><rect x="72.69973278045654" y="87.21371269226074" width="3.62849497795105" height="3.62849497795105" style="fill:#000000" id="svg_271" class=""/><rect x="76.32822775840759" y="87.21371269226074" width="3.62849497795105" height="3.62849497795105" style="fill:#000000" id="svg_272" class=""/><rect x="79.95672273635864" y="87.21371269226074" width="3.62849497795105" height="3.62849497795105" style="fill:#000000" id="svg_273" class=""/><rect x="83.58521771430969" y="87.21371269226074" width="3.62849497795105" height="3.62849497795105" style="fill:#000000" id="svg_274" class=""/><rect x="87.21371269226074" y="87.21371269226074" width="3.62849497795105" height="3.62849497795105" style="fill:#000000" id="svg_275" class=""/><rect x="90.84220767021179" y="87.21371269226074" width="3.62849497795105" height="3.62849497795105" style="fill:#000000" id="svg_276" class=""/><rect x="94.47070264816284" y="87.21371269226074" width="3.62849497795105" height="3.62849497795105" style="fill:#000000" id="svg_277" class=""/><rect x="98.09919762611389" y="87.21371269226074" width="3.62849497795105" height="3.62849497795105" style="fill:#000000" id="svg_278" class=""/><rect x="101.72769260406494" y="87.21371269226074" width="3.62849497795105" height="3.62849497795105" style="fill:#000000" id="svg_279" class=""/><rect x="14.643813133239746" y="90.84220767021179" width="3.62849497795105" height="3.62849497795105" style="fill:#000000" id="svg_280" class=""/><rect x="21.900803089141846" y="90.84220767021179" width="3.62849497795105" height="3.62849497795105" style="fill:#000000" id="svg_281" class=""/><rect x="25.529298067092896" y="90.84220767021179" width="3.62849497795105" height="3.62849497795105" style="fill:#000000" id="svg_282" class=""/><rect x="29.157793045043945" y="90.84220767021179" width="3.62849497795105" height="3.62849497795105" style="fill:#000000" id="svg_283" class=""/><rect x="36.414783000946045" y="90.84220767021179" width="3.62849497795105" height="3.62849497795105" style="fill:#000000" id="svg_284" class=""/><rect x="43.671772956848145" y="90.84220767021179" width="3.62849497795105" height="3.62849497795105" style="fill:#000000" id="svg_285" class=""/><rect x="47.300267934799194" y="90.84220767021179" width="3.62849497795105" height="3.62849497795105" style="fill:#000000" id="svg_286" class=""/><rect x="58.185752868652344" y="90.84220767021179" width="3.62849497795105" height="3.62849497795105" style="fill:#000000" id="svg_287" class=""/><rect x="61.814247846603394" y="90.84220767021179" width="3.62849497795105" height="3.62849497795105" style="fill:#000000" id="svg_288" class=""/><rect x="69.0712378025055" y="90.84220767021179" width="3.62849497795105" height="3.62849497795105" style="fill:#000000" id="svg_289" class=""/><rect x="72.69973278045654" y="90.84220767021179" width="3.62849497795105" height="3.62849497795105" style="fill:#000000" id="svg_290" class=""/><rect x="76.32822775840759" y="90.84220767021179" width="3.62849497795105" height="3.62849497795105" style="fill:#000000" id="svg_291" class=""/><rect x="79.95672273635864" y="90.84220767021179" width="3.62849497795105" height="3.62849497795105" style="fill:#000000" id="svg_292" class=""/><rect x="87.21371269226074" y="90.84220767021179" width="3.62849497795105" height="3.62849497795105" style="fill:#000000" id="svg_293" class=""/><rect x="94.47070264816284" y="90.84220767021179" width="3.62849497795105" height="3.62849497795105" style="fill:#000000" id="svg_294" class=""/><rect x="98.09919762611389" y="90.84220767021179" width="3.62849497795105" height="3.62849497795105" style="fill:#000000" id="svg_295" class=""/><rect x="101.72769260406494" y="90.84220767021179" width="3.62849497795105" height="3.62849497795105" style="fill:#000000" id="svg_296" class=""/><rect x="14.643813133239746" y="94.47070264816284" width="3.62849497795105" height="3.62849497795105" style="fill:#000000" id="svg_297" class=""/><rect x="21.900803089141846" y="94.47070264816284" width="3.62849497795105" height="3.62849497795105" style="fill:#000000" id="svg_298" class=""/><rect x="25.529298067092896" y="94.47070264816284" width="3.62849497795105" height="3.62849497795105" style="fill:#000000" id="svg_299" class=""/><rect x="29.157793045043945" y="94.47070264816284" width="3.62849497795105" height="3.62849497795105" style="fill:#000000" id="svg_300" class=""/><rect x="36.414783000946045" y="94.47070264816284" width="3.62849497795105" height="3.62849497795105" style="fill:#000000" id="svg_301" class=""/><rect x="43.671772956848145" y="94.47070264816284" width="3.62849497795105" height="3.62849497795105" style="fill:#000000" id="svg_302" class=""/><rect x="47.300267934799194" y="94.47070264816284" width="3.62849497795105" height="3.62849497795105" style="fill:#000000" id="svg_303" class=""/><rect x="61.814247846603394" y="94.47070264816284" width="3.62849497795105" height="3.62849497795105" style="fill:#000000" id="svg_304" class=""/><rect x="65.44274282455444" y="94.47070264816284" width="3.62849497795105" height="3.62849497795105" style="fill:#000000" id="svg_305" class=""/><rect x="72.69973278045654" y="94.47070264816284" width="3.62849497795105" height="3.62849497795105" style="fill:#000000" id="svg_306" class=""/><rect x="83.58521771430969" y="94.47070264816284" width="3.62849497795105" height="3.62849497795105" style="fill:#000000" id="svg_307" class=""/><rect x="94.47070264816284" y="94.47070264816284" width="3.62849497795105" height="3.62849497795105" style="fill:#000000" id="svg_308" class=""/><rect x="101.72769260406494" y="94.47070264816284" width="3.62849497795105" height="3.62849497795105" style="fill:#000000" id="svg_309" class=""/><rect x="14.643813133239746" y="98.09919762611389" width="3.62849497795105" height="3.62849497795105" style="fill:#000000" id="svg_310" class=""/><rect x="36.414783000946045" y="98.09919762611389" width="3.62849497795105" height="3.62849497795105" style="fill:#000000" id="svg_311" class=""/><rect x="43.671772956848145" y="98.09919762611389" width="3.62849497795105" height="3.62849497795105" style="fill:#000000" id="svg_312" class=""/><rect x="47.300267934799194" y="98.09919762611389" width="3.62849497795105" height="3.62849497795105" style="fill:#000000" id="svg_313" class=""/><rect x="50.928762912750244" y="98.09919762611389" width="3.62849497795105" height="3.62849497795105" style="fill:#000000" id="svg_314" class=""/><rect x="58.185752868652344" y="98.09919762611389" width="3.62849497795105" height="3.62849497795105" style="fill:#000000" id="svg_315" class=""/><rect x="61.814247846603394" y="98.09919762611389" width="3.62849497795105" height="3.62849497795105" style="fill:#000000" id="svg_316" class=""/><rect x="69.0712378025055" y="98.09919762611389" width="3.62849497795105" height="3.62849497795105" style="fill:#000000" id="svg_317" class=""/><rect x="72.69973278045654" y="98.09919762611389" width="3.62849497795105" height="3.62849497795105" style="fill:#000000" id="svg_318" class=""/><rect x="76.32822775840759" y="98.09919762611389" width="3.62849497795105" height="3.62849497795105" style="fill:#000000" id="svg_319" class=""/><rect x="79.95672273635864" y="98.09919762611389" width="3.62849497795105" height="3.62849497795105" style="fill:#000000" id="svg_320" class=""/><rect x="83.58521771430969" y="98.09919762611389" width="3.62849497795105" height="3.62849497795105" style="fill:#000000" id="svg_321" class=""/><rect x="87.21371269226074" y="98.09919762611389" width="3.62849497795105" height="3.62849497795105" style="fill:#000000" id="svg_322" class=""/><rect x="90.84220767021179" y="98.09919762611389" width="3.62849497795105" height="3.62849497795105" style="fill:#000000" id="svg_323" class=""/><rect x="101.72769260406494" y="98.09919762611389" width="3.62849497795105" height="3.62849497795105" style="fill:#000000" id="svg_324" class=""/><rect x="14.643813133239746" y="101.72769260406494" width="3.62849497795105" height="3.62849497795105" style="fill:#000000" id="svg_325" class=""/><rect x="18.272308111190796" y="101.72769260406494" width="3.62849497795105" height="3.62849497795105" style="fill:#000000" id="svg_326" class=""/><rect x="21.900803089141846" y="101.72769260406494" width="3.62849497795105" height="3.62849497795105" style="fill:#000000" id="svg_327" class=""/><rect x="25.529298067092896" y="101.72769260406494" width="3.62849497795105" height="3.62849497795105" style="fill:#000000" id="svg_328" class=""/><rect x="29.157793045043945" y="101.72769260406494" width="3.62849497795105" height="3.62849497795105" style="fill:#000000" id="svg_329" class=""/><rect x="32.786288022994995" y="101.72769260406494" width="3.62849497795105" height="3.62849497795105" style="fill:#000000" id="svg_330" class=""/><rect x="36.414783000946045" y="101.72769260406494" width="3.62849497795105" height="3.62849497795105" style="fill:#000000" id="svg_331" class=""/><rect x="43.671772956848145" y="101.72769260406494" width="3.62849497795105" height="3.62849497795105" style="fill:#000000" id="svg_332" class=""/><rect x="47.300267934799194" y="101.72769260406494" width="3.62849497795105" height="3.62849497795105" style="fill:#000000" id="svg_333" class=""/><rect x="58.185752868652344" y="101.72769260406494" width="3.62849497795105" height="3.62849497795105" style="fill:#000000" id="svg_334" class=""/><rect x="65.44274282455444" y="101.72769260406494" width="3.62849497795105" height="3.62849497795105" style="fill:#000000" id="svg_335" class=""/><rect x="69.0712378025055" y="101.72769260406494" width="3.62849497795105" height="3.62849497795105" style="fill:#000000" id="svg_336" class=""/><rect x="79.95672273635864" y="101.72769260406494" width="3.62849497795105" height="3.62849497795105" style="fill:#000000" id="svg_337" class=""/><rect x="83.58521771430969" y="101.72769260406494" width="3.62849497795105" height="3.62849497795105" style="fill:#000000" id="svg_338" class=""/><rect x="87.21371269226074" y="101.72769260406494" width="3.62849497795105" height="3.62849497795105" style="fill:#000000" id="svg_339" class=""/><rect x="90.84220767021179" y="101.72769260406494" width="3.62849497795105" height="3.62849497795105" style="fill:#000000" id="svg_340" class=""/><rect x="94.47070264816284" y="101.72769260406494" width="3.62849497795105" height="3.62849497795105" style="fill:#000000" id="svg_341" class=""/><rect x="98.09919762611389" y="101.72769260406494" width="3.62849497795105" height="3.62849497795105" style="fill:#000000" id="svg_342" class=""/><rect x="101.72769260406494" y="101.72769260406494" width="3.62849497795105" height="3.62849497795105" style="fill:#000000" id="svg_343" class=""/></g></g></svg>