<svg xmlns="http://www.w3.org/2000/svg" version="1.1" width="120" height="120"><rect id="backgroundrect" width="100%" height="100%" x="0" y="0" fill="none" stroke="none" class="" style=""/>
 
 
 
 
 
 
 
 
 
 
 
 
 
 
 
 
 
 
 
 
 
 
 
 
 
 
 
 
 
 
 
 
 
 
 
 
 
 
 
 
 
 
 
 
 
 
 
 
 
 
 
 
 
 
 
 
 
 
 
 
 
 
 
 
 
 
 
 
 
 
 
 
 
 
 
 
 
 
 
 
 
 
 
 
 
 
 
 
 
 
 
 
 
 
 
 
 
 
 
 
 
 
 
 
 
 
 
 
 
 
 
 
 
 
 
 
 
 
 
 
 
 
 
 
 
 
 
 
 
 
 
 
 
 
 
 
 
 
 
 
 
 
 
 
 
 
 
 
 
 
 
 
 
 
 
 
 
 
 
 
 
 
 
 
 
 
 
 
 
 
 
 
 
 
 
 
 
 
 
 
 
 
 
 
 
 
 
 
 
 
 
 
 
 
 
 
 
 
 
 
 
 
 
 
 
 
 
 
 
 
 
 
 
 
 
 
 
 
 
 
 
 
 
 
 
 
 
 
 
 
 
 
 
 
 
 
 
 
 
 
 
 
 
 
 
 
 
 
 
 
 
 
 
 
 
 
 
 
 
 
 
 
 
 
 
 
 
 
 
 
 
 
 
 
 
 
 
 
 
 
 
 
 
 
 
 
 
 
 
 
 
 
 
 
 
 
 
 
 
 
 
 
 
 
 
 
 
 
 
 
 
 
 
 
 
 
 
 
 
 
 
 
 
 
 
 
 
 
 
 
 
 
 
 
 
 
 
 
 
 
 
 
 
 
 
<g class="currentLayer" style=""><title>Layer 1</title><g class="" id="svg_346"><rect x="0.12921142578125" y="0.12921142578125" width="119.74157738685608" height="119.74157738685608" style="fill:#ffffff" id="svg_1" class=""/><rect x="14.643342018127441" y="14.643342018127441" width="3.628532648086548" height="3.628532648086548" style="fill:#000000" id="svg_2" class=""/><rect x="18.27187466621399" y="14.643342018127441" width="3.628532648086548" height="3.628532648086548" style="fill:#000000" id="svg_3" class=""/><rect x="21.900407314300537" y="14.643342018127441" width="3.628532648086548" height="3.628532648086548" style="fill:#000000" id="svg_4" class=""/><rect x="25.528939962387085" y="14.643342018127441" width="3.628532648086548" height="3.628532648086548" style="fill:#000000" id="svg_5" class=""/><rect x="29.157472610473633" y="14.643342018127441" width="3.628532648086548" height="3.628532648086548" style="fill:#000000" id="svg_6" class=""/><rect x="32.78600525856018" y="14.643342018127441" width="3.628532648086548" height="3.628532648086548" style="fill:#000000" id="svg_7" class=""/><rect x="36.41453790664673" y="14.643342018127441" width="3.628532648086548" height="3.628532648086548" style="fill:#000000" id="svg_8" class=""/><rect x="47.30013585090637" y="14.643342018127441" width="3.628532648086548" height="3.628532648086548" style="fill:#000000" id="svg_9" class=""/><rect x="72.6998643875122" y="14.643342018127441" width="3.628532648086548" height="3.628532648086548" style="fill:#000000" id="svg_10" class=""/><rect x="79.9569296836853" y="14.643342018127441" width="3.628532648086548" height="3.628532648086548" style="fill:#000000" id="svg_11" class=""/><rect x="83.58546233177185" y="14.643342018127441" width="3.628532648086548" height="3.628532648086548" style="fill:#000000" id="svg_12" class=""/><rect x="87.2139949798584" y="14.643342018127441" width="3.628532648086548" height="3.628532648086548" style="fill:#000000" id="svg_13" class=""/><rect x="90.84252762794495" y="14.643342018127441" width="3.628532648086548" height="3.628532648086548" style="fill:#000000" id="svg_14" class=""/><rect x="94.4710602760315" y="14.643342018127441" width="3.628532648086548" height="3.628532648086548" style="fill:#000000" id="svg_15" class=""/><rect x="98.09959292411804" y="14.643342018127441" width="3.628532648086548" height="3.628532648086548" style="fill:#000000" id="svg_16" class=""/><rect x="101.72812557220459" y="14.643342018127441" width="3.628532648086548" height="3.628532648086548" style="fill:#000000" id="svg_17" class=""/><rect x="14.643342018127441" y="18.27187466621399" width="3.628532648086548" height="3.628532648086548" style="fill:#000000" id="svg_18" class=""/><rect x="36.41453790664673" y="18.27187466621399" width="3.628532648086548" height="3.628532648086548" style="fill:#000000" id="svg_19" class=""/><rect x="43.671603202819824" y="18.27187466621399" width="3.628532648086548" height="3.628532648086548" style="fill:#000000" id="svg_20" class=""/><rect x="47.30013585090637" y="18.27187466621399" width="3.628532648086548" height="3.628532648086548" style="fill:#000000" id="svg_21" class=""/><rect x="54.55720114707947" y="18.27187466621399" width="3.628532648086548" height="3.628532648086548" style="fill:#000000" id="svg_22" class=""/><rect x="58.185733795166016" y="18.27187466621399" width="3.628532648086548" height="3.628532648086548" style="fill:#000000" id="svg_23" class=""/><rect x="61.81426644325256" y="18.27187466621399" width="3.628532648086548" height="3.628532648086548" style="fill:#000000" id="svg_24" class=""/><rect x="69.07133173942566" y="18.27187466621399" width="3.628532648086548" height="3.628532648086548" style="fill:#000000" id="svg_25" class=""/><rect x="79.9569296836853" y="18.27187466621399" width="3.628532648086548" height="3.628532648086548" style="fill:#000000" id="svg_26" class=""/><rect x="101.72812557220459" y="18.27187466621399" width="3.628532648086548" height="3.628532648086548" style="fill:#000000" id="svg_27" class=""/><rect x="14.643342018127441" y="21.900407314300537" width="3.628532648086548" height="3.628532648086548" style="fill:#000000" id="svg_28" class=""/><rect x="21.900407314300537" y="21.900407314300537" width="3.628532648086548" height="3.628532648086548" style="fill:#000000" id="svg_29" class=""/><rect x="25.528939962387085" y="21.900407314300537" width="3.628532648086548" height="3.628532648086548" style="fill:#000000" id="svg_30" class=""/><rect x="29.157472610473633" y="21.900407314300537" width="3.628532648086548" height="3.628532648086548" style="fill:#000000" id="svg_31" class=""/><rect x="36.41453790664673" y="21.900407314300537" width="3.628532648086548" height="3.628532648086548" style="fill:#000000" id="svg_32" class=""/><rect x="47.30013585090637" y="21.900407314300537" width="3.628532648086548" height="3.628532648086548" style="fill:#000000" id="svg_33" class=""/><rect x="50.92866849899292" y="21.900407314300537" width="3.628532648086548" height="3.628532648086548" style="fill:#000000" id="svg_34" class=""/><rect x="54.55720114707947" y="21.900407314300537" width="3.628532648086548" height="3.628532648086548" style="fill:#000000" id="svg_35" class=""/><rect x="79.9569296836853" y="21.900407314300537" width="3.628532648086548" height="3.628532648086548" style="fill:#000000" id="svg_36" class=""/><rect x="87.2139949798584" y="21.900407314300537" width="3.628532648086548" height="3.628532648086548" style="fill:#000000" id="svg_37" class=""/><rect x="90.84252762794495" y="21.900407314300537" width="3.628532648086548" height="3.628532648086548" style="fill:#000000" id="svg_38" class=""/><rect x="94.4710602760315" y="21.900407314300537" width="3.628532648086548" height="3.628532648086548" style="fill:#000000" id="svg_39" class=""/><rect x="101.72812557220459" y="21.900407314300537" width="3.628532648086548" height="3.628532648086548" style="fill:#000000" id="svg_40" class=""/><rect x="14.643342018127441" y="25.528939962387085" width="3.628532648086548" height="3.628532648086548" style="fill:#000000" id="svg_41" class=""/><rect x="21.900407314300537" y="25.528939962387085" width="3.628532648086548" height="3.628532648086548" style="fill:#000000" id="svg_42" class=""/><rect x="25.528939962387085" y="25.528939962387085" width="3.628532648086548" height="3.628532648086548" style="fill:#000000" id="svg_43" class=""/><rect x="29.157472610473633" y="25.528939962387085" width="3.628532648086548" height="3.628532648086548" style="fill:#000000" id="svg_44" class=""/><rect x="36.41453790664673" y="25.528939962387085" width="3.628532648086548" height="3.628532648086548" style="fill:#000000" id="svg_45" class=""/><rect x="43.671603202819824" y="25.528939962387085" width="3.628532648086548" height="3.628532648086548" style="fill:#000000" id="svg_46" class=""/><rect x="47.30013585090637" y="25.528939962387085" width="3.628532648086548" height="3.628532648086548" style="fill:#000000" id="svg_47" class=""/><rect x="54.55720114707947" y="25.528939962387085" width="3.628532648086548" height="3.628532648086548" style="fill:#000000" id="svg_48" class=""/><rect x="61.81426644325256" y="25.528939962387085" width="3.628532648086548" height="3.628532648086548" style="fill:#000000" id="svg_49" class=""/><rect x="69.07133173942566" y="25.528939962387085" width="3.628532648086548" height="3.628532648086548" style="fill:#000000" id="svg_50" class=""/><rect x="79.9569296836853" y="25.528939962387085" width="3.628532648086548" height="3.628532648086548" style="fill:#000000" id="svg_51" class=""/><rect x="87.2139949798584" y="25.528939962387085" width="3.628532648086548" height="3.628532648086548" style="fill:#000000" id="svg_52" class=""/><rect x="90.84252762794495" y="25.528939962387085" width="3.628532648086548" height="3.628532648086548" style="fill:#000000" id="svg_53" class=""/><rect x="94.4710602760315" y="25.528939962387085" width="3.628532648086548" height="3.628532648086548" style="fill:#000000" id="svg_54" class=""/><rect x="101.72812557220459" y="25.528939962387085" width="3.628532648086548" height="3.628532648086548" style="fill:#000000" id="svg_55" class=""/><rect x="14.643342018127441" y="29.157472610473633" width="3.628532648086548" height="3.628532648086548" style="fill:#000000" id="svg_56" class=""/><rect x="21.900407314300537" y="29.157472610473633" width="3.628532648086548" height="3.628532648086548" style="fill:#000000" id="svg_57" class=""/><rect x="25.528939962387085" y="29.157472610473633" width="3.628532648086548" height="3.628532648086548" style="fill:#000000" id="svg_58" class=""/><rect x="29.157472610473633" y="29.157472610473633" width="3.628532648086548" height="3.628532648086548" style="fill:#000000" id="svg_59" class=""/><rect x="36.41453790664673" y="29.157472610473633" width="3.628532648086548" height="3.628532648086548" style="fill:#000000" id="svg_60" class=""/><rect x="50.92866849899292" y="29.157472610473633" width="3.628532648086548" height="3.628532648086548" style="fill:#000000" id="svg_61" class=""/><rect x="58.185733795166016" y="29.157472610473633" width="3.628532648086548" height="3.628532648086548" style="fill:#000000" id="svg_62" class=""/><rect x="65.44279909133911" y="29.157472610473633" width="3.628532648086548" height="3.628532648086548" style="fill:#000000" id="svg_63" class=""/><rect x="72.6998643875122" y="29.157472610473633" width="3.628532648086548" height="3.628532648086548" style="fill:#000000" id="svg_64" class=""/><rect x="79.9569296836853" y="29.157472610473633" width="3.628532648086548" height="3.628532648086548" style="fill:#000000" id="svg_65" class=""/><rect x="87.2139949798584" y="29.157472610473633" width="3.628532648086548" height="3.628532648086548" style="fill:#000000" id="svg_66" class=""/><rect x="90.84252762794495" y="29.157472610473633" width="3.628532648086548" height="3.628532648086548" style="fill:#000000" id="svg_67" class=""/><rect x="94.4710602760315" y="29.157472610473633" width="3.628532648086548" height="3.628532648086548" style="fill:#000000" id="svg_68" class=""/><rect x="101.72812557220459" y="29.157472610473633" width="3.628532648086548" height="3.628532648086548" style="fill:#000000" id="svg_69" class=""/><rect x="14.643342018127441" y="32.78600525856018" width="3.628532648086548" height="3.628532648086548" style="fill:#000000" id="svg_70" class=""/><rect x="36.41453790664673" y="32.78600525856018" width="3.628532648086548" height="3.628532648086548" style="fill:#000000" id="svg_71" class=""/><rect x="43.671603202819824" y="32.78600525856018" width="3.628532648086548" height="3.628532648086548" style="fill:#000000" id="svg_72" class=""/><rect x="50.92866849899292" y="32.78600525856018" width="3.628532648086548" height="3.628532648086548" style="fill:#000000" id="svg_73" class=""/><rect x="61.81426644325256" y="32.78600525856018" width="3.628532648086548" height="3.628532648086548" style="fill:#000000" id="svg_74" class=""/><rect x="69.07133173942566" y="32.78600525856018" width="3.628532648086548" height="3.628532648086548" style="fill:#000000" id="svg_75" class=""/><rect x="72.6998643875122" y="32.78600525856018" width="3.628532648086548" height="3.628532648086548" style="fill:#000000" id="svg_76" class=""/><rect x="79.9569296836853" y="32.78600525856018" width="3.628532648086548" height="3.628532648086548" style="fill:#000000" id="svg_77" class=""/><rect x="101.72812557220459" y="32.78600525856018" width="3.628532648086548" height="3.628532648086548" style="fill:#000000" id="svg_78" class=""/><rect x="14.643342018127441" y="36.41453790664673" width="3.628532648086548" height="3.628532648086548" style="fill:#000000" id="svg_79" class=""/><rect x="18.27187466621399" y="36.41453790664673" width="3.628532648086548" height="3.628532648086548" style="fill:#000000" id="svg_80" class=""/><rect x="21.900407314300537" y="36.41453790664673" width="3.628532648086548" height="3.628532648086548" style="fill:#000000" id="svg_81" class=""/><rect x="25.528939962387085" y="36.41453790664673" width="3.628532648086548" height="3.628532648086548" style="fill:#000000" id="svg_82" class=""/><rect x="29.157472610473633" y="36.41453790664673" width="3.628532648086548" height="3.628532648086548" style="fill:#000000" id="svg_83" class=""/><rect x="32.78600525856018" y="36.41453790664673" width="3.628532648086548" height="3.628532648086548" style="fill:#000000" id="svg_84" class=""/><rect x="36.41453790664673" y="36.41453790664673" width="3.628532648086548" height="3.628532648086548" style="fill:#000000" id="svg_85" class=""/><rect x="43.671603202819824" y="36.41453790664673" width="3.628532648086548" height="3.628532648086548" style="fill:#000000" id="svg_86" class=""/><rect x="50.92866849899292" y="36.41453790664673" width="3.628532648086548" height="3.628532648086548" style="fill:#000000" id="svg_87" class=""/><rect x="58.185733795166016" y="36.41453790664673" width="3.628532648086548" height="3.628532648086548" style="fill:#000000" id="svg_88" class=""/><rect x="65.44279909133911" y="36.41453790664673" width="3.628532648086548" height="3.628532648086548" style="fill:#000000" id="svg_89" class=""/><rect x="72.6998643875122" y="36.41453790664673" width="3.628532648086548" height="3.628532648086548" style="fill:#000000" id="svg_90" class=""/><rect x="79.9569296836853" y="36.41453790664673" width="3.628532648086548" height="3.628532648086548" style="fill:#000000" id="svg_91" class=""/><rect x="83.58546233177185" y="36.41453790664673" width="3.628532648086548" height="3.628532648086548" style="fill:#000000" id="svg_92" class=""/><rect x="87.2139949798584" y="36.41453790664673" width="3.628532648086548" height="3.628532648086548" style="fill:#000000" id="svg_93" class=""/><rect x="90.84252762794495" y="36.41453790664673" width="3.628532648086548" height="3.628532648086548" style="fill:#000000" id="svg_94" class=""/><rect x="94.4710602760315" y="36.41453790664673" width="3.628532648086548" height="3.628532648086548" style="fill:#000000" id="svg_95" class=""/><rect x="98.09959292411804" y="36.41453790664673" width="3.628532648086548" height="3.628532648086548" style="fill:#000000" id="svg_96" class=""/><rect x="101.72812557220459" y="36.41453790664673" width="3.628532648086548" height="3.628532648086548" style="fill:#000000" id="svg_97" class=""/><rect x="58.185733795166016" y="40.043070554733276" width="3.628532648086548" height="3.628532648086548" style="fill:#000000" id="svg_98" class=""/><rect x="72.6998643875122" y="40.043070554733276" width="3.628532648086548" height="3.628532648086548" style="fill:#000000" id="svg_99" class=""/><rect x="14.643342018127441" y="43.671603202819824" width="3.628532648086548" height="3.628532648086548" style="fill:#000000" id="svg_100" class=""/><rect x="18.27187466621399" y="43.671603202819824" width="3.628532648086548" height="3.628532648086548" style="fill:#000000" id="svg_101" class=""/><rect x="21.900407314300537" y="43.671603202819824" width="3.628532648086548" height="3.628532648086548" style="fill:#000000" id="svg_102" class=""/><rect x="25.528939962387085" y="43.671603202819824" width="3.628532648086548" height="3.628532648086548" style="fill:#000000" id="svg_103" class=""/><rect x="29.157472610473633" y="43.671603202819824" width="3.628532648086548" height="3.628532648086548" style="fill:#000000" id="svg_104" class=""/><rect x="36.41453790664673" y="43.671603202819824" width="3.628532648086548" height="3.628532648086548" style="fill:#000000" id="svg_105" class=""/><rect x="40.043070554733276" y="43.671603202819824" width="3.628532648086548" height="3.628532648086548" style="fill:#000000" id="svg_106" class=""/><rect x="43.671603202819824" y="43.671603202819824" width="3.628532648086548" height="3.628532648086548" style="fill:#000000" id="svg_107" class=""/><rect x="47.30013585090637" y="43.671603202819824" width="3.628532648086548" height="3.628532648086548" style="fill:#000000" id="svg_108" class=""/><rect x="50.92866849899292" y="43.671603202819824" width="3.628532648086548" height="3.628532648086548" style="fill:#000000" id="svg_109" class=""/><rect x="58.185733795166016" y="43.671603202819824" width="3.628532648086548" height="3.628532648086548" style="fill:#000000" id="svg_110" class=""/><rect x="65.44279909133911" y="43.671603202819824" width="3.628532648086548" height="3.628532648086548" style="fill:#000000" id="svg_111" class=""/><rect x="76.32839703559875" y="43.671603202819824" width="3.628532648086548" height="3.628532648086548" style="fill:#000000" id="svg_112" class=""/><rect x="83.58546233177185" y="43.671603202819824" width="3.628532648086548" height="3.628532648086548" style="fill:#000000" id="svg_113" class=""/><rect x="90.84252762794495" y="43.671603202819824" width="3.628532648086548" height="3.628532648086548" style="fill:#000000" id="svg_114" class=""/><rect x="98.09959292411804" y="43.671603202819824" width="3.628532648086548" height="3.628532648086548" style="fill:#000000" id="svg_115" class=""/><rect x="18.27187466621399" y="47.30013585090637" width="3.628532648086548" height="3.628532648086548" style="fill:#000000" id="svg_116" class=""/><rect x="21.900407314300537" y="47.30013585090637" width="3.628532648086548" height="3.628532648086548" style="fill:#000000" id="svg_117" class=""/><rect x="25.528939962387085" y="47.30013585090637" width="3.628532648086548" height="3.628532648086548" style="fill:#000000" id="svg_118" class=""/><rect x="32.78600525856018" y="47.30013585090637" width="3.628532648086548" height="3.628532648086548" style="fill:#000000" id="svg_119" class=""/><rect x="40.043070554733276" y="47.30013585090637" width="3.628532648086548" height="3.628532648086548" style="fill:#000000" id="svg_120" class=""/><rect x="47.30013585090637" y="47.30013585090637" width="3.628532648086548" height="3.628532648086548" style="fill:#000000" id="svg_121" class=""/><rect x="61.81426644325256" y="47.30013585090637" width="3.628532648086548" height="3.628532648086548" style="fill:#000000" id="svg_122" class=""/><rect x="65.44279909133911" y="47.30013585090637" width="3.628532648086548" height="3.628532648086548" style="fill:#000000" id="svg_123" class=""/><rect x="83.58546233177185" y="47.30013585090637" width="3.628532648086548" height="3.628532648086548" style="fill:#000000" id="svg_124" class=""/><rect x="98.09959292411804" y="47.30013585090637" width="3.628532648086548" height="3.628532648086548" style="fill:#000000" id="svg_125" class=""/><rect x="14.643342018127441" y="50.92866849899292" width="3.628532648086548" height="3.628532648086548" style="fill:#000000" id="svg_126" class=""/><rect x="18.27187466621399" y="50.92866849899292" width="3.628532648086548" height="3.628532648086548" style="fill:#000000" id="svg_127" class=""/><rect x="29.157472610473633" y="50.92866849899292" width="3.628532648086548" height="3.628532648086548" style="fill:#000000" id="svg_128" class=""/><rect x="32.78600525856018" y="50.92866849899292" width="3.628532648086548" height="3.628532648086548" style="fill:#000000" id="svg_129" class=""/><rect x="36.41453790664673" y="50.92866849899292" width="3.628532648086548" height="3.628532648086548" style="fill:#000000" id="svg_130" class=""/><rect x="47.30013585090637" y="50.92866849899292" width="3.628532648086548" height="3.628532648086548" style="fill:#000000" id="svg_131" class=""/><rect x="54.55720114707947" y="50.92866849899292" width="3.628532648086548" height="3.628532648086548" style="fill:#000000" id="svg_132" class=""/><rect x="58.185733795166016" y="50.92866849899292" width="3.628532648086548" height="3.628532648086548" style="fill:#000000" id="svg_133" class=""/><rect x="61.81426644325256" y="50.92866849899292" width="3.628532648086548" height="3.628532648086548" style="fill:#000000" id="svg_134" class=""/><rect x="69.07133173942566" y="50.92866849899292" width="3.628532648086548" height="3.628532648086548" style="fill:#000000" id="svg_135" class=""/><rect x="72.6998643875122" y="50.92866849899292" width="3.628532648086548" height="3.628532648086548" style="fill:#000000" id="svg_136" class=""/><rect x="76.32839703559875" y="50.92866849899292" width="3.628532648086548" height="3.628532648086548" style="fill:#000000" id="svg_137" class=""/><rect x="79.9569296836853" y="50.92866849899292" width="3.628532648086548" height="3.628532648086548" style="fill:#000000" id="svg_138" class=""/><rect x="87.2139949798584" y="50.92866849899292" width="3.628532648086548" height="3.628532648086548" style="fill:#000000" id="svg_139" class=""/><rect x="90.84252762794495" y="50.92866849899292" width="3.628532648086548" height="3.628532648086548" style="fill:#000000" id="svg_140" class=""/><rect x="98.09959292411804" y="50.92866849899292" width="3.628532648086548" height="3.628532648086548" style="fill:#000000" id="svg_141" class=""/><rect x="101.72812557220459" y="50.92866849899292" width="3.628532648086548" height="3.628532648086548" style="fill:#000000" id="svg_142" class=""/><rect x="21.900407314300537" y="54.55720114707947" width="3.628532648086548" height="3.628532648086548" style="fill:#000000" id="svg_143" class=""/><rect x="29.157472610473633" y="54.55720114707947" width="3.628532648086548" height="3.628532648086548" style="fill:#000000" id="svg_144" class=""/><rect x="32.78600525856018" y="54.55720114707947" width="3.628532648086548" height="3.628532648086548" style="fill:#000000" id="svg_145" class=""/><rect x="43.671603202819824" y="54.55720114707947" width="3.628532648086548" height="3.628532648086548" style="fill:#000000" id="svg_146" class=""/><rect x="47.30013585090637" y="54.55720114707947" width="3.628532648086548" height="3.628532648086548" style="fill:#000000" id="svg_147" class=""/><rect x="50.92866849899292" y="54.55720114707947" width="3.628532648086548" height="3.628532648086548" style="fill:#000000" id="svg_148" class=""/><rect x="54.55720114707947" y="54.55720114707947" width="3.628532648086548" height="3.628532648086548" style="fill:#000000" id="svg_149" class=""/><rect x="69.07133173942566" y="54.55720114707947" width="3.628532648086548" height="3.628532648086548" style="fill:#000000" id="svg_150" class=""/><rect x="72.6998643875122" y="54.55720114707947" width="3.628532648086548" height="3.628532648086548" style="fill:#000000" id="svg_151" class=""/><rect x="76.32839703559875" y="54.55720114707947" width="3.628532648086548" height="3.628532648086548" style="fill:#000000" id="svg_152" class=""/><rect x="79.9569296836853" y="54.55720114707947" width="3.628532648086548" height="3.628532648086548" style="fill:#000000" id="svg_153" class=""/><rect x="83.58546233177185" y="54.55720114707947" width="3.628532648086548" height="3.628532648086548" style="fill:#000000" id="svg_154" class=""/><rect x="87.2139949798584" y="54.55720114707947" width="3.628532648086548" height="3.628532648086548" style="fill:#000000" id="svg_155" class=""/><rect x="101.72812557220459" y="54.55720114707947" width="3.628532648086548" height="3.628532648086548" style="fill:#000000" id="svg_156" class=""/><rect x="14.643342018127441" y="58.185733795166016" width="3.628532648086548" height="3.628532648086548" style="fill:#000000" id="svg_157" class=""/><rect x="18.27187466621399" y="58.185733795166016" width="3.628532648086548" height="3.628532648086548" style="fill:#000000" id="svg_158" class=""/><rect x="25.528939962387085" y="58.185733795166016" width="3.628532648086548" height="3.628532648086548" style="fill:#000000" id="svg_159" class=""/><rect x="32.78600525856018" y="58.185733795166016" width="3.628532648086548" height="3.628532648086548" style="fill:#000000" id="svg_160" class=""/><rect x="36.41453790664673" y="58.185733795166016" width="3.628532648086548" height="3.628532648086548" style="fill:#000000" id="svg_161" class=""/><rect x="43.671603202819824" y="58.185733795166016" width="3.628532648086548" height="3.628532648086548" style="fill:#000000" id="svg_162" class=""/><rect x="47.30013585090637" y="58.185733795166016" width="3.628532648086548" height="3.628532648086548" style="fill:#000000" id="svg_163" class=""/><rect x="54.55720114707947" y="58.185733795166016" width="3.628532648086548" height="3.628532648086548" style="fill:#000000" id="svg_164" class=""/><rect x="61.81426644325256" y="58.185733795166016" width="3.628532648086548" height="3.628532648086548" style="fill:#000000" id="svg_165" class=""/><rect x="69.07133173942566" y="58.185733795166016" width="3.628532648086548" height="3.628532648086548" style="fill:#000000" id="svg_166" class=""/><rect x="76.32839703559875" y="58.185733795166016" width="3.628532648086548" height="3.628532648086548" style="fill:#000000" id="svg_167" class=""/><rect x="79.9569296836853" y="58.185733795166016" width="3.628532648086548" height="3.628532648086548" style="fill:#000000" id="svg_168" class=""/><rect x="87.2139949798584" y="58.185733795166016" width="3.628532648086548" height="3.628532648086548" style="fill:#000000" id="svg_169" class=""/><rect x="94.4710602760315" y="58.185733795166016" width="3.628532648086548" height="3.628532648086548" style="fill:#000000" id="svg_170" class=""/><rect x="98.09959292411804" y="58.185733795166016" width="3.628532648086548" height="3.628532648086548" style="fill:#000000" id="svg_171" class=""/><rect x="101.72812557220459" y="58.185733795166016" width="3.628532648086548" height="3.628532648086548" style="fill:#000000" id="svg_172" class=""/><rect x="14.643342018127441" y="61.81426644325256" width="3.628532648086548" height="3.628532648086548" style="fill:#000000" id="svg_173" class=""/><rect x="18.27187466621399" y="61.81426644325256" width="3.628532648086548" height="3.628532648086548" style="fill:#000000" id="svg_174" class=""/><rect x="21.900407314300537" y="61.81426644325256" width="3.628532648086548" height="3.628532648086548" style="fill:#000000" id="svg_175" class=""/><rect x="29.157472610473633" y="61.81426644325256" width="3.628532648086548" height="3.628532648086548" style="fill:#000000" id="svg_176" class=""/><rect x="32.78600525856018" y="61.81426644325256" width="3.628532648086548" height="3.628532648086548" style="fill:#000000" id="svg_177" class=""/><rect x="47.30013585090637" y="61.81426644325256" width="3.628532648086548" height="3.628532648086548" style="fill:#000000" id="svg_178" class=""/><rect x="50.92866849899292" y="61.81426644325256" width="3.628532648086548" height="3.628532648086548" style="fill:#000000" id="svg_179" class=""/><rect x="58.185733795166016" y="61.81426644325256" width="3.628532648086548" height="3.628532648086548" style="fill:#000000" id="svg_180" class=""/><rect x="65.44279909133911" y="61.81426644325256" width="3.628532648086548" height="3.628532648086548" style="fill:#000000" id="svg_181" class=""/><rect x="72.6998643875122" y="61.81426644325256" width="3.628532648086548" height="3.628532648086548" style="fill:#000000" id="svg_182" class=""/><rect x="90.84252762794495" y="61.81426644325256" width="3.628532648086548" height="3.628532648086548" style="fill:#000000" id="svg_183" class=""/><rect x="98.09959292411804" y="61.81426644325256" width="3.628532648086548" height="3.628532648086548" style="fill:#000000" id="svg_184" class=""/><rect x="14.643342018127441" y="65.44279909133911" width="3.628532648086548" height="3.628532648086548" style="fill:#000000" id="svg_185" class=""/><rect x="21.900407314300537" y="65.44279909133911" width="3.628532648086548" height="3.628532648086548" style="fill:#000000" id="svg_186" class=""/><rect x="29.157472610473633" y="65.44279909133911" width="3.628532648086548" height="3.628532648086548" style="fill:#000000" id="svg_187" class=""/><rect x="36.41453790664673" y="65.44279909133911" width="3.628532648086548" height="3.628532648086548" style="fill:#000000" id="svg_188" class=""/><rect x="40.043070554733276" y="65.44279909133911" width="3.628532648086548" height="3.628532648086548" style="fill:#000000" id="svg_189" class=""/><rect x="47.30013585090637" y="65.44279909133911" width="3.628532648086548" height="3.628532648086548" style="fill:#000000" id="svg_190" class=""/><rect x="50.92866849899292" y="65.44279909133911" width="3.628532648086548" height="3.628532648086548" style="fill:#000000" id="svg_191" class=""/><rect x="65.44279909133911" y="65.44279909133911" width="3.628532648086548" height="3.628532648086548" style="fill:#000000" id="svg_192" class=""/><rect x="69.07133173942566" y="65.44279909133911" width="3.628532648086548" height="3.628532648086548" style="fill:#000000" id="svg_193" class=""/><rect x="72.6998643875122" y="65.44279909133911" width="3.628532648086548" height="3.628532648086548" style="fill:#000000" id="svg_194" class=""/><rect x="79.9569296836853" y="65.44279909133911" width="3.628532648086548" height="3.628532648086548" style="fill:#000000" id="svg_195" class=""/><rect x="90.84252762794495" y="65.44279909133911" width="3.628532648086548" height="3.628532648086548" style="fill:#000000" id="svg_196" class=""/><rect x="98.09959292411804" y="65.44279909133911" width="3.628532648086548" height="3.628532648086548" style="fill:#000000" id="svg_197" class=""/><rect x="101.72812557220459" y="65.44279909133911" width="3.628532648086548" height="3.628532648086548" style="fill:#000000" id="svg_198" class=""/><rect x="14.643342018127441" y="69.07133173942566" width="3.628532648086548" height="3.628532648086548" style="fill:#000000" id="svg_199" class=""/><rect x="21.900407314300537" y="69.07133173942566" width="3.628532648086548" height="3.628532648086548" style="fill:#000000" id="svg_200" class=""/><rect x="25.528939962387085" y="69.07133173942566" width="3.628532648086548" height="3.628532648086548" style="fill:#000000" id="svg_201" class=""/><rect x="29.157472610473633" y="69.07133173942566" width="3.628532648086548" height="3.628532648086548" style="fill:#000000" id="svg_202" class=""/><rect x="32.78600525856018" y="69.07133173942566" width="3.628532648086548" height="3.628532648086548" style="fill:#000000" id="svg_203" class=""/><rect x="43.671603202819824" y="69.07133173942566" width="3.628532648086548" height="3.628532648086548" style="fill:#000000" id="svg_204" class=""/><rect x="58.185733795166016" y="69.07133173942566" width="3.628532648086548" height="3.628532648086548" style="fill:#000000" id="svg_205" class=""/><rect x="69.07133173942566" y="69.07133173942566" width="3.628532648086548" height="3.628532648086548" style="fill:#000000" id="svg_206" class=""/><rect x="72.6998643875122" y="69.07133173942566" width="3.628532648086548" height="3.628532648086548" style="fill:#000000" id="svg_207" class=""/><rect x="76.32839703559875" y="69.07133173942566" width="3.628532648086548" height="3.628532648086548" style="fill:#000000" id="svg_208" class=""/><rect x="79.9569296836853" y="69.07133173942566" width="3.628532648086548" height="3.628532648086548" style="fill:#000000" id="svg_209" class=""/><rect x="83.58546233177185" y="69.07133173942566" width="3.628532648086548" height="3.628532648086548" style="fill:#000000" id="svg_210" class=""/><rect x="87.2139949798584" y="69.07133173942566" width="3.628532648086548" height="3.628532648086548" style="fill:#000000" id="svg_211" class=""/><rect x="90.84252762794495" y="69.07133173942566" width="3.628532648086548" height="3.628532648086548" style="fill:#000000" id="svg_212" class=""/><rect x="101.72812557220459" y="69.07133173942566" width="3.628532648086548" height="3.628532648086548" style="fill:#000000" id="svg_213" class=""/><rect x="14.643342018127441" y="72.6998643875122" width="3.628532648086548" height="3.628532648086548" style="fill:#000000" id="svg_214" class=""/><rect x="32.78600525856018" y="72.6998643875122" width="3.628532648086548" height="3.628532648086548" style="fill:#000000" id="svg_215" class=""/><rect x="36.41453790664673" y="72.6998643875122" width="3.628532648086548" height="3.628532648086548" style="fill:#000000" id="svg_216" class=""/><rect x="40.043070554733276" y="72.6998643875122" width="3.628532648086548" height="3.628532648086548" style="fill:#000000" id="svg_217" class=""/><rect x="50.92866849899292" y="72.6998643875122" width="3.628532648086548" height="3.628532648086548" style="fill:#000000" id="svg_218" class=""/><rect x="58.185733795166016" y="72.6998643875122" width="3.628532648086548" height="3.628532648086548" style="fill:#000000" id="svg_219" class=""/><rect x="61.81426644325256" y="72.6998643875122" width="3.628532648086548" height="3.628532648086548" style="fill:#000000" id="svg_220" class=""/><rect x="65.44279909133911" y="72.6998643875122" width="3.628532648086548" height="3.628532648086548" style="fill:#000000" id="svg_221" class=""/><rect x="72.6998643875122" y="72.6998643875122" width="3.628532648086548" height="3.628532648086548" style="fill:#000000" id="svg_222" class=""/><rect x="76.32839703559875" y="72.6998643875122" width="3.628532648086548" height="3.628532648086548" style="fill:#000000" id="svg_223" class=""/><rect x="79.9569296836853" y="72.6998643875122" width="3.628532648086548" height="3.628532648086548" style="fill:#000000" id="svg_224" class=""/><rect x="83.58546233177185" y="72.6998643875122" width="3.628532648086548" height="3.628532648086548" style="fill:#000000" id="svg_225" class=""/><rect x="87.2139949798584" y="72.6998643875122" width="3.628532648086548" height="3.628532648086548" style="fill:#000000" id="svg_226" class=""/><rect x="94.4710602760315" y="72.6998643875122" width="3.628532648086548" height="3.628532648086548" style="fill:#000000" id="svg_227" class=""/><rect x="43.671603202819824" y="76.32839703559875" width="3.628532648086548" height="3.628532648086548" style="fill:#000000" id="svg_228" class=""/><rect x="47.30013585090637" y="76.32839703559875" width="3.628532648086548" height="3.628532648086548" style="fill:#000000" id="svg_229" class=""/><rect x="50.92866849899292" y="76.32839703559875" width="3.628532648086548" height="3.628532648086548" style="fill:#000000" id="svg_230" class=""/><rect x="61.81426644325256" y="76.32839703559875" width="3.628532648086548" height="3.628532648086548" style="fill:#000000" id="svg_231" class=""/><rect x="69.07133173942566" y="76.32839703559875" width="3.628532648086548" height="3.628532648086548" style="fill:#000000" id="svg_232" class=""/><rect x="72.6998643875122" y="76.32839703559875" width="3.628532648086548" height="3.628532648086548" style="fill:#000000" id="svg_233" class=""/><rect x="87.2139949798584" y="76.32839703559875" width="3.628532648086548" height="3.628532648086548" style="fill:#000000" id="svg_234" class=""/><rect x="90.84252762794495" y="76.32839703559875" width="3.628532648086548" height="3.628532648086548" style="fill:#000000" id="svg_235" class=""/><rect x="94.4710602760315" y="76.32839703559875" width="3.628532648086548" height="3.628532648086548" style="fill:#000000" id="svg_236" class=""/><rect x="14.643342018127441" y="79.9569296836853" width="3.628532648086548" height="3.628532648086548" style="fill:#000000" id="svg_237" class=""/><rect x="18.27187466621399" y="79.9569296836853" width="3.628532648086548" height="3.628532648086548" style="fill:#000000" id="svg_238" class=""/><rect x="21.900407314300537" y="79.9569296836853" width="3.628532648086548" height="3.628532648086548" style="fill:#000000" id="svg_239" class=""/><rect x="25.528939962387085" y="79.9569296836853" width="3.628532648086548" height="3.628532648086548" style="fill:#000000" id="svg_240" class=""/><rect x="29.157472610473633" y="79.9569296836853" width="3.628532648086548" height="3.628532648086548" style="fill:#000000" id="svg_241" class=""/><rect x="32.78600525856018" y="79.9569296836853" width="3.628532648086548" height="3.628532648086548" style="fill:#000000" id="svg_242" class=""/><rect x="36.41453790664673" y="79.9569296836853" width="3.628532648086548" height="3.628532648086548" style="fill:#000000" id="svg_243" class=""/><rect x="43.671603202819824" y="79.9569296836853" width="3.628532648086548" height="3.628532648086548" style="fill:#000000" id="svg_244" class=""/><rect x="54.55720114707947" y="79.9569296836853" width="3.628532648086548" height="3.628532648086548" style="fill:#000000" id="svg_245" class=""/><rect x="58.185733795166016" y="79.9569296836853" width="3.628532648086548" height="3.628532648086548" style="fill:#000000" id="svg_246" class=""/><rect x="61.81426644325256" y="79.9569296836853" width="3.628532648086548" height="3.628532648086548" style="fill:#000000" id="svg_247" class=""/><rect x="65.44279909133911" y="79.9569296836853" width="3.628532648086548" height="3.628532648086548" style="fill:#000000" id="svg_248" class=""/><rect x="72.6998643875122" y="79.9569296836853" width="3.628532648086548" height="3.628532648086548" style="fill:#000000" id="svg_249" class=""/><rect x="79.9569296836853" y="79.9569296836853" width="3.628532648086548" height="3.628532648086548" style="fill:#000000" id="svg_250" class=""/><rect x="87.2139949798584" y="79.9569296836853" width="3.628532648086548" height="3.628532648086548" style="fill:#000000" id="svg_251" class=""/><rect x="90.84252762794495" y="79.9569296836853" width="3.628532648086548" height="3.628532648086548" style="fill:#000000" id="svg_252" class=""/><rect x="94.4710602760315" y="79.9569296836853" width="3.628532648086548" height="3.628532648086548" style="fill:#000000" id="svg_253" class=""/><rect x="98.09959292411804" y="79.9569296836853" width="3.628532648086548" height="3.628532648086548" style="fill:#000000" id="svg_254" class=""/><rect x="101.72812557220459" y="79.9569296836853" width="3.628532648086548" height="3.628532648086548" style="fill:#000000" id="svg_255" class=""/><rect x="14.643342018127441" y="83.58546233177185" width="3.628532648086548" height="3.628532648086548" style="fill:#000000" id="svg_256" class=""/><rect x="36.41453790664673" y="83.58546233177185" width="3.628532648086548" height="3.628532648086548" style="fill:#000000" id="svg_257" class=""/><rect x="50.92866849899292" y="83.58546233177185" width="3.628532648086548" height="3.628532648086548" style="fill:#000000" id="svg_258" class=""/><rect x="54.55720114707947" y="83.58546233177185" width="3.628532648086548" height="3.628532648086548" style="fill:#000000" id="svg_259" class=""/><rect x="65.44279909133911" y="83.58546233177185" width="3.628532648086548" height="3.628532648086548" style="fill:#000000" id="svg_260" class=""/><rect x="72.6998643875122" y="83.58546233177185" width="3.628532648086548" height="3.628532648086548" style="fill:#000000" id="svg_261" class=""/><rect x="87.2139949798584" y="83.58546233177185" width="3.628532648086548" height="3.628532648086548" style="fill:#000000" id="svg_262" class=""/><rect x="90.84252762794495" y="83.58546233177185" width="3.628532648086548" height="3.628532648086548" style="fill:#000000" id="svg_263" class=""/><rect x="14.643342018127441" y="87.2139949798584" width="3.628532648086548" height="3.628532648086548" style="fill:#000000" id="svg_264" class=""/><rect x="21.900407314300537" y="87.2139949798584" width="3.628532648086548" height="3.628532648086548" style="fill:#000000" id="svg_265" class=""/><rect x="25.528939962387085" y="87.2139949798584" width="3.628532648086548" height="3.628532648086548" style="fill:#000000" id="svg_266" class=""/><rect x="29.157472610473633" y="87.2139949798584" width="3.628532648086548" height="3.628532648086548" style="fill:#000000" id="svg_267" class=""/><rect x="36.41453790664673" y="87.2139949798584" width="3.628532648086548" height="3.628532648086548" style="fill:#000000" id="svg_268" class=""/><rect x="43.671603202819824" y="87.2139949798584" width="3.628532648086548" height="3.628532648086548" style="fill:#000000" id="svg_269" class=""/><rect x="47.30013585090637" y="87.2139949798584" width="3.628532648086548" height="3.628532648086548" style="fill:#000000" id="svg_270" class=""/><rect x="50.92866849899292" y="87.2139949798584" width="3.628532648086548" height="3.628532648086548" style="fill:#000000" id="svg_271" class=""/><rect x="54.55720114707947" y="87.2139949798584" width="3.628532648086548" height="3.628532648086548" style="fill:#000000" id="svg_272" class=""/><rect x="69.07133173942566" y="87.2139949798584" width="3.628532648086548" height="3.628532648086548" style="fill:#000000" id="svg_273" class=""/><rect x="72.6998643875122" y="87.2139949798584" width="3.628532648086548" height="3.628532648086548" style="fill:#000000" id="svg_274" class=""/><rect x="76.32839703559875" y="87.2139949798584" width="3.628532648086548" height="3.628532648086548" style="fill:#000000" id="svg_275" class=""/><rect x="79.9569296836853" y="87.2139949798584" width="3.628532648086548" height="3.628532648086548" style="fill:#000000" id="svg_276" class=""/><rect x="83.58546233177185" y="87.2139949798584" width="3.628532648086548" height="3.628532648086548" style="fill:#000000" id="svg_277" class=""/><rect x="87.2139949798584" y="87.2139949798584" width="3.628532648086548" height="3.628532648086548" style="fill:#000000" id="svg_278" class=""/><rect x="90.84252762794495" y="87.2139949798584" width="3.628532648086548" height="3.628532648086548" style="fill:#000000" id="svg_279" class=""/><rect x="94.4710602760315" y="87.2139949798584" width="3.628532648086548" height="3.628532648086548" style="fill:#000000" id="svg_280" class=""/><rect x="98.09959292411804" y="87.2139949798584" width="3.628532648086548" height="3.628532648086548" style="fill:#000000" id="svg_281" class=""/><rect x="101.72812557220459" y="87.2139949798584" width="3.628532648086548" height="3.628532648086548" style="fill:#000000" id="svg_282" class=""/><rect x="14.643342018127441" y="90.84252762794495" width="3.628532648086548" height="3.628532648086548" style="fill:#000000" id="svg_283" class=""/><rect x="21.900407314300537" y="90.84252762794495" width="3.628532648086548" height="3.628532648086548" style="fill:#000000" id="svg_284" class=""/><rect x="25.528939962387085" y="90.84252762794495" width="3.628532648086548" height="3.628532648086548" style="fill:#000000" id="svg_285" class=""/><rect x="29.157472610473633" y="90.84252762794495" width="3.628532648086548" height="3.628532648086548" style="fill:#000000" id="svg_286" class=""/><rect x="36.41453790664673" y="90.84252762794495" width="3.628532648086548" height="3.628532648086548" style="fill:#000000" id="svg_287" class=""/><rect x="43.671603202819824" y="90.84252762794495" width="3.628532648086548" height="3.628532648086548" style="fill:#000000" id="svg_288" class=""/><rect x="58.185733795166016" y="90.84252762794495" width="3.628532648086548" height="3.628532648086548" style="fill:#000000" id="svg_289" class=""/><rect x="61.81426644325256" y="90.84252762794495" width="3.628532648086548" height="3.628532648086548" style="fill:#000000" id="svg_290" class=""/><rect x="69.07133173942566" y="90.84252762794495" width="3.628532648086548" height="3.628532648086548" style="fill:#000000" id="svg_291" class=""/><rect x="72.6998643875122" y="90.84252762794495" width="3.628532648086548" height="3.628532648086548" style="fill:#000000" id="svg_292" class=""/><rect x="76.32839703559875" y="90.84252762794495" width="3.628532648086548" height="3.628532648086548" style="fill:#000000" id="svg_293" class=""/><rect x="79.9569296836853" y="90.84252762794495" width="3.628532648086548" height="3.628532648086548" style="fill:#000000" id="svg_294" class=""/><rect x="87.2139949798584" y="90.84252762794495" width="3.628532648086548" height="3.628532648086548" style="fill:#000000" id="svg_295" class=""/><rect x="94.4710602760315" y="90.84252762794495" width="3.628532648086548" height="3.628532648086548" style="fill:#000000" id="svg_296" class=""/><rect x="98.09959292411804" y="90.84252762794495" width="3.628532648086548" height="3.628532648086548" style="fill:#000000" id="svg_297" class=""/><rect x="101.72812557220459" y="90.84252762794495" width="3.628532648086548" height="3.628532648086548" style="fill:#000000" id="svg_298" class=""/><rect x="14.643342018127441" y="94.4710602760315" width="3.628532648086548" height="3.628532648086548" style="fill:#000000" id="svg_299" class=""/><rect x="21.900407314300537" y="94.4710602760315" width="3.628532648086548" height="3.628532648086548" style="fill:#000000" id="svg_300" class=""/><rect x="25.528939962387085" y="94.4710602760315" width="3.628532648086548" height="3.628532648086548" style="fill:#000000" id="svg_301" class=""/><rect x="29.157472610473633" y="94.4710602760315" width="3.628532648086548" height="3.628532648086548" style="fill:#000000" id="svg_302" class=""/><rect x="36.41453790664673" y="94.4710602760315" width="3.628532648086548" height="3.628532648086548" style="fill:#000000" id="svg_303" class=""/><rect x="43.671603202819824" y="94.4710602760315" width="3.628532648086548" height="3.628532648086548" style="fill:#000000" id="svg_304" class=""/><rect x="47.30013585090637" y="94.4710602760315" width="3.628532648086548" height="3.628532648086548" style="fill:#000000" id="svg_305" class=""/><rect x="50.92866849899292" y="94.4710602760315" width="3.628532648086548" height="3.628532648086548" style="fill:#000000" id="svg_306" class=""/><rect x="61.81426644325256" y="94.4710602760315" width="3.628532648086548" height="3.628532648086548" style="fill:#000000" id="svg_307" class=""/><rect x="65.44279909133911" y="94.4710602760315" width="3.628532648086548" height="3.628532648086548" style="fill:#000000" id="svg_308" class=""/><rect x="72.6998643875122" y="94.4710602760315" width="3.628532648086548" height="3.628532648086548" style="fill:#000000" id="svg_309" class=""/><rect x="83.58546233177185" y="94.4710602760315" width="3.628532648086548" height="3.628532648086548" style="fill:#000000" id="svg_310" class=""/><rect x="94.4710602760315" y="94.4710602760315" width="3.628532648086548" height="3.628532648086548" style="fill:#000000" id="svg_311" class=""/><rect x="101.72812557220459" y="94.4710602760315" width="3.628532648086548" height="3.628532648086548" style="fill:#000000" id="svg_312" class=""/><rect x="14.643342018127441" y="98.09959292411804" width="3.628532648086548" height="3.628532648086548" style="fill:#000000" id="svg_313" class=""/><rect x="36.41453790664673" y="98.09959292411804" width="3.628532648086548" height="3.628532648086548" style="fill:#000000" id="svg_314" class=""/><rect x="43.671603202819824" y="98.09959292411804" width="3.628532648086548" height="3.628532648086548" style="fill:#000000" id="svg_315" class=""/><rect x="47.30013585090637" y="98.09959292411804" width="3.628532648086548" height="3.628532648086548" style="fill:#000000" id="svg_316" class=""/><rect x="58.185733795166016" y="98.09959292411804" width="3.628532648086548" height="3.628532648086548" style="fill:#000000" id="svg_317" class=""/><rect x="61.81426644325256" y="98.09959292411804" width="3.628532648086548" height="3.628532648086548" style="fill:#000000" id="svg_318" class=""/><rect x="69.07133173942566" y="98.09959292411804" width="3.628532648086548" height="3.628532648086548" style="fill:#000000" id="svg_319" class=""/><rect x="72.6998643875122" y="98.09959292411804" width="3.628532648086548" height="3.628532648086548" style="fill:#000000" id="svg_320" class=""/><rect x="76.32839703559875" y="98.09959292411804" width="3.628532648086548" height="3.628532648086548" style="fill:#000000" id="svg_321" class=""/><rect x="79.9569296836853" y="98.09959292411804" width="3.628532648086548" height="3.628532648086548" style="fill:#000000" id="svg_322" class=""/><rect x="83.58546233177185" y="98.09959292411804" width="3.628532648086548" height="3.628532648086548" style="fill:#000000" id="svg_323" class=""/><rect x="87.2139949798584" y="98.09959292411804" width="3.628532648086548" height="3.628532648086548" style="fill:#000000" id="svg_324" class=""/><rect x="90.84252762794495" y="98.09959292411804" width="3.628532648086548" height="3.628532648086548" style="fill:#000000" id="svg_325" class=""/><rect x="101.72812557220459" y="98.09959292411804" width="3.628532648086548" height="3.628532648086548" style="fill:#000000" id="svg_326" class=""/><rect x="14.643342018127441" y="101.72812557220459" width="3.628532648086548" height="3.628532648086548" style="fill:#000000" id="svg_327" class=""/><rect x="18.27187466621399" y="101.72812557220459" width="3.628532648086548" height="3.628532648086548" style="fill:#000000" id="svg_328" class=""/><rect x="21.900407314300537" y="101.72812557220459" width="3.628532648086548" height="3.628532648086548" style="fill:#000000" id="svg_329" class=""/><rect x="25.528939962387085" y="101.72812557220459" width="3.628532648086548" height="3.628532648086548" style="fill:#000000" id="svg_330" class=""/><rect x="29.157472610473633" y="101.72812557220459" width="3.628532648086548" height="3.628532648086548" style="fill:#000000" id="svg_331" class=""/><rect x="32.78600525856018" y="101.72812557220459" width="3.628532648086548" height="3.628532648086548" style="fill:#000000" id="svg_332" class=""/><rect x="36.41453790664673" y="101.72812557220459" width="3.628532648086548" height="3.628532648086548" style="fill:#000000" id="svg_333" class=""/><rect x="43.671603202819824" y="101.72812557220459" width="3.628532648086548" height="3.628532648086548" style="fill:#000000" id="svg_334" class=""/><rect x="50.92866849899292" y="101.72812557220459" width="3.628532648086548" height="3.628532648086548" style="fill:#000000" id="svg_335" class=""/><rect x="58.185733795166016" y="101.72812557220459" width="3.628532648086548" height="3.628532648086548" style="fill:#000000" id="svg_336" class=""/><rect x="65.44279909133911" y="101.72812557220459" width="3.628532648086548" height="3.628532648086548" style="fill:#000000" id="svg_337" class=""/><rect x="69.07133173942566" y="101.72812557220459" width="3.628532648086548" height="3.628532648086548" style="fill:#000000" id="svg_338" class=""/><rect x="79.9569296836853" y="101.72812557220459" width="3.628532648086548" height="3.628532648086548" style="fill:#000000" id="svg_339" class=""/><rect x="83.58546233177185" y="101.72812557220459" width="3.628532648086548" height="3.628532648086548" style="fill:#000000" id="svg_340" class=""/><rect x="87.2139949798584" y="101.72812557220459" width="3.628532648086548" height="3.628532648086548" style="fill:#000000" id="svg_341" class=""/><rect x="90.84252762794495" y="101.72812557220459" width="3.628532648086548" height="3.628532648086548" style="fill:#000000" id="svg_342" class=""/><rect x="94.4710602760315" y="101.72812557220459" width="3.628532648086548" height="3.628532648086548" style="fill:#000000" id="svg_343" class=""/><rect x="98.09959292411804" y="101.72812557220459" width="3.628532648086548" height="3.628532648086548" style="fill:#000000" id="svg_344" class=""/><rect x="101.72812557220459" y="101.72812557220459" width="3.628532648086548" height="3.628532648086548" style="fill:#000000" id="svg_345" class=""/></g></g></svg>