<svg xmlns="http://www.w3.org/2000/svg" data-name="圖層 1" width="40" height="40"><rect id="backgroundrect" width="100%" height="100%" x="0" y="0" fill="none" stroke="none" class="" style=""/><defs><style>.cls-1{fill:#dad6b2;}</style></defs><title>插插</title><g class="currentLayer" style=""><title>Layer 1</title><path class="cls-1" d="M26.380002908706672,20.000001685619367 l11.92,-11.92 a3.39,3.39 0 0 0 0,-4.8 L36.700002908706665,1.7200016856193512 a3.39,3.39 0 0 0 -4.8,0 l-11.92,11.92 L8.090002908706651,1.7200016856193512 a3.39,3.39 0 0 0 -4.8,0 L1.7000029087066648,3.2800016856193537 a3.39,3.39 0 0 0 0,4.8 l11.92,11.92 L1.7000029087066648,31.920001685619354 a3.39,3.39 0 0 0 0,4.8 l1.56,1.56 a3.39,3.39 0 0 0 4.8,0 l11.92,-11.92 l11.92,11.92 a3.39,3.39 0 0 0 4.8,0 l1.56,-1.56 a3.39,3.39 0 0 0 0,-4.8 z" id="svg_1"/></g></svg>