<svg xmlns="http://www.w3.org/2000/svg" data-name="圖層 1" width="433" height="378"><rect id="backgroundrect" width="100%" height="100%" x="0" y="0" fill="none" stroke="none" class="" style=""/><defs><style>.cls-1,.cls-3{fill:#942323;}.cls-1,.cls-2,.cls-3{stroke:#fff;stroke-miterlimit:10;}.cls-2{fill:#1e556d;}.cls-3{stroke-width:0.5px;}</style></defs><title>logo</title><g class="currentLayer" style=""><title>Layer 1</title><path class="cls-1" d="M345.9599914550781,33.726699218750014 a14.27,14.27 0 1 1 14.27,-14.27 A14.29,14.29 0 0 1 345.9599914550781,33.726699218750014 zM345.9599914550781,12.86669921875 a6.55,6.55 0 1 0 6.55,6.55 A6.55,6.55 0 0 0 345.9599914550781,12.86669921875 z" id="svg_1"/><path class="cls-1" d="M399.1099914550781,40.65669921874999 H289.80999145507815 a3.8600000000000003,3.8600000000000003 0 1 0 0,7.73 h48.71 l-39.38,74.31 a3.8600000000000003,3.8600000000000003 0 1 0 6.82,3.62 l39.13,-73.84 l43,74 a3.8600000000000003,3.8600000000000003 0 1 0 6.68,-3.88 L351.65999145507817,48.37669921874999 h47.45 a3.8600000000000003,3.8600000000000003 0 1 0 0,-7.73 z" id="svg_2"/><path class="cls-1" d="M9.959991455078125,132.62669921875 a3.8600000000000003,3.8600000000000003 0 0 1 0,-7.73 a4.36,4.36 0 0 0 3.34,-1.59 c5.86,-6.15 7.15,-26.66 6.59,-38.15 a3.8600000000000003,3.8600000000000003 0 1 1 7.72,-0.38000000000000006 c0.17,3.38 1.33,33.32 -8.71,43.86 A12.15,12.15 0 0 1 9.959991455078125,132.62669921875 z" id="svg_3"/><path class="cls-1" d="M120.95999145507812,125.86669921875 c-5.24,0.25 -10,-1.6300000000000001 -14.45,-5.77 c-16.6,-15.35 -24.09,-55.89 -27.39,-84.79 h31.31 a3.8600000000000003,3.8600000000000003 0 1 0 0,-7.73 H78.26999145507813 c-1.34,-13.83 -1.6700000000000002,-23.53 -1.6800000000000002,-23.83 a3.8600000000000003,3.8600000000000003 0 1 0 -7.72,0.23 c0,1.18 0.35000000000000003,10.48 1.59,23.6 h-20.9 a27.85,27.85 0 1 0 0,55.69 c0.12000000000000001,0 0.23,0 0.35000000000000003,0 s0.23,0 0.35000000000000003,0 a20.12,20.12 0 0 1 0,40.24 a3.8600000000000003,3.8600000000000003 0 1 0 0,7.73 a27.85,27.85 0 0 0 0,-55.69 c-0.12000000000000001,0 -0.23,0 -0.35000000000000003,0 s-0.23,0 -0.35000000000000003,0 a20.12,20.12 0 1 1 0,-40.24 h21.7 c3.37,30 11.36,73.24 30,90.46 c5.63,5.21 11.94,7.85 18.77,7.85 c0.43000000000000005,0 0.8600000000000001,0 1.3,0 A3.8600000000000003,3.8600000000000003 0 0 0 120.95999145507812,125.86669921875 z" id="svg_4"/><path class="cls-1" d="M103.39999145507812,83.63669921875001 a13.870000000000001,13.870000000000001 0 1 1 13.870000000000001,-13.870000000000001 A13.88,13.88 0 0 1 103.39999145507812,83.63669921875001 zm0,-20 a6.14,6.14 0 1 0 6.14,6.14 A6.15,6.15 0 0 0 103.39999145507812,63.62669921874999 z" id="svg_5"/><circle class="cls-2" cx="95.78997802734375" cy="18.606704711914062" r="11.380000114440918" id="svg_6"/><path class="cls-1" d="M54.22999145507811,190.21669921875002 A26.37,26.37 0 0 1 27.899991455078123,163.86669921875 a3.8600000000000003,3.8600000000000003 0 1 1 7.73,0 a18.63,18.63 0 0 0 18.61,18.61 a3.8600000000000003,3.8600000000000003 0 1 1 0,7.73 z" id="svg_7"/><path class="cls-1" d="M81.95999145507812,190.73669921875 a3.8600000000000003,3.8600000000000003 0 1 1 0,-7.73 a18.63,18.63 0 0 0 18.61,-18.61 a3.8600000000000003,3.8600000000000003 0 0 1 7.73,0 A26.37,26.37 0 0 1 81.95999145507812,190.73669921875 z" id="svg_8"/><circle class="cls-2" cx="90.75997924804688" cy="227.29669189453125" r="11.380000114440918" id="svg_9"/><path class="cls-1" d="M117.38999145507813,227.06669921875 a27,27 0 1 0 -45.85,19.25 H46.219991455078116 a18.61,18.61 0 1 1 0,-37.23 h15.85 a3.8600000000000003,3.8600000000000003 0 0 0 0,-7.73 H46.219991455078116 a26.34,26.34 0 1 0 0,52.68 h44.6 A26.37,26.37 0 0 0 114.68999145507814,238.86669921875 A26.81,26.81 0 0 0 117.38999145507813,227.06669921875 zm-46.23,0 a19.24,19.24 0 0 1 38.48,-0.54 a3.8200000000000003,3.8200000000000003 0 0 0 -0.2,1.18 A18.5,18.5 0 0 1 107.95999145507812,234.86669921875 a19.24,19.24 0 0 1 -36.83,-7.82 z" id="svg_10"/><path class="cls-1" d="M126.24999145507815,280.92669921875 h-54 V264.69669921875 a3.8600000000000003,3.8600000000000003 0 1 0 -7.73,0 v16.23 H31.34999145507811 a18.63,18.63 0 0 1 -18.61,-18.61 a3.8600000000000003,3.8600000000000003 0 1 0 -7.73,0 a26.37,26.37 0 0 0 26.34,26.34 h33.19 v15.3 a3.8600000000000003,3.8600000000000003 0 1 0 7.73,0 v-15.3 h54 a3.8600000000000003,3.8600000000000003 0 0 0 0,-7.73 z" id="svg_11"/><circle class="cls-2" cx="209.6099853515625" cy="227.06671142578125" r="15.160000801086426" id="svg_12"/><path class="cls-1" d="M241.6099914550781,278.13669921875 H213.14999145507812 V264.71669921875 a37.18,37.18 0 0 0 0.3400000000000001,-74 V179.38669921874998 h49.13 a3.8600000000000003,3.8600000000000003 0 0 0 0,-7.73 H213.4899914550781 V155.12669921875 a3.88,3.88 0 0 0 -7.73,0 V171.66669921875 H171.63999145507813 c-9.75,0 -17.68,-7.28 -17.68,-16.23 a3.8600000000000003,3.8600000000000003 0 1 0 -7.73,0 c0,13.21 11.4,24 25.41,24 H205.75999145507814 v11.34 a37.17,37.17 0 0 0 -0.33000000000000007,73.92 s0,0 0,0 v13.44 H150.0999914550781 a3.8600000000000003,3.8600000000000003 0 0 0 0,7.73 h55.33 v21.79 a3.87,3.87 0 0 0 7.73,0 V285.86669921875 h28.46 c9.65,0 17.81,6.33 17.81,13.82 a3.8600000000000003,3.8600000000000003 0 1 0 7.73,0 C267.1499914550782,287.79669921875 255.68999145507814,278.13669921875 241.6099914550781,278.13669921875 zm-61.76,-50.43 a29.76,29.76 0 1 1 8.72,21 A29.57,29.57 0 0 1 179.8499914550781,227.70669921874997 z" id="svg_13"/><circle class="cls-2" cx="315.0699768066406" cy="233.78671264648438" r="11.380000114440918" id="svg_14"/><path class="cls-1" d="M311.15999145507817,201.16669921875 a16.16,16.16 0 0 1 -11.46,-4.74 a3.8600000000000003,3.8600000000000003 0 0 1 5.46,-5.46 a8.48,8.48 0 1 0 12,-12 a3.8600000000000003,3.8600000000000003 0 0 1 5.46,-5.46 A16.2,16.2 0 0 1 311.15999145507817,201.16669921875 z" id="svg_15"/><path class="cls-1" d="M373.5299914550782,201.16669921875 a16.16,16.16 0 0 1 -11.46,-4.74 a3.8600000000000003,3.8600000000000003 0 0 1 5.46,-5.46 a8.48,8.48 0 1 0 12,-12 a3.8600000000000003,3.8600000000000003 0 1 1 5.46,-5.46 a16.2,16.2 0 0 1 -11.46,27.66 z" id="svg_16"/><path class="cls-1" d="M336.26999145507807,267.96669921875 a3.8600000000000003,3.8600000000000003 0 0 0 -3.8600000000000003,3.8600000000000003 v7 a18.61,18.61 0 1 1 -37.23,0 V253.53669921875002 a27,27 0 1 0 7.49,-43.14 a26.37,26.37 0 0 0 -15.21,23.87 V278.86669921875 a26.34,26.34 0 1 0 52.68,0 v-7 A3.8600000000000003,3.8600000000000003 0 0 0 336.26999145507807,267.96669921875 zm-2.59,-33.3 a19.25,19.25 0 1 1 -27.07,-17.58 a18.5,18.5 0 0 1 7.18,-1.44 a3.83,3.83 0 0 0 1.18,-0.2 A19.26,19.26 0 0 1 333.67999145507815,234.65669921875002 z" id="svg_17"/><path class="cls-1" d="M353.04999145507816,306.93669921875 a3.8600000000000003,3.8600000000000003 0 0 1 -3.8600000000000003,-3.8600000000000003 V235.99669921875 c0,-15.13 11.66,-27.44 26,-27.44 s26,12.31 26,27.44 l-0.06000000000000001,22.14 c0,14.51 -11.19,26.33 -25,26.33 a3.8600000000000003,3.8600000000000003 0 0 1 0,-7.73 c9.5,0 17.23,-8.35 17.23,-18.61 l0.06000000000000001,-22.14 c0,-10.86 -8.19,-19.71 -18.26,-19.71 S356.9599914550781,225.12669921875 356.9599914550781,235.99669921875 v67.08 A3.8600000000000003,3.8600000000000003 0 0 1 353.04999145507816,306.93669921875 z" id="svg_18"/><path class="cls-1" d="M175.05999145507815,120.72669921875001 c-12.44,2.24 -24.65,-7.53 -27.21,-21.78 s5.48,-27.66 17.92,-29.89 c9.27,-1.6700000000000002 18.64,3.22 23.87,12.45 a2.68,2.68 0 0 1 -0.6300000000000001,3.47 a2.13,2.13 0 0 1 -3.09,-0.8800000000000001 c-4.21,-7.44 -11.77,-11.38 -19.25,-10 c-10,1.8 -16.52,12.620000000000001 -14.45,24.11 s11.91,19.37 21.95,17.56 c7.62,-1.37 13.51,-8.11 14.64,-16.78 a2.15,2.15 0 0 1 2.5300000000000002,-2 a2.66,2.66 0 0 1 1.8800000000000001,3 C191.80999145507815,110.66669921875001 184.50999145507814,119.02669921875 175.05999145507815,120.72669921875001 z" id="svg_19"/><path class="cls-1" d="M251.18999145507814,107.03669921874999 c-12.44,2.24 -24.65,-7.53 -27.22,-21.78 a29.11,29.11 0 0 1 0.30000000000000004,-12 a2.1,2.1 0 0 1 2.73,-1.6400000000000001 a2.72,2.72 0 0 1 1.58,3.18 a23.48,23.48 0 0 0 -0.24000000000000002,9.65 c2.07,11.49 11.91,19.37 21.95,17.56 s16.52,-12.620000000000001 14.45,-24.11 a23.46,23.46 0 0 0 -3.59,-9 a2.72,2.72 0 0 1 0.37000000000000005,-3.5300000000000002 a2.1,2.1 0 0 1 3.13,0.5900000000000001 a29.11,29.11 0 0 1 4.46,11.13 C271.67999145507815,91.38669921875001 263.6399914550781,104.79669921875 251.18999145507814,107.03669921874999 z" id="svg_20"/><path class="cls-2" d="M248.52999145507812,80.06669921874999 l-26.92,-21.54 l6.58,-11 a2.81,2.81 0 0 0 -0.6400000000000001,-3.54 a2,2 0 0 0 -3.09,0.56 l-22.27,37.15 l-5.06,-28.13 a2.5700000000000003,2.5700000000000003 0 0 0 -1.7600000000000002,-2.07 a2,2 0 0 0 -2.2800000000000002,1 l-24.53,40.92 a2.81,2.81 0 0 0 0.6400000000000001,3.54 a2,2 0 0 0 3.09,-0.56 l21.57,-36 l5.06,28.13 h0 l1.09,6.07 l-4.16,0.7500000000000001 a2.56,2.56 0 0 0 0.9,5 l6.34,-1.1400000000000001 l6.63,-1.19 a2.56,2.56 0 0 0 -0.9,-5 l-4.45,0.8 l-0.91,-5 l15.69,-26.17 l26.92,21.54 a2,2 0 0 0 3.09,-0.56 A2.81,2.81 0 0 0 248.52999145507812,80.06669921874999 z" id="svg_21"/><path class="cls-1" d="M198.11999145507815,48.36669921875 L184.39999145507812,50.86669921875 a3.66,3.66 0 0 1 -1.28,-7.14 l13.73,-2.47 a3.66,3.66 0 0 1 1.28,7.14 z" id="svg_22"/><path class="cls-2" d="M245.18999145507814,55.14669921875 l-14.77,2.66 a2.56,2.56 0 0 1 -0.9,-5 l14.77,-2.66 a2.56,2.56 0 0 1 0.9,5 z" id="svg_23"/><path class="cls-3" d="M19.399991455078123,377.58669921875 h-4 l-11.06,-17 a10.48,10.48 0 0 1 -0.9,-1.6300000000000001 h-0.09000000000000002 a27.35,27.35 0 0 1 0.13,3.37 v15.29 h-3.48 V354.47669921875 h4.24 L14.959991455078125,371.18669921875 q0.7600000000000001,1.19 1,1.6600000000000001 h0.07 a24.22,24.22 0 0 1 -0.16000000000000003,-3.31 V354.47669921875 h3.49 z" id="svg_24"/><path class="cls-3" d="M48.8599914550781,376.67669921875 a14.26,14.26 0 0 1 -6.46,1.3 a10.61,10.61 0 0 1 -8,-3.15 a11.54,11.54 0 0 1 -3,-8.33 a12.35,12.35 0 0 1 3.35,-8.9 a11.41,11.41 0 0 1 8.63,-3.5 a14.39,14.39 0 0 1 5.54,0.93 v3.63 a10.870000000000001,10.870000000000001 0 0 0 -5.42,-1.37 a7.83,7.83 0 0 0 -6.06,2.48 a9.23,9.23 0 0 0 -2.2800000000000002,6.5 a8.92,8.92 0 0 0 2.14,6.21 A7.35,7.35 0 0 0 42.959991455078125,374.86669921875 a11.13,11.13 0 0 0 5.88,-1.54 z" id="svg_25"/><path class="cls-3" d="M78.12999145507814,377.58669921875 h-4.76 l-8.15,-10.39 a4.25,4.25 0 0 1 -0.6100000000000001,-1 h-0.07 v11.36 H60.959991455078125 V354.47669921875 h3.58 V365.36669921875 h0.07 a6.34,6.34 0 0 1 0.6300000000000001,-1 l7.83,-9.92 h4.36 l-9.25,11.07 z" id="svg_26"/><path class="cls-3" d="M106.13999145507813,368.00669921875 q0,10 -9.12,10 q-8.75,0 -8.74,-9.64 V354.47669921875 h3.58 v13.77 q0,6.58 5.43,6.58 q5.27,0 5.27,-6.36 v-14 h3.58 z" id="svg_27"/><path class="cls-3" d="M132.88999145507813,377.58669921875 V354.47669921875 h7.22 a8.28,8.28 0 0 1 5.15,1.45 a4.65,4.65 0 0 1 1.8900000000000001,3.89 a5.25,5.25 0 0 1 -1.15,3.36 a6,6 0 0 1 -3,2 v0.06000000000000001 a6,6 0 0 1 3.8,1.78 a5.3100000000000005,5.3100000000000005 0 0 1 1.44,3.8200000000000003 a6.12,6.12 0 0 1 -2.16,4.87 a8.41,8.41 0 0 1 -5.69,1.86 zm3.58,-20.17 v6.76 h2.6 a4.7,4.7 0 0 0 3.18,-1 a3.39,3.39 0 0 0 1.13,-2.7 q0,-3.07 -4.21,-3.07 zm0,9.71 v7.52 h3.37 a5.15,5.15 0 0 0 3.4,-1 a3.48,3.48 0 0 0 1.21,-2.8200000000000003 q0,-3.6900000000000004 -5,-3.6900000000000004 z" id="svg_28"/><path class="cls-3" d="M165.95999145507812,357.39669921875 h-2.15 V374.66669921875 H165.95999145507812 v2.92 h-7.86 V374.66669921875 h2.13 V357.39669921875 h-2.13 v-2.92 H165.95999145507812 z" id="svg_29"/><path class="cls-3" d="M194.4099914550781,377.58669921875 h-4.76 l-8.15,-10.39 a4.25,4.25 0 0 1 -0.6100000000000001,-1 h-0.07 v11.36 h-3.58 V354.47669921875 h3.58 V365.36669921875 h0.07 a6.34,6.34 0 0 1 0.6300000000000001,-1 l7.83,-9.92 h4.36 l-9.25,11.07 z" id="svg_30"/><path class="cls-3" d="M217.62999145507814,377.58669921875 h-12.8 V354.47669921875 h12.28 v3.07 h-8.7 v6.8 h8.07 v3.06 h-8.07 v7.1 h9.22 z" id="svg_31"/><path class="cls-3" d="M257.0299914550782,357.54669921875 h-8.71 v7.18 h8 v3.06 h-8 v9.8 h-3.58 V354.47669921875 h12.3 z" id="svg_32"/><path class="cls-3" d="M281.66999145507816,377.58669921875 H268.8599914550781 V354.47669921875 h12.28 v3.07 h-8.7 v6.8 h8.07 v3.06 h-8.07 v7.1 h9.22 z" id="svg_33"/><path class="cls-3" d="M292.43999145507814,372.79669921875 a9.59,9.59 0 0 0 6.25,2.16 q4.59,0 4.6,-3.15 a2.81,2.81 0 0 0 -0.51,-1.6400000000000001 a4.69,4.69 0 0 0 -1.37,-1.28 a38.09,38.09 0 0 0 -3.39,-1.75 a12.57,12.57 0 0 1 -4.36,-3 a5.59,5.59 0 0 1 -1.24,-3.6100000000000003 a5.5,5.5 0 0 1 2.36,-4.7 a10,10 0 0 1 6,-1.7200000000000002 a12.61,12.61 0 0 1 5.25,0.8500000000000001 v3.67 a9.14,9.14 0 0 0 -5.33,-1.48 a5.94,5.94 0 0 0 -3.3,0.8200000000000001 a2.56,2.56 0 0 0 -1.25,2.25 a2.75,2.75 0 0 0 0.92,2.13 a17.91,17.91 0 0 0 3.87,2.24 a13.58,13.58 0 0 1 4.76,3.23 a5.74,5.74 0 0 1 1.31,3.72 a5.57,5.57 0 0 1 -2.27,4.79 a10.47,10.47 0 0 1 -6.28,1.6600000000000001 a17,17 0 0 1 -3.2800000000000002,-0.36000000000000004 a8.56,8.56 0 0 1 -2.7800000000000002,-1 z" id="svg_34"/><path class="cls-3" d="M333.57999145507813,357.54669921875 H326.9599914550781 v20 h-3.6 v-20 h-6.63 v-3.07 h16.86 z" id="svg_35"/><path class="cls-3" d="M350.3799914550781,357.39669921875 h-2.15 V374.66669921875 h2.15 v2.92 h-7.86 V374.66669921875 h2.13 V357.39669921875 h-2.13 v-2.92 h7.86 z" id="svg_36"/><path class="cls-3" d="M379.56999145507814,354.47669921875 l-8.34,23.11 h-4 l-8.21,-23.11 H362.9599914550781 l5.85,17.53 a10.32,10.32 0 0 1 0.46,2.15 h0.07 a9.8,9.8 0 0 1 0.52,-2.18 l5.92,-17.5 z" id="svg_37"/><path class="cls-3" d="M409.0899914550781,377.58669921875 h-3.94 l-2.16,-6 h-9.25 l-2.06,6 h-3.94 l8.71,-23.11 h4 zm-7.1,-9 l-3.22,-9.12 a10,10 0 0 1 -0.36000000000000004,-1.75 h-0.1 a8.71,8.71 0 0 1 -0.37000000000000005,1.7200000000000002 l-3.21,9.15 z" id="svg_38"/><path class="cls-3" d="M432.55999145507815,377.58669921875 H419.9599914550781 V354.47669921875 h3.58 v20 h9 z" id="svg_39"/></g></svg>