<svg xmlns="http://www.w3.org/2000/svg" data-name="圖層 1" width="50" height="220" style=""><rect id="backgroundrect" width="100%" height="100%" x="0" y="0" fill="none" stroke="none" class="" style=""/><defs><style>.cls-1{fill:#942323;stroke-width:0.75px;}.cls-1,.cls-3{stroke:#942323;}.cls-1,.cls-2,.cls-3{stroke-miterlimit:10;}.cls-2,.cls-3{fill:none;}.cls-2{stroke:#1e556d;stroke-width:3px;}.cls-3{stroke-linecap:round;stroke-width:2px;}</style></defs><title>網站</title><g class="currentLayer" style=""><title>Layer 1</title><g class=""><path class="cls-1" d="M28.210971100621208,40.16589121121331 a40.5,40.5 0 0 1 -5.4,9.38 l-1.12,-1.05 A34.32,34.32 0 0 0 26.99097110062121,39.28589121121331 zm-0.5900000000000004,-3.94 l-0.92,1.18 a23.17,23.17 0 0 0 -5,-3.81 l0.9,-1.23 A28.69,28.69 0 0 1 27.620971100621205,36.22589121121331 zm0.5900000000000004,-7.3100000000000005 l-0.8600000000000004,1.18 a28.2,28.2 0 0 0 -4.94,-4 l1,-1.15 A26,26 0 0 1 28.210971100621208,28.915891211213307 zm18,5.48 h-8.29 v4.77 h6.44 v10.35 h-1.45 v-2 H31.49097110062121 v2 h-1.45 V39.16589121121331 h6.44 v-4.77 h-8.35 v-1.37 h8.35 V28.185891211213317 a63,63 0 0 1 -7,0.3300000000000003 l-0.6200000000000004,-1.3900000000000001 a49.29,49.29 0 0 0 15.18,-2 l0.78,1.26 a35.91,35.91 0 0 1 -7,1.53 v5.07 h8.29 zm-3.29,11.74 V40.58589121121332 H31.49097110062121 v5.55 z" id="svg_1"/><path class="cls-1" d="M35.21097110062121,61.28589121121331 a34.32,34.32 0 0 1 -5.65,1 v2.19 h5.5600000000000005 v1.34 h-5.5600000000000005 v2.05 h5.11 v8.15 h-5.11 v2 h5.11 v1.33 h-5.11 v2.8200000000000003 q2.45,-0.2100000000000001 5.11,-0.6400000000000005 v1.3800000000000001 q-7.53,1 -12.73,1.53 l-0.34000000000000036,-1.42 q3.06,-0.23 6.58,-0.6400000000000005 v-3 H22.99097110062121 v-1.33 h5.18 v-2 h-5.14 V67.8858912112133 h5.14 v-2.05 h-6.12 v-1.34 h6.13 v-2 q-2.3200000000000003,0.1900000000000001 -5.18,0.1900000000000001 l-0.46,-1.29 a46.52,46.52 0 0 0 11.92,-1.31 zm-7,9.94 V69.28589121121331 h-3.72 v1.94 zm0,3.47 v-2.13 h-3.72 v2.13 zm5.1,-3.47 V69.28589121121331 h-3.72 v1.94 zm0,3.47 v-2.13 h-3.72 v2.13 zm11.59,-9.08 q0,6.19 -0.2,11.25 a36.8,36.8 0 0 1 -0.4800000000000002,5.91 a2.37,2.37 0 0 1 -1,1.32 a5.73,5.73 0 0 1 -2.77,0.46 c-0.3700000000000002,0 -0.7100000000000004,0 -1,0 l-0.4800000000000002,-1.45 q1.56,0.05000000000000004 2.71,0.05000000000000004 a1.36,1.36 0 0 0 1,-0.4 a1.82,1.82 0 0 0 0.4800000000000002,-1.26 l0.26,-5.39 q0.1900000000000001,-4.52 0.1900000000000001,-9.06 h-2.94 q-0.11000000000000006,10.32 -4.27,17.71 l-1.26,-0.6200000000000004 q4,-6.77 4.14,-17.09 l-3,0 v-1.3900000000000001 l3,0 l0.1,-5.48 h1.3900000000000001 q-0.05000000000000004,3.42 -0.14,5.48 z" id="svg_2"/><path class="cls-1" d="M27.460971100621208,95.28589121121331 l-1.31,4.51 v19.78 h-1.46 v-16 a33.7,33.7 0 0 1 -2.41,4.57 l-0.8600000000000004,-1.44 a42.17,42.17 0 0 0 4.65,-11.79 zm10.72,20.86 a83.54,83.54 0 0 1 -10.61,2.94 l-0.3000000000000002,-1.46 a31,31 0 0 0 4.65,-1 v-5.93 h-4 V109.28589121121331 h4 v-4 l-3.81,0.6200000000000004 l-0.27,-1.31 a35.86,35.86 0 0 0 4.12,-7.21 h-3.6100000000000003 v-1.34 h9.54 v1.34 h-4.3100000000000005 a58,58 0 0 1 -3.6500000000000004,6.8100000000000005 q1.23,-0.1500000000000001 5.44,-1 a16.84,16.84 0 0 0 -1.4100000000000001,-2.54 l1.26,-0.5900000000000004 a25.86,25.86 0 0 1 2.88,5.8 l-1.26,0.6400000000000005 a12.79,12.79 0 0 0 -0.8600000000000004,-2.06 l-2.6100000000000003,0.55 V109.28589121121331 h3.87 v1.37 h-3.87 v5.52 q2.52,-0.6800000000000007 4.7,-1.49 zm7.1,1.18 a2.08,2.08 0 0 1 -0.7000000000000004,1.83 a6.8900000000000015,6.8900000000000015 0 0 1 -3.27,0.4800000000000002 q-1.07,0 -2.2800000000000002,-0.08000000000000006 l-0.51,-1.53 q2.17,0.16000000000000014 3.58,0.16000000000000014 a3.47,3.47 0 0 0 1.49,-0.1800000000000001 a0.8,0.8 0 0 0 0.25,-0.6800000000000007 V95.1658912112133 h1.44 zM40.99097110062121,113.89589121121332 h-1.45 V97.06589121121331 H40.99097110062121 z" id="svg_3"/><path class="cls-1" d="M36.72097110062121,135.8558912112133 h-1.9 v3.2 H29.99097110062121 v1.6500000000000008 h4.85 v4.29 h-4.92 a23,23 0 0 1 -1.44,2.09 h3.42 a4.49,4.49 0 0 0 0.4100000000000002,-1 l1.3900000000000001,0.34000000000000036 a2.49,2.49 0 0 1 -0.1900000000000001,0.6600000000000007 h3 V148.2858912112133 h-3.54 a9.53,9.53 0 0 1 -2.54,3.14 q2.39,1.08 4,2 l-0.92,1 a40.15,40.15 0 0 0 -4.39,-2.12 a16.57,16.57 0 0 1 -6.66,2.12 l-0.52,-1.33 a17.55,17.55 0 0 0 5.55,-1.46 a39.68,39.68 0 0 0 -3.73,-1.3800000000000001 q0.7400000000000004,-0.78 1.8,-2 H21.690971100621212 V147.08589121121332 h4.95 q0.8600000000000004,-1.09 1.52,-2.09 h-4.48 v-4.29 h4.92 v-1.6500000000000008 h-4.92 v-3.2 h-2 v-1.3 h2 v-3 h4.92 V130.08589121121332 H29.99097110062121 v1.52 h4.84 v3 h1.9 zm-8.12,-1.3 v-1.7400000000000002 h-3.5300000000000002 v1.7400000000000002 zm0,3.23 v-1.9300000000000002 h-3.5300000000000002 v1.9300000000000002 zm0,5.95 v-1.75 h-3.51 v1.75 zm2.63,4.61 h-3.77 q-0.3100000000000002,0.4100000000000002 -1.23,1.49 q1.2,0.3700000000000002 2.67,1 A7.3100000000000005,7.3100000000000005 0 0 0 31.220971100621213,148.2858912112133 zm2.21,-13.78 v-1.7400000000000002 H29.99097110062121 v1.7400000000000002 zm0,3.23 v-1.9300000000000002 H29.99097110062121 v1.9300000000000002 zm0,5.95 v-1.75 H29.99097110062121 v1.75 zm12.63,-7.79 h-1.29 q-0.2900000000000002,8.76 -3,13.54 a15.93,15.93 0 0 0 4.18,4 l-0.8200000000000004,1.15 a14.71,14.71 0 0 1 -4.3100000000000005,-4 a21.8,21.8 0 0 1 -4.8,4 l-0.8500000000000004,-1.15 a21.1,21.1 0 0 0 4.8100000000000005,-4 a22.32,22.32 0 0 1 -2.34,-7.85 l1.31,-0.45 a23.54,23.54 0 0 0 2,6.95 a17.45,17.45 0 0 0 1.86,-5.76 a55.61,55.61 0 0 0 0.5700000000000004,-6.4 h-3.81 a21.36,21.36 0 0 1 -3,5.52 l-1.11,-0.8200000000000004 q2.6900000000000004,-3.5 4.3100000000000005,-10.66 l1.35,0.25 a33.48,33.48 0 0 1 -1.08,4.33 h6 z" id="svg_4"/><path class="cls-2" d="M17.360971100621214,48.43589121121332 A20.06,20.06 0 1 1 41.140971100621215,19.28589121121331 " id="svg_5"/><line class="cls-3" x1="33.88097049026965" y1="166.60589853543206" x2="33.88097049026965" y2="210.60589853543206" id="svg_6"/></g></g></svg>