<svg xmlns="http://www.w3.org/2000/svg" data-name="圖層 1" width="265" height="215"><rect id="backgroundrect" width="100%" height="100%" x="0" y="0" fill="none" stroke="none"/><defs><style>.cls-1,.cls-3{fill:#942323;}.cls-2{fill:#1e556d;}.cls-3{stroke:#942323;stroke-miterlimit:10;}</style></defs><title>網站</title><g class="currentLayer" style=""><title>Layer 1</title><path class="cls-1" d="M46.17207122802735,214.95000106811523 a3.3200000000000003,3.3200000000000003 0 0 1 -1.29,-6.37 a8.28,8.28 0 0 0 5.07,-7.640000000000001 a3.3200000000000003,3.3200000000000003 0 0 1 6.63,0 A14.91,14.91 0 0 1 47.412071228027344,214.69000106811524 A3.33,3.33 0 0 1 46.17207122802735,214.95000106811523 z" id="svg_1"/><path class="cls-1" d="M108.71207122802736,139.94000106811524 a3.3200000000000003,3.3200000000000003 0 0 1 -3.3200000000000003,-3.3200000000000003 a16.5,16.5 0 0 0 -16.45,-16.51 H5.502071228027347 a3.3200000000000003,3.3200000000000003 0 1 1 0,-6.63 h83.44 a23.14,23.14 0 0 1 23.08,23.15 A3.3200000000000003,3.3200000000000003 0 0 1 108.71207122802736,139.94000106811524 z" id="svg_2"/><circle class="cls-2" cx="53.602073669433594" cy="150.95000839233398" r="10.369999885559082" id="svg_3"/><path class="cls-1" d="M53.96207122802734,174.66000106811524 a3.3200000000000003,3.3200000000000003 0 1 1 0,-6.63 a17.89,17.89 0 1 0 -14,-29 A3.3200000000000003,3.3200000000000003 0 1 1 34.77207122802734,134.88000106811523 a24.52,24.52 0 1 1 19.19,39.8 z" id="svg_4"/><path class="cls-1" d="M54.85207122802734,117.80000106811522 a3.3200000000000003,3.3200000000000003 0 0 1 -3.3200000000000003,-3.3200000000000003 V86.62000106811523 a3.3200000000000003,3.3200000000000003 0 0 1 6.63,0 V114.48000106811523 A3.3200000000000003,3.3200000000000003 0 0 1 54.85207122802734,117.80000106811522 z" id="svg_5"/><path class="cls-1" d="M108.41207122802734,186.83000106811522 H3.502071228027347 a3.3200000000000003,3.3200000000000003 0 1 1 0,-6.63 H108.41207122802734 a3.3200000000000003,3.3200000000000003 0 1 1 0,6.63 z" id="svg_6"/><path class="cls-1" d="M53.28207122802735,203.35000106811523 a3.3200000000000003,3.3200000000000003 0 0 1 -3.3200000000000003,-3.3200000000000003 v-29 a3.3200000000000003,3.3200000000000003 0 0 1 6.63,0 v29 A3.3200000000000003,3.3200000000000003 0 0 1 53.28207122802735,203.35000106811523 z" id="svg_7"/><path class="cls-1" d="M34.92207122802735,109.97000106811524 c-12.63,0 -22.91,-9.56 -22.91,-21.3 a3.3200000000000003,3.3200000000000003 0 1 1 6.63,0 c0,8.09 7.3,14.67 16.27,14.67 a3.3200000000000003,3.3200000000000003 0 1 1 0,6.63 z" id="svg_8"/><path class="cls-1" d="M73.82207122802734,109.97000106811524 a3.3200000000000003,3.3200000000000003 0 1 1 0,-6.63 c9,0 16.27,-6.58 16.27,-14.67 a3.3200000000000003,3.3200000000000003 0 1 1 6.63,0 C96.73207122802734,100.41000106811524 86.41207122802734,109.97000106811524 73.82207122802734,109.97000106811524 z" id="svg_9"/><circle class="cls-2" cx="198.90206146240234" cy="118.57000350952148" r="7.140000343322754" id="svg_10"/><path class="cls-1" d="M199.03207122802735,177.28000106811524 a21.74,21.74 0 0 1 -21.72,-21.71 v-13 a3.3200000000000003,3.3200000000000003 0 1 1 6.63,0 v13 a15.08,15.08 0 0 0 30.16,0 V119.05000106811522 a15.1,15.1 0 0 0 -15.08,-15.08 a3.3200000000000003,3.3200000000000003 0 0 1 0,-6.63 a21.74,21.74 0 0 1 21.72,21.71 v36.51 A21.74,21.74 0 0 1 199.03207122802735,177.28000106811524 z" id="svg_11"/><path class="cls-1" d="M198.51207122802737,141.62000106811524 a22.24,22.24 0 1 1 22.24,-22.24 A22.26,22.26 0 0 1 198.51207122802737,141.62000106811524 zm0,-37.84 a15.6,15.6 0 1 0 15.6,15.6 A15.620000000000001,15.620000000000001 0 0 0 198.51207122802737,103.78000106811524 z" id="svg_12"/><path class="cls-1" d="M240.87207122802732,175.01000106811523 a3.3200000000000003,3.3200000000000003 0 0 1 -3.3200000000000003,-3.3200000000000003 V127.05000106811522 a3.3200000000000003,3.3200000000000003 0 1 1 6.63,0 v44.64 A3.3200000000000003,3.3200000000000003 0 0 1 240.87207122802732,175.01000106811523 z" id="svg_13"/><path class="cls-1" d="M164.52207122802736,121.88000106811523 a22,22 0 0 1 -22,-22 a3.3200000000000003,3.3200000000000003 0 1 1 6.63,0 a15.4,15.4 0 0 0 15.39,15.39 a3.3200000000000003,3.3200000000000003 0 1 1 0,6.63 z" id="svg_14"/><path class="cls-1" d="M164.52207122802736,149.97000106811524 a22,22 0 0 1 -22,-22 a3.3200000000000003,3.3200000000000003 0 0 1 6.63,0 a15.4,15.4 0 0 0 15.39,15.39 a3.3200000000000003,3.3200000000000003 0 0 1 0,6.63 z" id="svg_15"/><path class="cls-1" d="M145.82207122802734,206.72000106811524 a3.3200000000000003,3.3200000000000003 0 0 1 -3.3200000000000003,-3.3200000000000003 c0,-26.58 9.47,-46.63 22,-46.63 a3.3200000000000003,3.3200000000000003 0 0 1 0,6.63 c-7.28,0 -15.39,16.43 -15.39,40 A3.3200000000000003,3.3200000000000003 0 0 1 145.82207122802734,206.72000106811524 z" id="svg_16"/><path class="cls-1" d="M224.80207122802733,204.88000106811523 A20.43,20.43 0 0 1 204.41207122802734,184.48000106811523 a3.3200000000000003,3.3200000000000003 0 1 1 6.63,0 a13.79,13.79 0 0 0 13.77,13.77 a3.3200000000000003,3.3200000000000003 0 1 1 0,6.63 z" id="svg_17"/><path class="cls-1" d="M174.22207122802735,204.88000106811523 a3.3200000000000003,3.3200000000000003 0 0 1 0,-6.63 a13.79,13.79 0 0 0 13.77,-13.77 a3.3200000000000003,3.3200000000000003 0 1 1 6.63,0 A20.43,20.43 0 0 1 174.22207122802735,204.88000106811523 z" id="svg_18"/><path class="cls-1" d="M241.49207122802733,206.67000106811523 a3.3200000000000003,3.3200000000000003 0 0 1 0,-6.63 A16.18,16.18 0 0 0 257.65207122802735,183.88000106811523 V101.63000106811523 a3.3200000000000003,3.3200000000000003 0 0 1 6.63,0 V183.88000106811523 A22.82,22.82 0 0 1 241.49207122802733,206.67000106811523 z" id="svg_19"/><circle class="cls-2" cx="170.2720718383789" cy="14.860000610351562" r="4.900000095367432" id="svg_20"/><path class="cls-3" d="M170.12207122802735,26.210001068115233 a11.46,11.46 0 1 1 8.08,-19.58 a1.5,1.5 0 1 1 -2.12,2.13 a8.45,8.45 0 1 0 0.41000000000000003,11.55 a1.5,1.5 0 1 1 2.26,2 A11.46,11.46 0 0 1 170.12207122802735,26.210001068115233 z" id="svg_21"/><path class="cls-3" d="M178.97207122802735,37.660001068115236 h-19 a1.5,1.5 0 1 1 0,-3 h19 a1.5,1.5 0 1 1 0,3 z" id="svg_22"/><path class="cls-3" d="M150.41207122802734,54.240001068115234 a1.5,1.5 0 0 1 -1.5,-1.5 V15.680001068115232 a1.5,1.5 0 1 1 3,0 V52.740001068115234 A1.5,1.5 0 0 1 150.41207122802734,54.240001068115234 z" id="svg_23"/><path class="cls-3" d="M139.77207122802736,21.210001068115233 a1.5,1.5 0 1 1 0,-3 c7.23,0 13.12,-6.39 13.12,-14.25 a1.5,1.5 0 1 1 3,0 C155.89207122802733,13.470001068115238 148.66207122802734,21.210001068115233 139.77207122802736,21.210001068115233 z" id="svg_24"/><path class="cls-3" d="M186.41207122802734,39.14000106811523 a1.5,1.5 0 0 1 -1.5,-1.5 V17.43000106811523 a1.5,1.5 0 0 1 3,0 V37.630001068115234 A1.5,1.5 0 0 1 186.41207122802734,39.14000106811523 z" id="svg_25"/><path class="cls-3" d="M186.74207122802736,53.47000106811524 a1.5,1.5 0 0 1 0,-3 a7.32,7.32 0 0 0 7.32,-7.32 V5.880001068115234 a1.5,1.5 0 1 1 3,0 V43.15000106811524 A10.33,10.33 0 0 1 186.74207122802736,53.47000106811524 z" id="svg_26"/><path class="cls-3" d="M169.92207122802733,52.04000106811523 a1.5,1.5 0 0 1 -1.5,-1.5 V30.18000106811523 a1.5,1.5 0 1 1 3,0 V50.54000106811523 A1.5,1.5 0 0 1 169.92207122802733,52.04000106811523 z" id="svg_27"/><path class="cls-3" d="M172.13207122802734,52.880001068115234 h-13 a1.5,1.5 0 1 1 0,-3 h13 c3.5300000000000002,0 6.41,-2.55 6.41,-5.69 a1.5,1.5 0 1 1 3,0 C181.54207122802734,48.93000106811523 177.32207122802734,52.880001068115234 172.13207122802734,52.880001068115234 z" id="svg_28"/><circle class="cls-2" cx="226.64208221435547" cy="10.810001373291016" r="4.539999961853027" id="svg_29"/><path class="cls-3" d="M226.51207122802737,21.440001068115237 a10.72,10.72 0 1 1 10.72,-10.72 A10.74,10.74 0 0 1 226.51207122802737,21.440001068115237 zm0,-18.44 a7.72,7.72 0 1 0 7.72,7.72 A7.73,7.73 0 0 0 226.51207122802737,3.0000010681152354 z" id="svg_30"/><path class="cls-3" d="M231.56207122802732,38.01000106811524 H220.79207122802734 a6.84,6.84 0 0 1 -6.93,-6.73 a1.5,1.5 0 1 1 3,0 a3.84,3.84 0 0 0 3.93,3.73 h10.77 a3.73,3.73 0 1 0 0,-7.46 h-1.7000000000000002 a1.5,1.5 0 1 1 0,-3 h1.7000000000000002 a6.73,6.73 0 1 1 0,13.46 z" id="svg_31"/><path class="cls-3" d="M241.64207122802736,20.480001068115236 a1.5,1.5 0 1 1 0,-3 c4,0 7.37,-6.72 7.37,-14.67 a1.5,1.5 0 0 1 3,0 C252.01207122802737,12.720001068115234 247.41207122802734,20.480001068115236 241.64207122802736,20.480001068115236 z" id="svg_32"/><path class="cls-3" d="M236.26207122802737,54.23000106811523 h0 c-14.61,-0.24000000000000002 -14.92,-10.45 -14.92,-10.55 V24.440001068115237 a1.5,1.5 0 0 1 3,0 V43.660001068115236 c0,0.27 0.36000000000000004,7.38 12,7.57 a1.5,1.5 0 0 1 0,3 z" id="svg_33"/><path class="cls-3" d="M217.63207122802737,54.23000106811523 a1.5,1.5 0 0 1 0,-3 c4.58,0 7.86,-1.13 9.77,-3.34 a8.8,8.8 0 0 0 1.82,-6.44 a1.5,1.5 0 0 1 3,-0.48000000000000004 a11.73,11.73 0 0 1 -2.48,8.84 C227.21207122802736,52.740001068115234 223.14207122802736,54.23000106811523 217.63207122802737,54.23000106811523 z" id="svg_34"/><path class="cls-3" d="M263.67207122802733,12.800001068115236 H249.32207122802737 a1.5,1.5 0 1 1 0,-3 h14.35 a1.5,1.5 0 1 1 0,3 z" id="svg_35"/><path class="cls-3" d="M244.47207122802735,54.64000106811524 a1.5,1.5 0 0 1 -0.35000000000000003,-3 c13.7,-3.34 14.2,-17.91 14.22,-18.53 V16.750001068115232 a1.5,1.5 0 1 1 3,0 V33.18000106811523 c0,0.2 -0.54,17.53 -16.51,21.42 A1.49,1.49 0 0 1 244.47207122802735,54.64000106811524 z" id="svg_36"/><path class="cls-3" d="M263.47207122802735,55.240001068115234 a1.49,1.49 0 0 1 -0.56,-0.11000000000000001 C247.55207122802733,48.96000106811523 246.64207122802736,35.880001068115234 246.61207122802733,35.300001068115236 V23.630001068115234 a1.5,1.5 0 1 1 3,0 V35.22000106811524 c0,0.39000000000000007 0.8900000000000001,11.69 14.42,17.13 a1.5,1.5 0 0 1 -0.56,2.89 z" id="svg_37"/></g></svg>