<svg xmlns="http://www.w3.org/2000/svg" data-name="圖層 1" width="120" height="120"><rect id="backgroundrect" width="100%" height="100%" x="0" y="0" fill="none" stroke="none" class="" style=""/><defs><style>.cls-1{fill:#942323;}.cls-2{fill:#133180;}</style></defs><title>網站</title><g class="currentLayer" style=""><title>Layer 1</title><g class=""><path class="cls-1" d="M36.85672531127929,94.12928100585938 c-9.85,3.36 -21,-3.08 -24.83,-14.35 s1,-23.18 10.89,-26.54 c7.34,-2.5 15.57,0.3100000000000001 21,7.18 a2.2,2.2 0 0 1 -0.08000000000000003,2.9 a1.7600000000000002,1.7600000000000002 0 0 1 -2.62,-0.3300000000000001 c-4.35,-5.54 -11,-7.8100000000000005 -16.9,-5.79 c-7.94,2.71 -11.88,12.31 -8.78,21.4 s12.09,14.28 20,11.58 c6,-2.06 10,-8.27 9.84,-15.46 a1.77,1.77 0 0 1 1.81,-1.94 a2.19,2.19 0 0 1 1.9,2.18 C49.2367253112793,83.87928100585938 44.336725311279295,91.57928100585937 36.85672531127929,94.12928100585938 z" id="svg_1"/><path class="cls-2" d="M73.55672531127931,51.78928100585938 a1.6300000000000003,1.6300000000000003 0 0 1 -0.8500000000000002,0.05000000000000002 A2.24,2.24 0 0 1 71.0067253112793,49.419281005859375 q0,-0.3000000000000001 0.06000000000000002,-0.5900000000000002 a1.7200000000000002,1.7200000000000002 0 0 1 2.07,-1.6 a2.25,2.25 0 0 1 1.62,2.44 c0,0.16000000000000006 0,0.3100000000000001 0,0.4700000000000001 A1.82,1.82 0 0 1 73.55672531127931,51.78928100585938 z" id="svg_2"/><path class="cls-1" d="M97.10672531127929,73.57928100585937 c-9.85,3.36 -21,-3.08 -24.83,-14.35 A24,24 0 0 1 71.0067253112793,49.419281005859375 a1.73,1.73 0 0 1 2,-1.6800000000000004 a2.24,2.24 0 0 1 1.6800000000000004,2.39 a19.32,19.32 0 0 0 1,7.88 c3.1,9.09 12.09,14.28 20,11.58 s11.88,-12.31 8.78,-21.4 a19.31,19.31 0 0 0 -4,-6.86 a2.24,2.24 0 0 1 -0.14,-2.92 a1.7200000000000002,1.7200000000000002 0 0 1 2.62,0.09000000000000004 a24,24 0 0 1 5,8.51 C111.83672531127931,58.31928100585938 106.95672531127929,70.21928100585939 97.10672531127929,73.57928100585937 z" id="svg_3"/><path class="cls-1" d="M91.5967253112793,51.96928100585937 L67.0067253112793,37.76928100585937 l4,-9.74 a2.31,2.31 0 0 0 -1,-2.8 a1.6700000000000004,1.6700000000000004 0 0 0 -2.44,0.8300000000000002 l-13.53,33 l-7.59,-22.26 a2.11,2.11 0 0 0 -1.6900000000000004,-1.46 a1.6600000000000001,1.6600000000000001 0 0 0 -1.7400000000000002,1.07 l-14.9,36.32 a2.31,2.31 0 0 0 1,2.8 a1.6700000000000004,1.6700000000000004 0 0 0 2.44,-0.8300000000000002 l13.1,-31.94 l7.59,22.26 h0 l1.6400000000000001,4.8 l-3.29,1.12 a2.11,2.11 0 0 0 1.35,4 l5,-1.71 l5.25,-1.79 a2.11,2.11 0 0 0 -1.35,-4 l-3.52,1.2 l-1.36,-4 L65.5467253112793,41.419281005859375 l24.57,14.2 a1.6700000000000004,1.6700000000000004 0 0 0 2.44,-0.8300000000000002 A2.31,2.31 0 0 0 91.5967253112793,51.96928100585937 z" id="svg_4"/><path class="cls-1" d="M46.6767253112793,32.419281005859375 L35.806725311279294,36.10928100585937 A3,3 0 0 1 33.88672531127929,30.419281005859375 l10.86,-3.71 A3,3 0 0 1 46.6767253112793,32.419281005859375 z" id="svg_5"/><path class="cls-1" d="M85.80672531127931,32.09928100585938 l-11.69,4 a2.11,2.11 0 0 1 -1.35,-4 l11.69,-4 a2.11,2.11 0 0 1 1.35,4 z" id="svg_6"/></g></g></svg>